<svg xmlns="http://www.w3.org/2000/svg" xmlns:xlink="http://www.w3.org/1999/xlink" viewBox="0 0 965 1501"><defs><style>.cls-1{isolation:isolate;}.cls-2{fill:#9e5726;}.cls-16,.cls-3,.cls-4,.cls-6{fill:#873808;}.cls-3{opacity:0.32;}.cls-4{opacity:0.38;}.cls-5{opacity:0.46;}.cls-7{fill:#7c9228;}.cls-8{fill:#9e7569;}.cls-9{fill:#78584b;}.cls-10{fill:#a85f29;}.cls-11{fill:#e29054;opacity:0.21;}.cls-12{opacity:0.35;}.cls-12,.cls-16,.cls-17{mix-blend-mode:multiply;}.cls-13{fill:#db7d3e;}.cls-14,.cls-22,.cls-23{fill:none;}.cls-14{stroke:#c74f0e;stroke-width:3px;}.cls-14,.cls-23{stroke-linecap:round;stroke-miterlimit:10;}.cls-15{fill:#ea883a;}.cls-16{opacity:0.43;}.cls-18{fill:#588a0e;}.cls-19{fill:#8cb025;}.cls-20{fill:#fff;}.cls-21{fill:#d38a3c;}.cls-22,.cls-23{stroke:#000;stroke-width:4px;}.cls-22{stroke-linejoin:round;}.cls-24{fill:#c9c9c9;}.cls-25{fill:#f2f2f2;}.cls-26{fill:#d8d8d8;}.cls-27{fill:#3a3a3a;}.cls-28{fill:#ddd;}.cls-29{fill:#4f4f4f;}.cls-30{fill:#fff385;}.cls-31{fill:#c1c1c1;}.cls-32{fill:#ffdce8;}.cls-33{fill:#eaacbc;}.cls-34{fill:#282828;}.cls-35{fill:#bc6f2f;}.cls-36{fill:#e5e5e5;}</style></defs><title>dog with sign</title><g class="cls-1"><g id="Шар_1" data-name="Шар 1"><path class="cls-2" d="M746.82,1321.5l9.7,133c-44.51,46.35-77.6-4.42-77.6-4.42L670,1171.78c19.89-284.55-15.63-491.13-26.83-558.49-.33-2-.63-3.8-.9-5.41,6.88-12.56,71.6-23.88,71.6-23.88l5.09,9.17,30.23-2.93c-.21.43-.41.89-.61,1.36-20.72,48.64-7.47,313.86-7.47,313.86L759,1016.78Z"/><path class="cls-3" d="M712,639.78s18,306,25,333,15,42,7,75-5,348-6,354-20,44-20,41-6-24-3-55-3-79-3-89-18,139-22,86,4-119,4-164-6-58,14-93,2-92,2-127-21-223-23-257-22-97-22-112S712,639.78,712,639.78Z"/><path class="cls-2" d="M227.44,1317.7l-14.88,16.51L226.89,1451c47.58,43.19,77.11-9.73,77.11-9.73l.72-189.21-12.52-15.73C252.83,953.86,275.7,672,282.25,604.05c.19-2,.37-3.84.53-5.46-7.73-12.06-73.07-18.91-73.07-18.91l-4.45,9.49-30.36-.85c.24.42.47.86.7,1.32,24,47.1,29,312.61,29,312.61l-14,15.57a17.22,17.22,0,0,0-2.22,20l23.91,42.47Z"/><path class="cls-3" d="M240.6,939.76s1.38-74-10.6-71.91S218.55,933,218.55,933l-18-1.85s38.45,53.68,35.94,111.7-3,241-3,241l8.09-108.07s-23.34,198.2-9.32,200.09,22.41-70.2,22.27-87.19,4.44-66,4.44-66l20.66,160.29a2.48,2.48,0,0,0,4.94-.37l-2.34-129.12s-28.36-161.77-27.83-217.77S257.93,740.61,240.6,939.76Z"/><path class="cls-4" d="M173.54,588.29c.69.46,1.37.92,2.06,1.35,42.77,27.78,96.13,28.29,106.65,14.41.2-.27.38-.54.56-.81a4.08,4.08,0,0,0,0-4.65c-7.73-12.06-73.07-18.91-73.07-18.91l-4.45,9.49-30.36-.85Z"/><g class="cls-5"><path class="cls-6" d="M201.49,810c.09-1,.18-1.89.29-2.83,1.45-13.45,4.64-26.72,11-38.47,3.15-5.91,7-11.5,10.8-17.21s7.55-11.57,10.39-18a53.15,53.15,0,0,0,4.83-20.32,35.48,35.48,0,0,0-1.29-10.36,27.16,27.16,0,0,0-4.62-9.23,31.92,31.92,0,0,1,4,19.5,55,55,0,0,1-5.69,19.09,147.81,147.81,0,0,1-10.7,17.19A195.24,195.24,0,0,0,209.3,766.8a87.63,87.63,0,0,0-7.52,19.54c-.43,1.74-.82,3.5-1.16,5.26Z"/></g><g class="cls-5"><path class="cls-6" d="M274.41,710.9l-.3,5.66-.32,6c-.45,1.25-.89,2.51-1.29,3.77-5.9,18.61-4.39,38.49-1.22,57.37v0Z"/><path class="cls-6" d="M270.74,802.42c-4.9-24.31-10.16-51.67-2.05-77.28a121.58,121.58,0,0,1,5.72-14.24h0c2.72-50,6-87.27,7.84-106.84Z"/></g><path class="cls-7" d="M70.08,1266.51c1.11.3,13.37,4.5,18,6.64q12.33,5.67,24.08,12.5c17.83,10.37,34.76,22.77,48.77,38,32.15,35,17.75-17.49,15.15-26.41a4.33,4.33,0,0,0-1.36-2.08l-24.52-20.79a1.41,1.41,0,0,0-2.29.79l-1.88,9a1,1,0,0,1-1.39.74,2.92,2.92,0,0,1-1.86-2.85l.45-10.88a2.68,2.68,0,0,0-1.37-2.47c-6-3.36-28.51-15.88-30.4-14.14-2.18,2,2.65,11.63.47,13.64-1.73,1.59-5.6-8.82-7.12-13.16a2.89,2.89,0,0,0-2.6-1.94c-8.11-.39-38.26-1.23-35,8a35.39,35.39,0,0,0,1.91,4.89A1.56,1.56,0,0,0,70.08,1266.51Z"/><path class="cls-7" d="M245.17,1452.7c-.27-1-28-96.44-98.55-140.94l4.22-6.68c73.1,46.14,100.8,141.43,101.94,145.47Z"/><path class="cls-7" d="M255.38,1463.65l-7.52-2.44c6.08-18.76-33.35-110.79-61.33-168.07l7.1-3.47C200.9,1304.55,264.39,1435.85,255.38,1463.65Z"/><path class="cls-7" d="M254.07,1456.33c-31.27-118.62-13-244.53-12.86-245.79l7.82,1.17c-.18,1.24-18.16,125.59,12.68,242.6Z"/><path class="cls-7" d="M262.05,1459.24c-4.39.78-7.43-3-34.92-96.17-13.72-46.49-27-93.73-27.12-94.2l7.62-2.13C222,1317.84,243.78,1393,256,1430.23c-1-50.79,26-129.13,27.22-132.77l7.47,2.6c-.33,1-33.22,96.54-25.69,143.23,1.49,9.22,2.39,14.79-2.32,15.82C262.47,1459.16,262.26,1459.21,262.05,1459.24Z"/><path class="cls-7" d="M296.37,1070.66s-53.79,113.12-52.39,164c0,0-32.3-21.38-25.52-25.58s19.21-1.86,18.44-6.24-22.71-9.54-24.93-13.65,10.26-52.89,19-54.43,17.65,14.94,22,14.17-18.74-29.77-18.74-29.77l34.94-40.68,5.21,12.6,1.56-16.8Z"/><path class="cls-7" d="M266.41,1268.25s15.93,13.74,15,16.91-5.32,3.94-5.32,3.94l-10-5.76s-7.73,7.37,2.12,20.67,16.37,7.65,16.37,7.65,36.93-63.58,66.7-82.33,34.33-27,34.33-27-5.4-5.06-17.32-4.48-28.9,6.57-28.9,6.57-.87,12.18-.1,16.55-4.12,2.22-4.12,2.22l-6.24-18.44s-31.41,26.55-31.15,28,5.89,20.75,5.89,20.75-.94,3.17-2.91.51-13.53-17.16-13.53-17.16Z"/><path class="cls-7" d="M156.41,1223.68l46.24,58s11.23,4,15.7-13.27,4.07-36.78-8-54.2S198,1195.35,198,1195.35l-6.71,13.19-4.88-2.15,9.62-13.7-23.12-29-19,28.87-1-5.83,13.22-18.84S138.42,1138.18,134,1139s-6.88,20.74-6.88,20.74l-2.22-4.12-1.87-19.21-23.91-7.82s-9.69,4.7-7.73,7.36Z"/><path class="cls-7" d="M153,1268.61l38.67,39.64s8.64,2.17,10.68-11,.28-27.62-10-39.66-10.56-13.1-10.56-13.1l-4,10.3-3.78-1.23,6.12-10.9-19.34-19.82-11.94,22.86-1.2-4.26,8.42-15s-22.83-20-26-19.1-3.57,15.92-3.57,15.92l-1.95-2.89-2.82-14.13-18.35-4s-6.85,4.22-5.19,6Z"/><path class="cls-8" d="M308.78,1455.43c-1.76,7.72-10.56,31.23-44.7,33.28s-73.27.82-80.71-3.49-28.37-45.07-23.78-46.78c0,0,10.27-4.77,9.68-12.27-.49-6.32,1-19.1,9.2-24.45l.05,0a14.71,14.71,0,0,1,5.22-2.09c12.82-2.5,15.33-12.43,26.11-4.86s24.77,20.06,27,18.58,14-12.36,41,11.08l.05,0,2.44,2.17c5,4.44,9.2,8,12.69,10.81l1.48,1.21h0C308.45,1449.81,310.14,1449.44,308.78,1455.43Z"/><path class="cls-9" d="M293.29,1437.5l-.21-.08c-11.12-4.48-27.14-7.68-35.62-10.37-12.13-3.85-41.18,2.74-50.38,6.15s-24.15,23.74-32.53,15.68,20.5-33.39,20.5-33.39l-16.53-13.8a14.71,14.71,0,0,1,5.22-2.09c12.82-2.5,15.33-12.43,26.11-4.86s24.77,20.06,27,18.58,14-12.36,41,11.08l.05,0,2.44,2.17C285.56,1431.14,289.81,1434.68,293.29,1437.5Z"/><path class="cls-10" d="M920,371l-.13,8.43-.13,8.67a38.67,38.67,0,0,0-7.36-10.65,33.82,33.82,0,0,0-8.75-6.45Z"/><path class="cls-10" d="M919.74,388.45l-.1,7-.16,11,0,1.53-.1,6.46L918.81,452l-.08,5.43v1l-.18,12.12-.28,19-.13,8.76-.92,62.07-.09,6.4-.7,47.53-.1,6.39-.62,43.1-.1,6.44-.41,27.75L915,711l-.22,15H27l0-7.08,0-6.4-.12-42,0-6.64-.08-28,0-6.44-.08-28.23,0-6.31-.05-16.29v-6.52h0l-.1-31,0-6.29-.2-66.56v-6.57l0-13.25,0-6.39-.1-30.86h0l0-8.82L26,371H903.63a33.91,33.91,0,0,1,8.75,6.58A39.59,39.59,0,0,1,919.74,388.45Z"/><g class="cls-5"><path class="cls-6" d="M844.78,371c-28.09,4-56.64,4.18-85,3.43-30.11-.81-60.21-2.18-90.3-3.43H587.55a3.08,3.08,0,0,0,3,3.13L701,378.5c35.32,1.39,70.75,3.53,106.09,2.1A356.44,356.44,0,0,0,864,374a2.66,2.66,0,0,0,2.24-3Z"/><path class="cls-6" d="M919.46,407.19l-.1,6.33c-14.41,3.34-29.18,4.37-43.83,6.21a178,178,0,0,0-23.7,4.34c-7.43,2-14.19,5.17-21.24,8.15a44.23,44.23,0,0,1-5.79,2l-.3.08c-1.27.35-2.55.63-3.83.87a62.11,62.11,0,0,1-19.25.2A122.77,122.77,0,0,1,788.58,433c-3.86-.91-7.72-1.94-11.59-3s-7.52-2-11.28-3l-.24-.05a100.5,100.5,0,0,0-22.93-3.41,98.12,98.12,0,0,0-10.58.55h0c-11.44,1.11-22.72,3.49-34.37,2.42-14.06-1.28-27.69-5.24-41.21-9.09-8.81-2.5-17.64-5.12-26.52-7.62h0c-21.25-6-42.74-11.19-64.81-12.23-15.76-.75-31,1.62-46.23,4.68h0c-13.94,2.81-27.82,6.21-42,8.34-29.34,4.43-59.05,5.46-88.67,4.55H388c-61.67-1.91-122.72-11.84-184.24-15.8-14-.91-28.06-1.4-42.08-1.55l-2.91,0s0,0,0,0q-13.14-.07-26.28.24c-1.09,0-2.16,0-3.23.07h0q-8.12.22-16.24.58c-15.72.68-31.42,1.67-47.11,2.74-7.87.54-15.8.85-23.63,1.71-6,.66-12.56,2-16.15,7.15l0-8.64c8.15-5.43,20.28-5.12,29.57-5.77,17.73-1.26,35.48-2.45,53.23-3.28a865.09,865.09,0,0,1,103,1.05c62.15,4.51,123.92,14.5,186.32,15.49,31,.49,62.24-1.29,92.74-7.29,14.53-2.85,28.83-6.88,43.49-9a166.91,166.91,0,0,1,44.43-.31c30.51,3.71,59.68,13.63,89.19,21.7,2.28.62,4.55,1.23,6.84,1.8h0c10.56,2.67,21.25,4.69,32.15,4.58q3,0,6-.27c15-1.28,28.81-4.12,43.88-1.66,3.06.5,6.1,1.12,9.12,1.81l.09,0c9.93,2.28,19.71,5.31,29.72,7.25,1,.21,2.07.4,3.1.58l.18,0c7.4,1.24,15.43,2.11,22.8.31a33.28,33.28,0,0,0,3.83-1.18l.1,0c4.32-1.59,8.42-3.83,12.68-5.56,25.45-10.27,53.66-8.32,80-14.6A3.54,3.54,0,0,1,919.46,407.19Z"/><path class="cls-6" d="M918.81,450.31l-.09,6.27-80.86.63-21.58.17c-4.48,0-9,0-13.45.06h0c-4.72,0-9.44.09-14.16.26h0c-5.61.18-11.21.51-16.79,1.08a115.91,115.91,0,0,0-25.24,5.34c-7.44,2.53-14.58,5.86-22.09,8.19-13.71,4.27-28.24,5.2-42.52,5.53-14.94.36-29.93.55-44.88.31a339.17,339.17,0,0,1-85.61-12c-29.09-8-58-15.94-87.76-21a662.68,662.68,0,0,0-89.25-8.74c-30.37-1-60.79-.63-91.13-2.54-14.39-.9-28.75-2.33-43-4.59-14.5-2.32-28.82-6.26-43.52-7.26-2.2-.16-4.4-.23-6.61-.24h0a128.8,128.8,0,0,0-14.16.64h0a260.49,260.49,0,0,0-30.3,5.14l-2.78.61c-8.63,1.93-17.2,4-25.74,5.71l-.25,0-1.73.35a855.38,855.38,0,0,1-89,12.54l0-6.26h0A844,844,0,0,0,116,427.71h.07c3.11-.62,6.22-1.25,9.34-1.91,4.83-1,9.66-2.1,14.48-3.17,2.05-.46,4.09-.9,6.13-1.34,7.81-1.68,15.66-3.24,23.59-4.32,1.67-.23,3.34-.42,5-.58a1.73,1.73,0,0,1,.32,0,143.73,143.73,0,0,1,38.83,1.55c7,1.22,13.9,2.54,20.84,3.81h.09c8.46,1.53,16.91,3,25.51,3.9,15.07,1.65,30.21,2.5,45.36,3,29.71,1,59.46.66,89.14,2.39a645.34,645.34,0,0,1,88.47,11.35c28.91,5.77,56.82,14.89,85.44,21.76,29.72,7.15,60.08,8.09,90.51,7.79,14.47-.14,29.07,0,43.47-1.55,15.45-1.72,28.69-7.79,43.26-12.59a133.68,133.68,0,0,1,31-5.9h0l2.31-.18c11.1-.79,22.35-.73,33.44-.67h2c4,0,7.88,0,11.77,0l8.7-.07,83.62-.66Z"/><path class="cls-6" d="M26.27,459.77C44,452,63.45,450.54,82.56,450q21.48-.57,43-.54h1.69c2.35,0,4.69,0,7,0q15.3.08,30.57.46c.7,0,1.4,0,2.1.05q16.59.4,33.18,1.14,30.67,1.35,61.28,3.8c17.88,1.43,37.84,1.14,54.38,8.85a3.14,3.14,0,0,1,1.13,4.28c-8.93,12.56-26.38,9.86-39.75,9.46a1153.72,1153.72,0,0,0-135.49,4q-40.89,3.6-81.46,10.1c-4,.63-5.64-5.4-1.67-6q28.18-4.52,56.55-7.7c8.1-.89,16.23-1.72,24.35-2.44q39.76-3.58,79.7-4.41,25.89-.53,51.8.09c7.66.18,15.36.8,23,.58,5.14-.16,10.83-.84,14.91-4A12.66,12.66,0,0,0,311.5,465c.37,1.42.75,2.85,1.12,4.29-1.23-.58-2.48-1.09-3.75-1.56-9-3.27-18.64-3.91-28.1-4.76q-16.31-1.51-32.64-2.68-45-3.25-90.13-4.13h0c-1.78,0-3.55-.08-5.33-.1q-6.6-.11-13.22-.15h0l-4.9,0h-.31c-18.11-.09-36.23,0-54.34.56-17.61.54-35.82,2-52,9.5a3.29,3.29,0,0,1-1.58.32Z"/><path class="cls-6" d="M163.31,448.62c47.37-.61,94.74-1.37,142.12-1.83,22.9-.22,44.72,1.42,66.62,8.53,19.6,6.35,38.9,14.61,59.68,16.14,18.64,1.37,43.35-5.71,58.08,9.25l2.21-5.35-91.73,1.72-45.86.86c-12.37.23-25.54-.26-36.83,5.64-10.71,5.6-18.33,15.37-29.54,20.33-11.75,5.19-24.83,6.52-37.54,6.69-28.67.39-57.58-2.42-86.21-3.88l-101.39-5.2c-4-.21-4,6.06,0,6.27l91,4.66c29,1.49,58.12,3.59,87.18,4.34,23.86.62,47.1-2.17,66.09-17.79,5.26-4.34,10.35-9,16.83-11.5s13.59-2.89,20.49-3.09c15.1-.45,30.22-.58,45.32-.87L492,481.63a3.17,3.17,0,0,0,2.22-5.35c-12.71-12.91-31.57-11.44-48.23-11a117.45,117.45,0,0,1-30.43-2.7c-10.69-2.5-21.05-6.22-31.41-9.81-10.1-3.5-20.28-6.94-30.78-9.05a189.67,189.67,0,0,0-34.13-3.23c-24.11-.4-48.27.43-72.38.74l-83.57,1.08c-4,0-4,6.32,0,6.27Z"/><path class="cls-6" d="M26.48,531.41a3.47,3.47,0,0,1,.85,0C71,537.34,115,536.8,158.86,534c23.35-1.47,46.66-3.59,69.89-5.7,29.25-2.67,58.53-5.36,87.87-6.86,30-1.53,60.58-.34,90.27-5.85,14.16-2.63,28-6.63,42.2-9.25A213,213,0,0,1,488.62,503c27.49.14,54.73,4.69,81.84,8.83s54.61,8.05,82.19,6.79c29.2-1.31,57-10.28,85.5-16,33.89-6.77,68.31-9,102.79-8.8,24.54.12,49.12,1.46,73.55,3.24,4,.29,4,6.56,0,6.26-24.92-1.81-49.91-3.19-74.91-3.27q-12.89-.06-25.78.39a502.51,502.51,0,0,0-99,13.86c-27.49,6.56-54.5,11.68-82.91,10.62-27.55-1-54.76-5.9-82-9.95-27.07-4-54.54-7.3-81.93-4.92-14.85,1.3-29.24,4.86-43.71,8.22a288.79,288.79,0,0,1-42.66,6.8c-29.77,2.34-59.7,2-89.5,4.15-29.34,2.06-58.61,5-87.9,7.54-14.86,1.29-29.74,2.49-44.63,3.43C115.2,543,70.7,543.49,26.5,537.57Z"/><path class="cls-6" d="M26.61,574.39a3.24,3.24,0,0,0,1.57-.31c24.34-11,51.51-12.79,77.85-12.7,16.33,0,32.66.57,49,1.14,11.57.41,23.12.84,34.67,1.15q83.7,2.3,167.46,3.49l8.57.12q48.81.68,97.63,1h0q46.35.28,92.69.2,80.41-.1,160.83-1.26,100.13-1.42,200.25-4.44l.09-6.27h0q-178.63,5.37-357.39,5.71H558q-57.27.09-114.53-.34-38.29-.29-76.59-.79-80.87-1.1-161.7-3.22c-15.78-.42-31.57-1-47.38-1.51-16-.54-32.08-1-48.12-1.17-28.17-.3-57,1.48-83.11,12.84h0Z"/><path class="cls-6" d="M26.68,596.52a2.85,2.85,0,0,0,.82,0q53.13-7.77,106.73-11.37,33.6-2.28,67.28-3c46.56-1,93.14,0,139.67,1.93q17.52.71,35.05,1.56c57.85,2.79,116.14,4.62,173.67,11.63,28.79,3.51,57,9.76,85.63,14.51,27.65,4.61,55.47,6.31,83.49,6.44,65.74.29,131.57-1.5,197.3-2.65l.1-6.26h0c-59,1-118,2-177,2.57-29,.27-58,0-86.79-3.8-28.36-3.79-56.25-10.48-84.56-14.65-57.25-8.42-115.46-10.17-173.18-13.13Q370.17,579,345.47,578c-42.06-1.77-84.16-2.83-126.26-2.38q-38.88.4-77.66,2.84Q83.92,582,26.66,590.34Z"/><path class="cls-6" d="M26.78,630.48c27.22-4.5,54.55-6.41,82-7,67.83-1.48,136,5.12,203.81.63,7.8-.51,15.59-1.21,23.37-2,37-3.79,73.76-10,111-11.1,22.52-.67,45.2.62,67.16,5.9s41.79,17.19,64,21.05c25.33,4.38,51.6,1.28,77.16,1.08q35.31-.28,70.58,1.76c-15.61,4.93-33.35,1.12-49.42-.14-21.77-1.71-41.23,3.74-61.35,11.53-21.23,8.23-41.91,16.13-65.1,14.92-24.14-1.27-47.24-9.67-70.13-16.69-46.3-14.24-94-18.13-142.28-17.29h-.15c-49.93.89-100,4.57-149.6,10.3q-8.56,1-17.09,2.09l-2,.25h0q-18.73,2.44-37.39,5.44l-1.87.3a4.51,4.51,0,0,0-.53.09q-11.93,1.92-23.81,4.09c-25.77,4.7-52.62,9.68-78.27,2.24l0,6.51c21.17,5.74,43.28,3.56,64.73,0,11.31-1.89,22.61-3.86,33.9-5.77.34-.07.7-.12,1-.18,2.94-.5,5.86-1,8.8-1.47,10.67-1.76,21.37-3.41,32.1-4.81l7.74-1,1.15-.15c47.91-6,96.18-9.55,144.41-11.21,5.74-.2,11.49-.36,17.24-.44,43.79-.74,87.8,1.9,130.1,14C491,660,513.39,668.62,537,672c22.62,3.26,43.5-.19,64.78-8.08,23.41-8.69,45.66-18.84,71.22-17.29,22.14,1.34,46.7,7.79,66.55-5.57a3.16,3.16,0,0,0-1.58-5.84q-36.69-2.49-73.46-2.54c-23.9,0-48.06,2.28-71.93.66a119.73,119.73,0,0,1-35.07-7.83c-10-3.84-19.79-8.28-30.06-11.47-21.16-6.57-43.39-9.19-65.49-9.49-42.53-.58-84.56,7-126.76,11.32l-7.83.75c-47.56,4.32-95.34,2.57-143,1.27-25.43-.7-50.91-1.24-76.33-.65-27.22.62-54.37,2.54-81.32,6.89Z"/><path class="cls-6" d="M47.53,694.1c49.21-16.32,102.57-13.76,153.73-14.49l162.37-2.3c26.48-.37,53.17-1.58,79.58.93,25.86,2.45,51.24,8.67,77,12.11,52.07,7,104.72,7.71,157.17,6.74,13.68-.26,27.89.38,41.44-1.74s24.42-10.63,37-15.57c25.2-9.9,52.9-9.73,79.56-9.58,4,0,4-6.24,0-6.26-23.16-.14-46.79-.19-69.32,5.89-11.56,3.12-21.62,8.46-32.2,13.86-12.2,6.23-24.77,6.4-38.17,6.73-53.13,1.32-106.46,1.47-159.36-4.37-26.36-2.9-52.19-8.54-78.41-12.3-25.76-3.69-51.64-3.31-77.59-2.94l-162.38,2.3c-29.68.42-59.42.33-89.08,1.64-28.06,1.24-56.19,4.43-83,13.3-3.81,1.27-2.18,7.32,1.66,6.05Z"/><path class="cls-6" d="M625.29,718.78a2.69,2.69,0,0,1,2.24-3c19.67-4.13,39.08-9.54,58.93-12.75,27.54-4.45,55.5-5.06,83.38-4.5.91,0,1.81,0,2.72.06,5.53.12,11.06.29,16.58.48q6.5.23,13,.52l2.45.11q45.91,2.12,91.62,7.36c4,.46,4,6.73,0,6.27q-30.83-3.54-61.76-5.68c-33.06-2.26-66.41-3.75-99.57-2.73a352.07,352.07,0,0,0-54.59,5.53c-12.6,2.38-25,5.46-37.5,8.35Z"/><path class="cls-6" d="M421.33,718.78H399.17c-22.2-4-44.23-9-66.82-10.79-25.63-2.06-51.43-2.16-77.14-2.73-25.54-.58-51.1-1-76.66-1q-9.33,0-18.68.09h0q-5.59,0-11.2.13h0C108,705.08,67.4,707.14,27,711.84l0-6.27h0c29.37-3.42,58.87-5.47,88.41-6.55q10.08-.37,20.16-.59l2.16,0h0q16.2-.35,32.42-.4h2.48c31.67-.09,63.34.55,95,1.29,25.57.61,51.26.74,76.7,3.62,25.16,2.83,49.72,9.25,74.77,12.87A2.47,2.47,0,0,1,421.33,718.78Z"/><path class="cls-6" d="M915.7,657.78a3.08,3.08,0,0,0-.89.07,489,489,0,0,0-71,21.2c-3.72,1.43-2.1,7.5,1.67,6a487,487,0,0,1,70.13-21Z"/></g><path class="cls-11" d="M183.7,687.45s-104.44-51.17-67.88-85.64,53.26-38.64,38.64-85.64-45.69-85.37,20-92.82,39.55,3,133.55-2.22,169.17-16.33,221.92-19.65,236.56,31.14,280.43,31.14,57.44,129.5-61.62,114.88S591,504.68,558.64,564.21s-132.83-40.67-196.44-.49,13.77,93.44-54.69,111.2S183.7,687.45,183.7,687.45Z"/><ellipse class="cls-13" cx="225.19" cy="661.27" rx="23.03" ry="24.38" transform="translate(-74.27 30.15) rotate(-6.58)"/><path class="cls-14" d="M231.55,647.47s-10.89,16.08-11.93,28.43"/><path class="cls-14" d="M237.39,671.59s-17-9.31-23.62-19.81"/><ellipse class="cls-15" cx="219.61" cy="416.87" rx="23.03" ry="24.38" transform="translate(-46.31 27.9) rotate(-6.58)"/><path class="cls-14" d="M226,403.08S215.07,419.16,214,431.5"/><path class="cls-14" d="M231.81,427.2s-17.05-9.31-23.62-19.82"/><ellipse class="cls-13" cx="704.94" cy="664.8" rx="24.38" ry="23.03" transform="translate(-36.24 1288.94) rotate(-83.42)"/><path class="cls-14" d="M698.59,651s10.89,16.08,11.93,28.43"/><path class="cls-14" d="M692.74,675.12s17-9.31,23.62-19.81"/><ellipse class="cls-15" cx="703.53" cy="425.4" rx="24.38" ry="23.03" transform="translate(200.33 1075.57) rotate(-83.42)"/><path class="cls-14" d="M697.18,411.61s10.89,16.08,11.93,28.42"/><path class="cls-14" d="M691.33,435.73s17-9.31,23.62-19.82"/><path class="cls-16" d="M812.52,538.83,594.14,395.24a3.75,3.75,0,0,0-5.69,4.07l25.09,97.31-427.88,5.59a13.14,13.14,0,0,0-12.92,13.26l.94,72a13.14,13.14,0,0,0,13.26,12.92l432.41-5.66L607.94,687a2.18,2.18,0,0,0,3.25,2.32L812.55,555.85A10.19,10.19,0,0,0,812.52,538.83Z"/><path class="cls-18" d="M750.43,1456.48s-20.3-27.9,35.7-52c0,0,4.87,31.66-13.36,42.15S750.43,1456.48,750.43,1456.48Z"/><path class="cls-18" d="M747.85,1452.4S790.61,1428.93,803,1475C803,1475,781.93,1482.53,747.85,1452.4Z"/><path class="cls-18" d="M756.52,1454.49s14.54-31.28-45-44.11c0,0,1.32,32,21.23,38.79S756.52,1454.49,756.52,1454.49Z"/><path class="cls-18" d="M758,1446s-46.42-16.47-50.08,33.38C707.94,1479.37,730.1,1483.3,758,1446Z"/><path class="cls-18" d="M747.28,1444.87s39,21.1,8.59,50.63C755.87,1495.5,720.24,1460.71,747.28,1444.87Z"/><path class="cls-18" d="M669.16,1446.11s-9.51-22.92,33.71-30.35c0,0-1.91,23-16.43,27.25S669.16,1446.11,669.16,1446.11Z"/><path class="cls-18" d="M668,1442.82s33.87-9.23,34.81,25.1C702.85,1467.92,686.82,1469.63,668,1442.82Z"/><path class="cls-18" d="M673.76,1445.74s15.43-19.44-24.1-38.43c0,0-4.46,22.62,8.33,30.71S673.76,1445.74,673.76,1445.74Z"/><path class="cls-18" d="M676.24,1440.05s-29.71-19.33-40.64,14.93C635.6,1455,650.44,1461.46,676.24,1440.05Z"/><path class="cls-18" d="M668.91,1437.46s23.72,21.31-2.5,36.86C666.41,1474.32,647.34,1444,668.91,1437.46Z"/><path class="cls-18" d="M308.43,1467.48s-20.3-27.9,35.7-52c0,0,4.87,31.66-13.36,42.15S308.43,1467.48,308.43,1467.48Z"/><path class="cls-18" d="M305.85,1463.4S348.61,1439.93,361,1486C361,1486,339.93,1493.53,305.85,1463.4Z"/><path class="cls-18" d="M314.52,1465.49s14.54-31.28-45-44.11c0,0,1.32,32,21.23,38.79S314.52,1465.49,314.52,1465.49Z"/><path class="cls-18" d="M316,1457s-46.42-16.47-50.08,33.38C265.94,1490.37,288.1,1494.3,316,1457Z"/><path class="cls-18" d="M305.28,1455.87s39,21.1,8.59,50.63C313.87,1506.5,278.24,1471.71,305.28,1455.87Z"/><path class="cls-19" d="M204.85,371a2.64,2.64,0,0,0-1-1.68,59.35,59.35,0,0,0-17.78-10q-2.59-.93-5.27-1.62a60,60,0,0,0-44.6,5.58A53.43,53.43,0,0,0,125.88,371a59.17,59.17,0,0,0-13.19,18.7c-.41.91-.81,1.84-1.17,2.77a60.41,60.41,0,0,0-2.13,6.38c-.3,1.08-.56,2.16-.8,3.25a59.67,59.67,0,0,0-.92,20.55,57.29,57.29,0,0,0,1.23,6.44,56.17,56.17,0,0,0,1.88,6,64.7,64.7,0,0,0,5.36,11q1.06,1.76,2.22,3.45c1.46,2.15,3,4.23,4.69,6.27.16.21.33.41.5.62a183.53,183.53,0,0,0,14.67,15.45q1.75,1.71,3.54,3.39c2,1.93,4.05,3.84,6.05,5.77,1.57,1.5,3.13,3,4.66,4.53,3.08,3,6.05,6.14,8.83,9.34a92.4,92.4,0,0,1,9.08,12.16q1.11,1.79,2.1,3.63c.24.44.47.88.69,1.33s.51,1,.75,1.54a56,56,0,0,1,5.24,19c.16,1.72.24,3.49.24,5.3,0,.31,0,.62,0,.93A81.52,81.52,0,0,1,177,557c-.5,2.1-1.07,4.2-1.7,6.28-.16.51-.31,1-.47,1.51-.45,1.39-.91,2.78-1.4,4.15-.35,1-.7,2-1.07,2.92l0,.07c-.63,1.68-1.3,3.36-2,5q-1.31,3.2-2.72,6.34c-3.4,7.62-7.12,15.08-10.57,22.38-1.56,3.3-3.12,6.63-4.64,10-.24.53-.48,1.06-.71,1.59-.92,2-1.83,4.12-2.7,6.2a2.56,2.56,0,0,0-.11.24,161.59,161.59,0,0,0-8.78,26.17q-.75,3.29-1.31,6.62c-.16,1-.3,2-.43,2.93-.29,2.17-.51,4.35-.64,6.55s-.19,4.59-.13,6.91q0,.64,0,1.29c0,.1,0,.19,0,.29q.14,3,.44,6a128,128,0,0,0,3.34,17.94q.81,3.12,1.72,6.23c1.95,6.73,4.21,13.39,6.42,20.07.15.46.31.92.46,1.39.9,2.72,1.79,5.44,2.64,8.17a190.15,190.15,0,0,1,5,19c2.64,13.23,2.68,27.13-3.08,39.6-4.51,9.78-12,17.8-19.81,25-15.08,13.9-34.08,25.86-43.52,44.73a46.45,46.45,0,0,0-5,18.85,50.4,50.4,0,0,0,1.23,13.3C90.25,907,97.22,918.73,105.55,929c4.43,5.47,9.23,10.63,14.09,15.72,2.68,2.79,6.91-1.45,4.24-4.24C109.1,925,91.35,905.22,92,882.9a38.64,38.64,0,0,1,.58-5.72,40.23,40.23,0,0,1,1.5-6c6.43-19.47,25.5-32.09,40.24-45,15.86-13.85,29.25-29.72,30.9-51.59.87-11.56-1.14-22.86-4.21-34-1.36-4.9-2.92-9.75-4.54-14.59l-.65-1.94c-2.21-6.58-4.49-13.11-6.43-19.62-.48-1.59-.94-3.17-1.37-4.76-.13-.49-.27-1-.39-1.48a123.82,123.82,0,0,1-3.45-18c0-.3-.07-.6-.1-.9-.17-1.69-.3-3.38-.37-5.08a79.33,79.33,0,0,1,.07-8.72c0-.67.09-1.33.15-2s.13-1.36.21-2q.36-3,.93-6c.4-2.2.89-4.4,1.45-6.57a160.21,160.21,0,0,1,7.25-21.32c.35-.87.71-1.73,1.09-2.59.11-.28.22-.55.34-.82l.27-.62c.89-2.07,1.81-4.14,2.75-6.19,4.66-10.26,9.78-20.35,14.34-30.66q.56-1.23,1.08-2.46c.18-.4.35-.81.52-1.22.9-2.1,1.77-4.21,2.59-6.33,1.61-4.09,3.08-8.23,4.36-12.44l.23-.77c.62-2.09,1.16-4.18,1.64-6.28a85.58,85.58,0,0,0,2.18-18.8q0-3.12-.26-6.22a65.81,65.81,0,0,0-4.12-18.19,61.53,61.53,0,0,0-2.91-6.44c-.3-.59-.61-1.18-.94-1.77-.12-.21-.24-.43-.37-.64-.44-.77-.9-1.54-1.38-2.3A99.32,99.32,0,0,0,165,489.46q-2.51-2.81-5.18-5.49-1.8-1.83-3.64-3.61c-2-2-4.06-3.89-6.11-5.81-5.06-4.74-10.16-9.43-14.95-14.39-1.38-1.43-2.74-2.87-4.05-4.35-.21-.22-.41-.45-.61-.68-.94-1.06-1.85-2.15-2.74-3.25-.63-.78-1.25-1.57-1.85-2.38a75.35,75.35,0,0,1-6-9.18,60.17,60.17,0,0,1-3-6.39,52.49,52.49,0,0,1-2-6,47.66,47.66,0,0,1-1.38-7.48,54.54,54.54,0,0,1,.78-16,57,57,0,0,1,1.51-5.92,55.85,55.85,0,0,1,2.31-6.13,2.4,2.4,0,0,1,.11-.23,55.17,55.17,0,0,1,5.65-9.8A47.78,47.78,0,0,1,135.47,371c17.67-12.18,42.63-12.36,60.7,0Z"/><path class="cls-19" d="M912.25,370.75H904c-7.32-3.69-15.68-4.17-23.44,0-.49.26-1,.54-1.46.84-1.55,1-3.06,2-4.54,3.08-2.26,1.64-4.45,3.42-6.59,5.29h0c-6.08,5.29-11.74,11.22-17.41,16.63-8.82,8.41-17.69,16.78-27.4,24.15h0l-.83.62c-1.08.81-2.17,1.6-3.27,2.38h0c-2.83,2-5.74,3.85-8.74,5.58-1.72,1-3.47,2-5.24,2.87s-3.64,1.79-5.49,2.6c-11.86,5.19-24.65,8-37.79,7a56,56,0,0,1-9.88-1.63c-.49-.12-1-.26-1.47-.4h0a51.82,51.82,0,0,1-19.49-10.56,53.62,53.62,0,0,1-4.84-4.7c-.55-.58-1.08-1.19-1.58-1.8s-1.23-1.47-1.81-2.23c-.33-.42-.65-.86-1-1.3a66.21,66.21,0,0,1-5.56-9.14c-5-9.8-8.15-20.4-11.85-30.77,0,0,0,0,0,0-.12-.3-.22-.61-.34-.92-.63-1.77-1.28-3.53-2-5.28l-.39-1-.54-1.33a95.4,95.4,0,0,0-8-15.8c-11-16.95-28.73-23.33-47.46-22.19h0c-1.62.1-3.23.25-4.86.46h0q-3.18.4-6.34,1.08c-18.84,4-35.28,13-51.82,22.16h0l-4.7,2.59h0c-3,1.66-6,3.3-9.1,4.9-2.31,1.2-4.66,2.4-7,3.56a2.69,2.69,0,0,1-.38.19q-3.19,1.57-6.48,3.05c-10.35,4.63-21.28,8.44-32.39,9.9A66.46,66.46,0,0,1,500,380a56,56,0,0,1-20.61-9.26q-1.89-1.31-3.73-2.72c-3.63-2.75-7.11-5.74-10.61-8.74l-.25-.22c-1.61-1.39-3.22-2.78-4.86-4.16-2.22-1.85-4.47-3.68-6.8-5.41-1.71-1.29-3.46-2.53-5.27-3.69l-.06,0c-.87-.56-1.75-1.08-2.63-1.57-.43-.24-.85-.47-1.28-.68l-.46-.23c-.89-.45-1.79-.86-2.7-1.22a32.09,32.09,0,0,0-9.84-2.37,28.67,28.67,0,0,0-11.74,1.61c-.44.16-.89.33-1.33.51l-1,.42-.16.07-1.9.89q-1.19.58-2.34,1.2l-.53.29c-2.59,1.39-5.1,2.91-7.59,4.47-2.88,1.8-5.74,3.65-8.66,5.39l-.06,0a83.73,83.73,0,0,1-10,5.26,114.66,114.66,0,0,1-27.41,7.9A120.42,120.42,0,0,1,319,367.5l-.12,0-1.15-.21-.44-.08c.16-1.48.34-3,.55-4.44l.44.08,1.17.22a115,115,0,0,0,39.55,0c1.3-.22,2.59-.47,3.88-.74a109,109,0,0,0,28-10l.15-.08c2.13-1.11,4.23-2.3,6.28-3.57,2.89-1.78,5.75-3.69,8.66-5.51l1-.62c.58-.35,1.16-.7,1.75-1,.77-.46,1.55-.91,2.34-1.33l0,0,.21-.11.4-.22c5-2.65,10.23-4.63,16.09-4.9a35.37,35.37,0,0,1,18.36,4.48c.94.49,1.88,1,2.8,1.57.72.44,1.44.9,2.15,1.37l.39.26c.85.56,1.69,1.15,2.52,1.76h0l.27.2c1.92,1.42,3.8,2.92,5.65,4.47l.77.64c1.45,1.23,2.89,2.49,4.3,3.74l5,4.41c2.06,1.81,4.09,3.56,6.12,5.17.87.69,1.73,1.35,2.6,2,1.1.8,2.2,1.56,3.3,2.26l.2.12a62.46,62.46,0,0,0,6,3.37c11.39,5.58,22.94,6.69,34.49,5a95.45,95.45,0,0,0,19.34-5,179.21,179.21,0,0,0,17.32-7.48l.38-.18c5.49-2.69,11-5.6,16.37-8.53l7.51-4.08c10-5.43,19.86-10.64,29.41-14.38a116.27,116.27,0,0,1,29.22-7.65,71.85,71.85,0,0,1,11.81-.41,55.64,55.64,0,0,1,21.16,5.07c15.64,7.35,24.16,21.87,30.33,37.19a4.22,4.22,0,0,1,.18.45c.21.51.41,1,.61,1.53.46,1.17.9,2.35,1.34,3.53v0c.3.85.61,1.7.92,2.55l.06.17c4.82,13.51,9.23,28.56,18,40.11a51.71,51.71,0,0,0,4.34,5,3.5,3.5,0,0,0,.28.27,44.16,44.16,0,0,0,8.54,6.69,47.11,47.11,0,0,0,11.4,4.91,54.87,54.87,0,0,0,13,2h0a75.05,75.05,0,0,0,27.09-4.3c1.52-.51,3-1.08,4.5-1.67,2.28-.93,4.51-1.94,6.66-3,1.24-.63,2.46-1.28,3.65-1.95,3.53-2,6.91-4.16,10.19-6.46h0c2-1.43,4-2.9,6-4.42l0,0c15-11.66,28-25.9,42.24-38.42,1.27-1.12,2.55-2.24,3.87-3.36h0l1-.84s0,0,0,0c1-.8,2-1.58,3-2.32h0a52.67,52.67,0,0,1,5.16-3.45h0c4.8-2.79,10-4.57,16-4.18A33.65,33.65,0,0,1,912.25,370.75Z"/><path class="cls-19" d="M932.33,443.44a151.56,151.56,0,0,1-1,15.53q-.3,2.7-.75,5.38c-1.85,11.17-5.46,22-12.16,31-.55.75-1.12,1.49-1.72,2.21-.86,1-1.76,2.05-2.71,3-.75.77-1.52,1.51-2.32,2.21-5.65,5-12.38,8.51-18.81,12.45-.84.51-1.67,1-2.49,1.55a67.67,67.67,0,0,0-6.4,4.64A75,75,0,0,0,864.51,547a87,87,0,0,0-4.28,10.76c-.69,2.08-1.29,4.19-1.81,6.31a94.59,94.59,0,0,0-2,10.69c-.4,3-.66,6-.79,9a110.22,110.22,0,0,0,2,26.26c.27,1.43.58,2.86.91,4.28.17.7.34,1.4.52,2.09a147,147,0,0,0,7.41,21.81c.49,1.16,1,2.31,1.52,3.46a209.57,209.57,0,0,0,13.26,24.59c1.15,1.85,2.33,3.68,3.52,5.5,2.76,4.21,5.63,8.34,8.56,12.4,2.29,3.17,5,6.43,7.53,9.85a57.68,57.68,0,0,1,5.11,8.05h0a24.75,24.75,0,0,1,3,12.86,24.38,24.38,0,0,1-.51,3.6c-2.11,9.81-10,18.63-16.3,25.8-2.65,3-5.49,5.95-8.46,8.85-1.69,1.66-3.43,3.3-5.21,4.94-10.76,9.91-22.78,19.47-34,29.6-.83.73-1.65,1.48-2.47,2.24h0c-14.27,13.07-27,27.18-34,44.24q-1.12,2.76-2,5.63a74.18,74.18,0,0,0-3.51,19.67c-.13,2.89-4.63,2.9-4.5,0a78.68,78.68,0,0,1,8.25-31.46c7.2-14.68,17.83-27,29.57-38.2,1.84-1.76,3.71-3.49,5.59-5.19,4-3.64,8.12-7.18,12.21-10.66,7.82-6.65,15.7-13.24,23.17-20.29,1.2-1.11,2.39-2.26,3.56-3.42l.73-.71c8.45-8.39,19.25-18.85,22.68-30.57,0-.16.09-.32.13-.48,1.91-7.25-1.11-14.12-5.41-20.49-.24-.36-.49-.71-.74-1.07-3.53-5-7.74-9.73-10.78-14-2.28-3.24-4.51-6.52-6.65-9.84-1.2-1.81-2.35-3.64-3.49-5.49-3.44-5.57-6.66-11.28-9.59-17.14-.45-.9-.89-1.8-1.33-2.71q-1.74-3.62-3.33-7.32a152.75,152.75,0,0,1-8.08-23.93c-.52-2.12-1-4.24-1.39-6.38a111.07,111.07,0,0,1-1.92-27.63c.08-1.3.18-2.6.31-3.89.14-1.49.31-3,.52-4.46.45-3.33,1.07-6.64,1.84-9.92.51-2.12,1.07-4.22,1.71-6.3a86.55,86.55,0,0,1,17.32-31.78,60.8,60.8,0,0,1,6.87-6.68,94.07,94.07,0,0,1,9.24-6.74c3.35-2.17,6.81-4.23,10.33-6.37a58.11,58.11,0,0,0,5.77-4,52.26,52.26,0,0,0,6.41-5.82,50.56,50.56,0,0,0,7.15-9.75,51.84,51.84,0,0,0,2.93-6.09A82.29,82.29,0,0,0,926.25,464q.57-3.15.94-6.34c1.67-14.35.64-29.26-.72-43.21a107.51,107.51,0,0,0-2.66-16.12c-.28-1.1-.58-2.19-.92-3.27a52.19,52.19,0,0,0-2.82-7.22l.13-8.67a51.5,51.5,0,0,1,7.08,15,81.7,81.7,0,0,1,2.21,9.37c.35,1.91.64,3.83.89,5.74A244.15,244.15,0,0,1,932.33,443.44Z"/><path class="cls-19" d="M777.06,840.76s24,5,28.87-13C805.93,827.81,788.94,818.67,777.06,840.76Z"/><path class="cls-19" d="M811.08,781s17.28,17.44,31.24,5.1C842.32,786.12,833.17,769.13,811.08,781Z"/><path class="cls-19" d="M854,817.06s6.91-23.55-10.64-29.81C843.31,787.25,832.86,803.47,854,817.06Z"/><path class="cls-19" d="M851,741.57s14.17,20,30,10.17C880.93,751.74,874.7,733.48,851,741.57Z"/><path class="cls-19" d="M887.47,783.18s10.7-22.09-5.58-31.15C881.89,752,868.91,766.31,887.47,783.18Z"/><path class="cls-19" d="M880.92,723.5s22.89-8.85,17.17-26.58C898.09,696.92,878.86,698.5,880.92,723.5Z"/><path class="cls-19" d="M930.18,698.24s-18.82-15.76-31.57-2.18C898.61,696.06,909.29,712.13,930.18,698.24Z"/><path class="cls-19" d="M847.92,666.5s22.89-8.85,17.17-26.58C865.09,639.92,845.86,641.5,847.92,666.5Z"/><path class="cls-19" d="M897.18,641.25s-18.81-15.77-31.57-2.19C865.61,639.06,876.29,655.13,897.18,641.25Z"/><path class="cls-19" d="M822.85,583s22.83,9,30.64-7.9C853.49,575.13,838.28,563.25,822.85,583Z"/><path class="cls-19" d="M876.18,597.85s-3.15-24.34-21.73-23C854.45,574.84,851.41,593.9,876.18,597.85Z"/><path class="cls-19" d="M859,510.75s17.93,16.76,31.41,3.9C890.37,514.65,880.58,498,859,510.75Z"/><path class="cls-19" d="M903.13,544.12s6-23.8-11.76-29.38C891.37,514.74,881.54,531.35,903.13,544.12Z"/><path class="cls-19" d="M898.77,466.19s22.54,9.72,30.88-6.94C929.65,459.25,914.81,446.91,898.77,466.19Z"/><path class="cls-19" d="M951.62,482.66s-2.39-24.43-21-23.67C930.61,459,927,477.94,951.62,482.66Z"/><path class="cls-19" d="M897.75,412.6s24.5,1.36,26.59-17.15C924.34,395.45,906.17,389,897.75,412.6Z"/><path class="cls-19" d="M953,409.87s-10.66-22.11-27.87-15C925.17,394.88,928.28,413.92,953,409.87Z"/><path class="cls-19" d="M885.57,399.82s1.69-24.49-16.79-26.83C868.78,373,862.06,391.08,885.57,399.82Z"/><path class="cls-19" d="M883.59,344.49s-22.25,10.36-15.37,27.67C868.22,372.16,887.31,369.3,883.59,344.49Z"/><path class="cls-19" d="M845.89,437.78s-9.9-22.46-27.34-15.93C818.55,421.85,821,441,845.89,437.78Z"/><path class="cls-19" d="M818.39,389.73s-14.88,19.53-.73,31.64C817.66,421.37,833.22,410,818.39,389.73Z"/><path class="cls-19" d="M752.79,471s13.14-20.73-2-31.59C750.8,439.4,736.27,452.11,752.79,471Z"/><path class="cls-19" d="M777.38,421.39s-24.5-1.48-26.68,17C750.7,438.41,768.84,445,777.38,421.39Z"/><path class="cls-19" d="M686.44,399.64s22.79-9.13,16.86-26.79C703.3,372.85,684.09,374.66,686.44,399.64Z"/><path class="cls-19" d="M735.4,373.79s-19-15.53-31.6-1.8C703.8,372,714.68,387.93,735.4,373.79Z"/><path class="cls-19" d="M648.22,361.76s10.54-22.17-5.8-31.12C642.42,330.64,629.54,345,648.22,361.76Z"/><path class="cls-19" d="M666.64,309.55s-24.5,1.49-24.43,20.12C642.21,329.67,661,334,666.64,309.55Z"/><path class="cls-19" d="M600.83,378.15s-4.63-24.11-23.1-21.64C577.73,356.51,575.87,375.72,600.83,378.15Z"/><path class="cls-19" d="M584.75,325.17s-18.86,15.72-7.77,30.68C577,355.85,594.69,348.2,584.75,325.17Z"/><path class="cls-19" d="M180.79,357.73q2.67.69,5.27,1.62a36.07,36.07,0,0,1-3.76,3.36A43.77,43.77,0,0,1,180.79,357.73Z"/><path class="cls-19" d="M82.61,403.36s23.25,7.87,30.22-9.4C112.83,394,97.05,382.85,82.61,403.36Z"/><path class="cls-19" d="M136.61,415.53s-4.34-24.15-22.84-21.9C113.77,393.63,111.68,412.81,136.61,415.53Z"/><path class="cls-19" d="M155.43,334.57s1.73,24.48,20.36,24.23C175.79,358.8,179.93,340,155.43,334.57Z"/><path class="cls-19" d="M165.09,389.08s20.6-13.36,11.37-29.54C176.46,359.54,158,365,165.09,389.08Z"/><path class="cls-19" d="M109.84,478.38S132,467.87,125,450.61C125,450.61,106,453.6,109.84,478.38Z"/><path class="cls-19" d="M157.11,449.58s-19.92-14.34-31.64.14C125.47,449.72,137.3,465,157.11,449.58Z"/><path class="cls-19" d="M153.49,529.68s22.8-11.77,13.28-31.69C166.77,498,146.49,501.17,153.49,529.68Z"/><path class="cls-19" d="M201.36,497.23S178.2,480.5,167.15,497C167.15,497,181.67,514.63,201.36,497.23Z"/><path class="cls-19" d="M147.72,572.69s22.77,9.18,30.71-7.67C178.43,565,163.3,553,147.72,572.69Z"/><path class="cls-19" d="M201,587.91s-3-24.37-21.56-23.17C179.39,564.74,176.21,583.77,201,587.91Z"/><path class="cls-19" d="M123.67,627.57s23.06,8.42,30.43-8.68C154.1,618.89,138.6,607.41,123.67,627.57Z"/><path class="cls-19" d="M177.37,641s-3.77-24.25-22.31-22.44C155.06,618.58,152.51,637.71,177.37,641Z"/><path class="cls-19" d="M116.7,696.36s24.5,1.46,26.67-17C143.37,679.32,125.22,672.76,116.7,696.36Z"/><path class="cls-19" d="M172,693.86s-10.56-22.16-27.81-15.11C144.19,678.75,147.23,697.8,172,693.86Z"/><path class="cls-19" d="M129.19,754.73s24.38,2.86,27.6-15.49C156.79,739.24,139.05,731.66,129.19,754.73Z"/><path class="cls-19" d="M184.54,755.39s-9.28-22.72-26.89-16.67C157.65,738.72,159.59,757.92,184.54,755.39Z"/><path class="cls-19" d="M116.79,805.32s20.34,13.74,31.63-1.08C148.42,804.24,136.14,789.36,116.79,805.32Z"/><path class="cls-19" d="M165.65,831.34s2.19-24.45-16.23-27.17C149.42,804.17,142.32,822.12,165.65,831.34Z"/><path class="cls-19" d="M69.79,855.32s20.34,13.74,31.63-1.08C101.42,854.24,89.14,839.36,69.79,855.32Z"/><path class="cls-19" d="M118.65,881.34s2.19-24.45-16.23-27.17C102.42,854.17,95.32,872.12,118.65,881.34Z"/><path class="cls-19" d="M87.66,950.44s22.88-8.89,17.13-26.61C104.79,923.83,85.56,925.45,87.66,950.44Z"/><path class="cls-19" d="M136.88,925.11S118,909.38,105.31,923C105.31,923,116,939,136.88,925.11Z"/><path class="cls-19" d="M822,862.09s3.57-24.28-14.68-28C807.29,834.05,799.2,851.57,822,862.09Z"/><path class="cls-20" d="M551.6,471.91c-3.49,29.17-7,58.94-.89,87.69.65,3.07,1.4,6.13,2.15,9.2.06.24.11.47.17.71,1.83,7.47,3.56,15,3.54,22.62A32.84,32.84,0,0,1,553,607.89a50,50,0,0,1-6.86,8.92c-4.14,4.61-8.31,9.25-13.31,12.94-6.08,4.47-13.18,7.41-20.39,9.76a59.71,59.71,0,0,1-14.36,3c-.22,0-.45,0-.68,0a26.9,26.9,0,0,1-10.35-1.4l-.09,0c-.35-.13-.7-.27-1-.42-7.24-3.2-12.49-11.54-9.79-18.65a7.6,7.6,0,0,1,.37-.89,6.25,6.25,0,0,1-4.82,2.49,9.23,9.23,0,0,1-6.93-2.51c-3.14-3.1-4-7.73-4.3-12.08-1.61-24.91,10.9-48.72,12.86-73.62,1.12-14.19-1.19-28.61-2-42.83-.59-10.2-.39-20.3,2.41-30.13.91-3.21,2.09-6.39,3.23-9.57.25-.72.51-1.43.75-2.15,2.05-5.92,3.68-11.87,2.85-18,0-.33-.1-.66-.16-1s-.16-.85-.26-1.27h0A33,33,0,0,0,472.7,417c-2.88-3.39-6.52-8.25-10.77-10a12.36,12.36,0,0,0-4.89-.86l-.68,0-.42,0h-.1c-3.43.19-7,1.15-10.34,1.4l-.32,0a17.56,17.56,0,0,1-1.77,0l-1-.05a103.46,103.46,0,0,1-17.17-2.31l-1.51-.32a77.13,77.13,0,0,0-10.48-1.62l-1.09-.08a77.09,77.09,0,0,0-8.6-.15l-1.1.05a78.59,78.59,0,0,0-19.61,3.52c-4.38,1.39-8.81,3.29-11.76,6.74-2.35,2.77-3.54,6.29-4.65,9.72q-7,21.67-12.43,43.78c-1.67,6.78-3.22,13.9-1.41,20.64a37.2,37.2,0,0,1,1.36,9,22.6,22.6,0,0,1-1.33,8.31c-3.75,10.28-4.44,21.33-5.08,32.2q-.66,11-1.31,22c0,.13,0,.26,0,.39q-1,16.25-1.93,32.49c-.77,13.05-3.77,29.06-16.55,33-3.27,1-6.86,1.06-10,2.49-3.95,1.83-6.54,5.63-10.13,8.09a18.12,18.12,0,0,1-4.06,2.08l-.42.15a24.72,24.72,0,0,1-6.45,1.22l-.67,0-.55,0h-.43a57.38,57.38,0,0,1-11.19-1.11l-.32-.06c-6.52-1.21-13.27-2.91-18.19-7.24-4.6-4.05-7-11-4.31-16.33q.19-.37.42-.75a3.2,3.2,0,0,1-2.37,1.23h0a8.13,8.13,0,0,1-5.52-2c-8.54-7.38-8.41-20.79-3.84-31s12.59-18.58,18.51-28.13c18.47-29.82,14.6-67.44,23-101.29,3.08-12.39,7.84-24.36,10.35-36.87A171.27,171.27,0,0,0,304,397.71c.17-1.89.33-3.79.49-5.67.48-5.72.88-11.58,1.53-17.42.16-1.48.34-3,.55-4.44,1.51-11,4.21-21.78,10.27-31.25,6.3-9.84,12.49-19.79,18.64-29.76.28-.47.57-.94.86-1.4l4.84-7.88c1.5-2.44,3-4.88,4.49-7.31q1.68-2.77,3.38-5.54a34.42,34.42,0,0,1,3.41-5.37,7.2,7.2,0,0,1,2.92-2,16.77,16.77,0,0,1,4.59-.91l.49,0c4.05-.23,8.36.48,12.21.32l.45,0h.39l5.41-.22,16.32-.65,11.06-.43,10.62-.39.45,0c7.22-.27,14.44-.56,21.66-.93,7-.28,14-.55,20.86.49a68.93,68.93,0,0,1,8.4,1.9c1.5.42,3,.89,4.47,1.38,2.3.76,4.59,1.57,6.86,2.38l27.77,9.88.51.18a20.89,20.89,0,0,1,6.29,3.16c2.33,1.91,3.73,4.65,4.93,7.41.19.4.36.8.53,1.2h0l1.8,4.2.3.71Q534.91,340,548.07,370.7l1.89,4.43q2,4.71,4,9.43c2,4.65,4,9.35,4.78,14.34.88,5.53.21,11.18-.45,16.75Q555,443.78,551.6,471.91Z"/><path class="cls-21" d="M346.69,559q-1,16.44-2,32.88c-.77,13-3.76,29-16.54,33-3.28,1-6.86,1.06-10,2.49-4,1.83-6.55,5.62-10.13,8.08a17.9,17.9,0,0,1-4.48,2.24c-2.19-7.83-3.49-16.69-2.68-24.57C302.41,598.7,330.83,572.54,346.69,559Z"/><path class="cls-21" d="M480.56,430.53c8.44,10.16,17.36,24.69,12.7,36.94-4.42,11.63-13.84,20-21.53,25.16Z"/><path class="cls-21" d="M558.77,415.62l-6.72,56.27c-3.5,29.17-7,58.94-.9,87.68.7,3.31,1.53,6.61,2.33,9.92a67.13,67.13,0,0,1-11.93-18.55c-12.76-29.32,10.22-20.5-19.28-77-21.34-40.82-8.9-123-.37-165.45q16.26,38,32.55,76c2,4.66,4,9.36,4.78,14.35C560.11,404.41,559.44,410.05,558.77,415.62Z"/><path class="cls-22" d="M558.77,415.62l-6.72,56.27c-3.5,29.17-7,58.94-.9,87.68.7,3.31,1.53,6.61,2.33,9.92,1.83,7.47,3.56,15,3.54,22.62a32.87,32.87,0,0,1-3.61,15.76,50.32,50.32,0,0,1-6.86,8.92c-4.14,4.6-8.31,9.24-13.32,12.93-6.07,4.48-13.17,7.42-20.39,9.76-8.22,2.66-17.28,4.58-25.38,1.68s-14.23-12.33-10.56-20c-2.54,3.61-8.61,3.08-11.75,0s-4-7.73-4.29-12.08c-1.61-24.92,10.9-48.72,12.86-73.62,1.12-14.2-1.19-28.62-2-42.83-.59-10.2-.38-20.3,2.41-30.14.92-3.2,2.1-6.38,3.24-9.56,2.36-6.64,4.52-13.28,3.6-20.13-.1-.76-.25-1.52-.42-2.26h0A33.07,33.07,0,0,0,473.15,417c-2.89-3.39-6.52-8.25-10.77-10-5.59-2.34-12.7.84-18.52.64a105.28,105.28,0,0,1-19.68-2.67,78.79,78.79,0,0,0-40.88,1.72c-4.38,1.39-8.81,3.28-11.76,6.74-2.36,2.77-3.54,6.29-4.66,9.72q-7,21.66-12.43,43.77c-1.66,6.78-3.21,13.9-1.4,20.65a37.55,37.55,0,0,1,1.36,9,22.81,22.81,0,0,1-1.33,8.31c-3.75,10.27-4.44,21.33-5.08,32.2q-.66,11-1.31,22-1,16.44-2,32.88c-.77,13-3.76,29-16.54,33-3.28,1-6.86,1.06-10,2.49-4,1.83-6.55,5.62-10.13,8.08a17.9,17.9,0,0,1-4.48,2.24c-6.06,2.07-13.15,1.31-19.61.11s-13.27-2.91-18.2-7.25-7.21-11.7-3.89-17.07c-1.63,2.23-5.67,1.16-7.91-.76-8.54-7.38-8.41-20.79-3.84-31s12.59-18.57,18.51-28.12c18.46-29.82,14.59-67.45,23-101.3,3.08-12.38,7.84-24.35,10.35-36.86a173.83,173.83,0,0,0,2.43-17.76c.17-1.88.33-3.78.49-5.67,1.49-18,2.26-37.34,12.35-53.1,8.25-12.9,16.3-26,24.33-39L349.49,287a34.42,34.42,0,0,1,3.41-5.37,7.1,7.1,0,0,1,2.92-2c5.31-1.95,11.76-.4,17.28-.62l22.13-.88c14.75-.61,29.5-1.05,44.24-1.8,7-.27,14-.55,20.85.5s13.29,3.35,19.73,5.65l27.77,9.89a22.51,22.51,0,0,1,6.81,3.34c2.67,2.19,4.12,5.46,5.47,8.61l1.8,4.21q16.26,38,32.55,76c2,4.66,4,9.36,4.78,14.35C560.11,404.41,559.44,410.05,558.77,415.62Z"/><path class="cls-21" d="M354.26,352.66c-15.13,4.76,3.31,24.8-16.92,29.83-12.13,3-22.11,12-31.83,16.14.17-1.89.33-3.79.49-5.67,1.5-18,2.26-37.34,12.35-53.1,8.25-12.9,16.31-26,24.34-39.05,2.63-4.28,5.24-8.57,7.87-12.85a34.42,34.42,0,0,1,3.41-5.37C358.75,308.67,364.48,349.44,354.26,352.66Z"/><path class="cls-23" d="M271.93,586.64s-1.13,18-9.92,26.48"/><path class="cls-23" d="M291.33,605.63s1.32,25.91-7.57,32.36"/><path class="cls-23" d="M312.53,599.56s6,16.68,5.51,27.7"/><path class="cls-23" d="M505.09,639.72s-14.24-18.26-7.8-32.58"/><path class="cls-23" d="M516.66,585.18S519.25,616,539,622"/><path class="cls-23" d="M480.49,599s-4.4,14.21-4,22.18"/><path d="M324.69,624.61h0a9.44,9.44,0,0,1-.53-6.83l.63-2.08a2.48,2.48,0,0,1,3.05-1.63h0a2.38,2.38,0,0,1,1.67,3l-.64,2.13A9.77,9.77,0,0,1,324.69,624.61Z"/><path d="M486.49,641.61h0a9.44,9.44,0,0,1-2-6.56l.17-2.17a2.46,2.46,0,0,1,2.64-2.22h0a2.43,2.43,0,0,1,2.27,2.58l-.18,2.21A9.59,9.59,0,0,1,486.49,641.61Z"/><path d="M520.14,633.8v0h0a9.8,9.8,0,0,1-5.16-4.63l-1-1.94a2.37,2.37,0,0,1,1.09-3.22h0a2.5,2.5,0,0,1,3.31,1.06l1,2A9.5,9.5,0,0,1,520.14,633.8Z"/><path d="M466.57,621.47h0a9.5,9.5,0,0,1-.81-6.8l.55-2.1a2.48,2.48,0,0,1,3-1.76h0a2.4,2.4,0,0,1,1.79,2.91l-.55,2.15A9.68,9.68,0,0,1,466.57,621.47Z"/><path d="M547.47,614.09v0h0a9.8,9.8,0,0,1-5.16-4.63l-1-1.94a2.37,2.37,0,0,1,1.09-3.22h0a2.5,2.5,0,0,1,3.31,1.06l1,2A9.46,9.46,0,0,1,547.47,614.09Z"/><path d="M295.21,639.24h0A9.5,9.5,0,0,1,294,632.5l.43-2.13a2.47,2.47,0,0,1,2.89-1.9h0a2.4,2.4,0,0,1,1.94,2.81l-.44,2.18A9.7,9.7,0,0,1,295.21,639.24Z"/><path d="M269.64,632.85h0a9.51,9.51,0,0,1,1.11-6.76l1.11-1.89a2.51,2.51,0,0,1,3.36-.9h0a2.37,2.37,0,0,1,.91,3.27L275,628.51A9.83,9.83,0,0,1,269.64,632.85Z"/><path d="M251.52,608.45h0a9.52,9.52,0,0,1,1.85-6.61l1.31-1.76a2.5,2.5,0,0,1,3.43-.54h0a2.37,2.37,0,0,1,.55,3.35l-1.33,1.8A10,10,0,0,1,251.52,608.45Z"/><path class="cls-24" d="M457.06,403.56a22.52,22.52,0,0,0-23.6-21.32c-.58,0-1.15.08-1.72.16a21,21,0,0,0-3.1.62,22.51,22.51,0,0,0-16.47,20.17.09.09,0,0,0,0,.05A22.49,22.49,0,1,0,457,406.11h0A21.49,21.49,0,0,0,457.06,403.56Zm-24.88-14.11a1.64,1.64,0,0,1,1.55-1.73,1.67,1.67,0,0,1,1.58.94h0a1.52,1.52,0,0,1,.15.61A1.65,1.65,0,0,1,433.9,391a1.63,1.63,0,0,1-1.7-1.44A.5.5,0,0,1,432.18,389.45Z"/><path class="cls-25" d="M456,403.62a21.39,21.39,0,0,0-22.45-20.28c-.55,0-1.1.08-1.63.15a20.47,20.47,0,0,0-3.06.62,21.36,21.36,0,0,0-15.57,19.15h0s0,0,0,.05a20.32,20.32,0,0,0,0,2.47A21.39,21.39,0,1,0,456,403.62Zm-22.28-17h.1a2.64,2.64,0,1,1-.1,0Z"/><path class="cls-26" d="M444.77,413.17l-11.52,1.05-.34-3.33,9.77-.7-.27-2.62v-.05l-.44-4.33-9.84.71-.28-2.76,11.84-.74-.84-7L424.36,395l.87,10.19v.12l1.39,16.29,18.49-1.36Z"/><path class="cls-27" d="M489.75,326.6c-.55,7.94-.53,17.35-.86,25.36-.6.4-1.64-.53-2.24-.14a112,112,0,0,1-14.34,8.09c-1.79.86-3.62,1.66-5.45,2.4-.19.09-.41.17-.6.25-1.87.75-3.73,1.44-5.6,2.08-2.35.81-4.73,1.52-7.14,2.15-1.67.44-3.37.85-5,1.2a105.34,105.34,0,0,1-32.13,1.88c-1.68-.15-3.34-.33-5-.57a111.66,111.66,0,0,1-15.76-3.41q-2.74-.81-5.52-1.77-3.39-1.19-6.76-2.59l-.16-.08c-5.18-2.2-8.88-4.78-13.9-7.8,0-.24-1.22-1.9-1.2-2.13.22-6.88.24-12.18.47-18.7a106.28,106.28,0,0,0,28.46,14c.86.27,1.73.53,2.6.78s2,.54,3,.79h0a101.32,101.32,0,0,0,11.82,2.18,94,94,0,0,0,33.85-2.07c2.7-.68,5.36-1.46,8-2.37,1.88-.63,3.77-1.34,5.61-2.12A102.59,102.59,0,0,0,489.75,326.6Z"/><path class="cls-28" d="M466.36,363c-1.88.59-3.79,1.17-5.69,1.7l0-.08-1.87-7.84-2.54-10.71c1.88-.64,3.76-1.34,5.61-2.11l2.9,12.26,1.5,6.33Z"/><path class="cls-29" d="M514.13,356.81c-.8,1.1-1.63,2.2-2.47,3.28a20.52,20.52,0,0,1-9,6.47l-.83.29c-4.6,1.69-9.24,3.13-13.92,4.36-4.9,1.29-9.85,2.33-14.8,3.12l-2.18.33c-1.12.17-2.25.33-3.36.45-.67.09-1.32.17-2,.23-4.82.53-9.63.84-14.45.9a144.86,144.86,0,0,1-16.42-.64,143.28,143.28,0,0,1-17-2.53q-3.06-.61-6.09-1.37a152.74,152.74,0,0,1-16.29-5.08c-1.81-.66-3.59-1.38-5.36-2.13-2.25-.94-4.44-1.92-6.63-3l-.16-.08c-5.25-2.53-15.3-8.51-15.3-8.51L366,334l-.22-4.38s21.15,12.52,31.25,16.86h0c.81.35,1.65.71,2.47,1s1.93.76,2.88,1.11c3.52,1.32,7.11,2.51,10.74,3.52,1.67.47,3.38.91,5.08,1.3a131,131,0,0,0,30.5,3.64c1.69,0,3.37,0,5-.08s3.32-.13,5-.26c1.9-.13,3.82-.31,5.74-.52a.83.83,0,0,0,.22,0c.59-.06,1.17-.15,1.76-.22l5.54-.84a138.15,138.15,0,0,0,14.6-3.36c.58-.17,1.16-.33,1.74-.52q4.29-1.28,8.49-2.87a15.89,15.89,0,0,1,3.94-.92,15.23,15.23,0,0,1,4.42.22c1.86.4,3.74.74,5.64,1C514.88,349.4,516.7,353.28,514.13,356.81Z"/><path class="cls-28" d="M466.52,356l1,19.09v.11c1.85-.2,3.7-.45,5.54-.71v-.18l-1.05-19.15Z"/><path class="cls-28" d="M402.56,348.35l-.12.32-6.86,17.22-.3.73c-1.8-.66-3.59-1.38-5.37-2.13l.15-.37,6.9-17.34.11-.26h0l5.45,1.82Z"/><path class="cls-30" d="M450.75,350.36l-.29-.28a10.92,10.92,0,0,0-1.78-1.34h0c-.15-.11-.28-.19-.43-.28a11.28,11.28,0,0,0-4.23-1.34h0a9.81,9.81,0,0,0-1.1-.08l-8-.17-11.52-.25a11.14,11.14,0,0,0-3.71.51,11.26,11.26,0,0,0-4.31,2.45,10.54,10.54,0,0,0-.94.95,8.72,8.72,0,0,0-1.14,1.55l-.06.11a9.65,9.65,0,0,0-.84,1.78,9.91,9.91,0,0,0-.61,3.17l-.07,1.87-.25,7.67h0l-.08,2.43a1,1,0,0,1,0,.18,10,10,0,0,0,.25,2.39h0a10.32,10.32,0,0,0,2.82,5.1,11.35,11.35,0,0,0,7.86,3.33l6.17.14,3.23.08,10.15.22c.46,0,.91,0,1.36-.07a11.45,11.45,0,0,0,7.95-4.26,10.46,10.46,0,0,0,2.31-6.2l.1-3.25v-.29l.19-5.62.09-2.83c0-.34,0-.68,0-1A10.52,10.52,0,0,0,450.75,350.36ZM448.48,368l-.06,1.94a6.24,6.24,0,0,1-6.47,5.84l-7.25-.17h0l-2.64-.05-3.29-.08-6.37-.13a6.3,6.3,0,0,1-4.35-1.85,5,5,0,0,1-.38-.42,5.81,5.81,0,0,1-1.32-3.19h0a4.58,4.58,0,0,1,0-.64l.08-2.44.24-7.31h0l.07-2.23a5.84,5.84,0,0,1,1.55-3.74h0a6.23,6.23,0,0,1,2.63-1.74h0a6.56,6.56,0,0,1,2.23-.35l1.73,0h0l9,.2,8.81.2h0a5.55,5.55,0,0,1,.82.07s0,0,0,0a6.12,6.12,0,0,1,3.54,1.79,5.65,5.65,0,0,1,1.55,2.81,3.5,3.5,0,0,1,.12.63,5.36,5.36,0,0,1,0,.8l-.14,4.41Z"/><path class="cls-28" d="M415,366.93l-4-.27a3.87,3.87,0,0,1-3.68-4.1h0a4,4,0,0,1,4.32-3.55l4,.28a3.85,3.85,0,0,1,3.67,4.09h0A4,4,0,0,1,415,366.93Z"/><path class="cls-30" d="M433.41,389.93c-4.11-.64-4.84-6-5-9.44v-.22a22.54,22.54,0,0,1,.35-4.8l3.29.08a33.78,33.78,0,0,0-.4,4.8c0,3,.48,6.06,2.47,6.37S435.49,390.27,433.41,389.93Z"/><ellipse class="cls-31" cx="478.25" cy="348.11" rx="2.74" ry="4.39" transform="translate(-63.44 110.46) rotate(-12.36)"/><ellipse class="cls-31" cx="380.75" cy="350.45" rx="4.39" ry="2.74" transform="translate(-53.13 632.47) rotate(-75.65)"/><path class="cls-32" d="M562.06,130.33A108.14,108.14,0,0,0,585.81,52c-1.69-17.13-7.13-29.2-21.24-17.12C540.28,55.7,519.11,72.29,504.06,86c-1.53,1.4,11.08,2,8.2,6.42-3,4.63,10.55,5.62,9.11,9.78-1,2.75-20.67,2.75-19.81,3.89l17.56,30.51c.52,1.16,1.73,12.51,2.42,13.57,1.91,3,2.55,2.93,5,5.8,1.68,1.93,9.47,5.73,11.18,3.82Z"/><path class="cls-20" d="M363.84,131.32s49.38-44.25,116.48.67l60.84,94.67s-7.67,65.2-10.95,65.37-17.57,21.76-29.4,26.76c0,0-40.19,30.6-55.58,30.29,0,0-34.9,5.07-40.54,2.06s-31-3.92-53-27-31.13-34.39-31.13-34.39l13.16-146Z"/><path class="cls-21" d="M601,63.23l-7.83,40-17.21,43.63s-.69,1.08-1.9,2.85c-4.59,6.75-16.63,23.58-25.61,28.66a3.3,3.3,0,0,1-.41.23,1.56,1.56,0,0,0-.31.23c-.57.59-.33,1.69.38,3.1,2.4,4.71,10.23,12.91,11.07,17.1,1.78,8.81,1.64,6.32,4.75,16.86,1.93,6.55-16.27-10.81-15-4.67s9.1,15.67,8.82,20.54c-.22,3.68-8.77-1.16-10.86.55-2.31,1.88,1.83,10.27,1.49,13.91-.66,7.06-3.29,4.51-3.14,14.14,0,.71.05,1.49.09,2.35a20.08,20.08,0,0,1-.2,4.64,7.77,7.77,0,0,1-1.19,3.05c-1.15,1.7-2.78,2.71-4.14,5.81-4.17,9.52-6.88,10.35-8.71,12.1,0,0-.22.39-3.34,4.78-1.76,2.47-4.44,6.21-8.51,11.88a2.47,2.47,0,0,1-4,0c-7.39-10.19-11.63-21.38-12-29.28-1.15-22.48-32.29-38.78-62.4-65.23-26.31-23.11-15.27-82-12.07-96.45.47-2.1.77-3.27.77-3.27l35.84,9.71.43.11.41-.69,27.93-41.37,36-37,7.85-8.07,28.75-17.94,14.08-4L596.81,25Z"/><path class="cls-21" d="M401,207.88c-27.26,29.37-56.6,48.74-55.45,71.23.4,7.86,1.81,33.31-10.35,30-1.62-.44-3.49-3.54-4.68-5.71-.39-.72-.72-1.33-.93-1.7-3.76-6.66-1.59-.69-4.11-4.45-2.19-3.26-4-2.91-12.43-14.92a39.74,39.74,0,0,1-5-10.48c-3.47-10.68-3.91-22.62-5.5-27.86-.93-3.06-.52-1.53-3.91-.58-1,.3-5.66,5.17-7.68,1.95-3.83-6.11,8.36-14.66,5.95-20.52-1.48-3.6-14,7.21-14.58,3.86-2-11.86,8.9-23.35,8.84-30.86,0-.59,2.67-4,3.82-5.83h0c.34-.58.55-1,.49-1.17l-7.89-4s0,0,0,0c-.38-.68-5-5.19-10.47-10.91-7.5-7.84-16.6-18-18.74-23.81-3.61-9.92-15.77-29.81-18.6-41.9-11.22-47.76-8.7-41.3-8.7-41.3l3.75-34.24,11.59-6.56,3.36-1.89,26.48,11.09,1.58.66,28.4,18.33,67.06,65.79-9,6.06,2.37-1,35.86-15.48.57-.24a.82.82,0,0,0,0,.11c.16.44.72,2,1.52,4.46C409.7,131.56,424,183.12,401,207.88Z"/><path class="cls-20" d="M283,148.92a108.1,108.1,0,0,1-31.57-75.49c-.06-17.22,4.13-29.77,19.39-19.18,26.27,18.22,49,32.57,65.39,44.72,1.66,1.24-10.83,3.1-7.51,7.22,3.45,4.29-9.92,6.66-8.07,10.65,1.23,2.64,20.84.63,20.1,1.86l-14.38,32.14c-.39,1.2-.45,12.61-1,13.74-1.6,3.16-6.53,6.69-8.71,9.79-1.47,2.1-2.43,3-4.33,1.32Z"/><path class="cls-33" d="M450.71,297.83h-.37c-1.53,16-6.78,37.44-23.68,39.46-.49.06-1,.1-1.46.12a17.65,17.65,0,0,1-12.91-4.5c-9.05-8-12-24.61-13-34.48-.34,0-.67-.1-1-.15.22-1,.45-2,.75-2.94.17-.53.34-1.07.52-1.59a22.83,22.83,0,0,0,4.07.27c6.92-.11,14.42-3.12,22.35-9l.18-.13a2,2,0,0,1,2.49.05l.17.14c.11.08,8.09,6.38,17.24,7.8a21,21,0,0,0,3.18.29c.46,1.19.88,2.41,1.23,3.66Q450.57,297.32,450.71,297.83Z"/><path d="M327.42,164.21a2.32,2.32,0,0,1-2.9-1.48c-4.19-12.47,7.5-34.1,12.51-42.5l-25.33-1a2.33,2.33,0,0,1-.7-4.52l17.09-6.18-6.49-1.16a2.33,2.33,0,0,1-.56-4.41c1.49-.68,3.06-1.3,4.58-1.89,1.77-.7,3.57-1.41,5.27-2.22-9.21-4.15-17.73-10.89-25.36-16.94q-2.28-1.8-4.45-3.5c-2.63-2-5.23-4.12-7.75-6.14-7-5.61-13.61-10.92-21.16-15.62-6.45-4-11.25-5.65-14.28-4.85a4.6,4.6,0,0,0-3,2.49c-2.22,4.11-1.85,9.87-1.56,14.5l0,.52c1,15.61,5,30.77,8.36,42.23a2.31,2.31,0,0,1-1.57,2.9,2.35,2.35,0,0,1-2.9-1.58c-3.44-11.7-7.53-27.18-8.54-43.26l0-.52c-.33-5.22-.74-11.72,2.12-17a9.24,9.24,0,0,1,5.89-4.79c5.84-1.54,13,2.35,17.93,5.4A226.62,226.62,0,0,1,296.25,68.6c2.5,2,5.09,4.08,7.68,6.09,1.47,1.13,3,2.32,4.49,3.53,8.58,6.79,18.29,14.49,28.49,18a2.33,2.33,0,0,1,.64,4.07,33.46,33.46,0,0,1-7.21,3.89l7.14,1.27a2.33,2.33,0,0,1,.39,4.48L323.73,115l17.47.72a2.32,2.32,0,0,1,1.85,3.6c-5.17,7.93-17.81,30.91-14.11,41.91a2.33,2.33,0,0,1-1.47,2.95Z"/><path d="M423.67,274.51c-11.38,1-31.46-16-30.33-29.86,1-11.94,14-15.17,27.39-15.9,18-1,27.25,1.63,28.89,12.28C451.54,253.46,437.86,273.21,423.67,274.51Z"/><path d="M475,273.86c-3.84,12.62-10.13,20.36-18.68,23a21.69,21.69,0,0,1-5.51,1h-.51a27.84,27.84,0,0,1-4.67-.27c-7.12-1-13.45-4.54-16.94-6.83-.54-.34-1-.67-1.4-.95-.85.61-1.7,1.18-2.54,1.71-7.23,4.61-14.18,7-20.79,7.19a28.68,28.68,0,0,1-4.73-.25c-.34,0-.67-.1-1-.15a29.65,29.65,0,0,1-2.93-.69c-17.08-4.92-24.87-24.39-25.19-25.21a2.35,2.35,0,0,1,1.32-3,2.32,2.32,0,0,1,3,1.32c.12.29,7.35,18.2,22.16,22.44a21.21,21.21,0,0,0,2.26.53l.63.1a22.83,22.83,0,0,0,4.07.27c6.92-.11,14.42-3.12,22.35-9l.18-.13a2,2,0,0,1,2.49.05l.17.14c.11.08,8.09,6.38,17.24,7.8a21,21,0,0,0,3.18.29c.5,0,1,0,1.51,0a16.82,16.82,0,0,0,4.29-.76c6.94-2.15,12.17-8.81,15.55-19.79a2.4,2.4,0,0,1,2.47-1.75A2.33,2.33,0,0,1,475,273.86Z"/><path d="M450.83,295.35c-.07,1.18-.16,2.4-.28,3.69,0,.31-.06.66-.09,1-1.54,16-6.79,37.44-23.69,39.46-.49.06-1,.1-1.46.12a17.6,17.6,0,0,1-12.91-4.5c-9-8-12-24.61-13-34.48-.11-1.13-.21-2.17-.26-3.09-.06-.62-.09-1.18-.11-1.69l.63.1a22.83,22.83,0,0,0,4.07.27c.07,1.28.21,2.87.4,4.66,1,9.26,3.75,24,11.36,30.72a13.16,13.16,0,0,0,10.75,3.27c13.69-1.64,18.16-20.57,19.56-35.11.16-1.62.27-3.19.36-4.67a22.37,22.37,0,0,0,3.18.28C449.82,295.39,450.33,295.38,450.83,295.35Z"/><path d="M480,132.34a2.41,2.41,0,0,1-1.69.86,2.27,2.27,0,0,1-1.59-.54,87.31,87.31,0,0,0-9.07-6.49c-1.32-.82-2.67-1.61-4-2.34a79.66,79.66,0,0,0-35-9.76,99.68,99.68,0,0,0-24.07,1.87c-1.9.36-3.83.79-5.77,1.26a138.16,138.16,0,0,0-31.13,12c-1.56.81-2.92,1.56-4.06,2.22-2.56,1.46-4,2.43-4,2.46A2.33,2.33,0,1,1,357,130c.2-.14,1.75-1.18,4.45-2.74l1.68-1,2.37-1.28a142.39,142.39,0,0,1,32.08-12.29c1.64-.4,3.27-.77,4.89-1.1l.61-.13c22.93-4.54,44.22-1.72,62.61,8.21l.43.24c1.21.65,2.4,1.34,3.59,2.07a89.15,89.15,0,0,1,9.95,7.06A2.34,2.34,0,0,1,480,132.34Z"/><path d="M426,322.16a1.93,1.93,0,0,1-2-1.84c-.48-9.28,1-31.45,1.05-32.39a1.94,1.94,0,0,1,3.88.26c0,.22-1.52,22.88-1.06,31.94A1.93,1.93,0,0,1,426,322.16Z"/><path d="M505.21,317.09c-19.61,18-40,29.65-60.63,34.58a97.58,97.58,0,0,1-49.71-1c-27.89-7.87-44.95-25.17-45.67-25.9a2.33,2.33,0,1,1,3.34-3.25,107.57,107.57,0,0,0,43.78,24.71c35.75,10,71.32-1,105.73-32.58a2.33,2.33,0,1,1,3.16,3.43Z"/><path class="cls-34" d="M408.22,255.15c5.57,1.32,10.81-3.64,9.44-9.2-.51-2.06-1.77-3.57-4.44-3.46-8,.31-11.5,10.72-7,12.12C406.87,254.81,407.54,255,408.22,255.15Z"/><path class="cls-34" d="M435.16,254.1c-5.57,1.32-10.81-3.64-9.44-9.2.51-2.06,1.77-3.57,4.44-3.47,8,.32,11.5,10.72,7,12.13C436.51,253.76,435.84,253.94,435.16,254.1Z"/><path class="cls-20" d="M556.6,137.2a108.13,108.13,0,0,0,23.74-78.31c-1.69-17.13-7.13-29.2-21.24-17.12-24.28,20.8-45.46,37.39-60.51,51.13-1.53,1.4,11.09,2,8.21,6.42-3,4.63,10.54,5.62,9.1,9.78-.95,2.75-20.66,2.75-19.81,3.89l17.57,30.51c.52,1.16,1.73,12.51,2.42,13.57,1.91,3,7.16,6,9.65,8.86,1.68,1.93,2.73,2.78,4.44.87Z"/><path d="M514.26,156.9a2.32,2.32,0,0,0,2.73-1.77c2.9-12.83-10.92-33.16-16.75-41l25.09-3.61a2.33,2.33,0,0,0,.23-4.56l-17.63-4.42,6.35-1.8a2.33,2.33,0,0,0,.1-4.45c-1.55-.53-3.17-1-4.74-1.42-1.84-.51-3.7-1-5.47-1.67,8.74-5.06,16.53-12.64,23.51-19.43,1.38-1.34,2.74-2.66,4.07-3.93,2.4-2.29,4.78-4.63,7.08-6.89,6.4-6.3,12.44-12.25,19.47-17.7,6-4.65,10.62-6.76,13.71-6.27a4.6,4.6,0,0,1,3.23,2.18c2.63,3.86,2.85,9.63,3,14.26l0,.53c.61,15.63-1.84,31.11-4,42.86a2.32,2.32,0,1,0,4.57.85c2.25-12,4.74-27.8,4.11-43.9l0-.52c-.2-5.23-.45-11.73-3.83-16.7a9.23,9.23,0,0,0-6.35-4.16c-6-.94-12.72,3.65-17.29,7.19a225.17,225.17,0,0,0-19.89,18.06c-2.28,2.25-4.65,4.57-7,6.84-1.35,1.28-2.71,2.61-4.11,4-7.84,7.63-16.73,16.27-26.52,20.78a2.32,2.32,0,0,0-.22,4.11,33.43,33.43,0,0,0,7.57,3.14l-7,2a2.31,2.31,0,0,0-1.69,2.27,2.33,2.33,0,0,0,1.76,2.23l14.58,3.65-17.3,2.49a2.32,2.32,0,0,0-1.84,1.45,2.34,2.34,0,0,0,.36,2.32c6,7.36,20.86,28.94,18.3,40.26a2.32,2.32,0,0,0,1.76,2.78Z"/><path class="cls-35" d="M402.18,194.73c.33,12.4-12.31,24.17-25.16,18.8-11.19-4.67-15.57-19.85-8.23-29.57,8.24-10.92,25.89-8.42,31.68,3.7A17.56,17.56,0,0,1,402.18,194.73Z"/><path class="cls-35" d="M474.6,192.15c.69,14.61-15.27,24.49-28.08,17.15-10.9-6.24-12.57-21.93-3.18-30.33A19.42,19.42,0,0,1,465,176.42,18.68,18.68,0,0,1,474.6,192.15Z"/><path d="M393,202.76c-6,5.73-17,7.07-19.93-4.55-2.88-11.3,11.32-19.5,19.9-11.76C399.05,192,397.35,198.56,393,202.76Z"/><circle class="cls-36" cx="387.3" cy="191.08" r="3.49"/><path d="M462.46,200.89a11.07,11.07,0,0,1-9.5,4c-19-1.58-11.33-32,6-22.79A12.37,12.37,0,0,1,462.46,200.89Z"/><circle class="cls-36" cx="447.9" cy="190.33" r="3.49"/><path class="cls-35" d="M268.48,157.05c6.22,7.46,8.68,13.67,8.6,18.83-7.5-7.84-16.6-18-18.74-23.81-3.61-9.92-15.77-29.81-18.6-41.9-11.22-47.76-8.7-41.3-8.7-41.3l3.75-34.24,11.59-6.56,3.36-1.89,26.48,11.09,2.59,3.25s-24.52-11.28-29.49-1.14S236.89,119.11,268.48,157.05Z"/><path d="M377.9,122.28q-2,1.77-3.39,3.16c-1-1.08-2-2.25-3.14-3.46-11-11.89-28.1-29.5-46.55-46.11-34.77-31.33-61-47.47-75.93-46.66a12.29,12.29,0,0,0-10.44,5.91c-7.82,12.39-7.3,35.45,1.55,68.56,9.62,36,29.25,65.44,55.78,84.79,1.29.93,2.59,1.86,3.91,2.74-1,1.21-1.92,2.49-2.84,3.82q-2-1.34-3.91-2.74a139.85,139.85,0,0,1-25.12-23.61C253.12,151,241.93,129,235.5,104.89c-9.21-34.42-9.53-58.73-1-72.26a16.82,16.82,0,0,1,14.12-8.07c32.37-1.75,98.84,64.68,126.09,94.25l1.59,1.75Z"/><path class="cls-35" d="M308,271.84c-3.47-10.68-3.91-22.62-5.5-27.86-.93-3.06-.52-1.53-3.91-.58-1,.3-5.66,5.17-7.68,1.95-3.83-6.11,8.36-14.66,5.95-20.52-1.48-3.6-14,7.21-14.58,3.86-2-11.86,8.9-23.35,8.84-30.86,0-.59,2.67-4,3.82-5.83h0c.34-.58.55-1,.49-1.17l4.27-2.41s12-1.67-.17-3.29l8.55-4.83s-10.77,25.82-10.61,29.11S308.58,211,308.58,211s-13,24.83-6.5,23.4,7.73.7,7.73.7-1.17,41.81,6.94,50.18C318.9,287.52,313.89,273.21,308,271.84Z"/><path d="M332,302.64a2.31,2.31,0,0,1-1.52.75h-.09a2.35,2.35,0,0,1-1.69-.6c-25.07-22.79-28.23-48.18-28.52-57.15l-6.95,2.14a4.18,4.18,0,0,1-4.22-1,3.77,3.77,0,0,1-.91-3.79l5.11-16.05-4.35,3.22a5.31,5.31,0,0,1-5.67.4,4.61,4.61,0,0,1-2.47-4.34A64.91,64.91,0,0,1,290,196.94c.26-.44.52-.87.8-1.31.55-.9,1.13-1.79,1.72-2.65l.47-.69q1.4-2,2.84-3.82A81.22,81.22,0,0,1,314,171.42a2.32,2.32,0,1,1,2.5,3.92,78.25,78.25,0,0,0-14.89,13.56c-.63.74-1.28,1.51-1.9,2.31-1,1.21-1.92,2.49-2.84,3.82-.2.26-.38.53-.57.81-.85,1.25-1.69,2.57-2.49,3.94a60.24,60.24,0,0,0-8.41,26.66.66.66,0,0,0,.73,0L296,219.1a2.44,2.44,0,0,1,3.79,2.7L293,243l12.12-3.73-.24,3.39c0,.29-1.71,30.63,27,56.69A2.35,2.35,0,0,1,332,302.64Z"/><path class="cls-35" d="M548.87,211.24c1.23,6,9.1,15.67,8.82,20.54-.22,3.68-8.77-1.16-10.86.55-2.31,1.88,1.83,10.27,1.49,13.91-.66,7.06-3.29,4.51-3.14,14.14-4.19,2.34-4.27,10.41-3,6.87,3.82-11.18-8.75-42.39-8.86-44.58s11-.56,11-.56l-6.59-21.64S550,205.34,552,203s-14.37-29.44-14.7-30l10.34,5.81c-.57.59-.33,1.69.38,3.1,2.4,4.71,10.23,12.91,11.07,17.1,1.78,8.81,1.64,6.32,4.75,16.86C565.81,222.46,547.61,205.1,548.87,211.24Z"/><path d="M565.31,216.72A65.08,65.08,0,0,0,550.61,182c-.18-.24-.37-.47-.56-.7-.53-.63-1-1.25-1.59-1.85-.22-.25-.44-.5-.67-.74a2.81,2.81,0,0,0-.29-.31c-.18-.21-.37-.41-.56-.62A85.55,85.55,0,0,0,531.74,165a57.55,57.55,0,0,0-5.58-3.32,2.34,2.34,0,0,0-3.13,1,2.3,2.3,0,0,0-.18.5,2.34,2.34,0,0,0,1.21,2.62,77.23,77.23,0,0,1,16,11.8h0c1.08,1,2.17,2.12,3.25,3.27s2.08,2.27,3.1,3.5a61.29,61.29,0,0,1,13.81,29.62l-11.82-7a2.27,2.27,0,0,0-3.24,2.86l9.08,20.89-13-2.61,1.29,3.82c.07.2,3.88,11.87.25,27.67h0a65.63,65.63,0,0,1-9.37,21.61h0a76.49,76.49,0,0,1-7,9.06,2.3,2.3,0,0,0,.19,3.28,2.06,2.06,0,0,0,.51.34.85.85,0,0,0,.26.11,1.66,1.66,0,0,0,.42.12,2.42,2.42,0,0,0,.47,0,2.35,2.35,0,0,0,1.62-.77,77.43,77.43,0,0,0,14.1-22c.43-1,.83-2,1.18-3.05a63.32,63.32,0,0,0,2.79-34.19l7.35,1.47a3.74,3.74,0,0,0,3.67-1.3,3.4,3.4,0,0,0,.49-3.51l-8.95-18.67,10,7.38a3.23,3.23,0,0,0,3.39-.06A3.05,3.05,0,0,0,565.31,216.72Z"/><path class="cls-35" d="M601,63.23l-7.83,40-17.21,43.63s-.69,1.08-1.9,2.85c4.81-11.24,8.79-23.35,12.85-34.53,4.15-11.44,5.43-22.09,5.88-34.17a266.09,266.09,0,0,0-.67-33.53c-.65-7.31-1-16.74-5.18-23.1-7.37-11.28-47.6,11.69-56.82,17.16l7.85-8.07,28.75-17.94,14.08-4L596.81,25Z"/><path d="M459.79,120.31c1.42,1,2.66,2,3.69,2.8.85-1.17,1.8-2.44,2.77-3.77,9.69-12.93,25-32.19,41.63-50.59,31.41-34.7,55.9-53.42,70.8-54.12a12.24,12.24,0,0,1,11,4.82C598.71,31,600.52,54,595.08,87.81c-5.91,36.79-22.46,68.07-46.88,90-1.19,1.06-2.39,2.11-3.61,3.13,1.08,1.1,2.16,2.27,3.21,3.51q1.83-1.53,3.61-3.12a139.63,139.63,0,0,0,22.59-26c12.84-19.06,21.73-42.14,25.68-66.75,5.67-35.17,3.53-59.39-6.35-72A16.84,16.84,0,0,0,578.46,10c-32.39,1.54-91.77,74.37-115.88,106.55-.47.65-.95,1.29-1.41,1.91S460.24,119.71,459.79,120.31Z"/></g></g></svg>