<svg width="103" height="58" viewBox="0 0 103 58" fill="none" xmlns="http://www.w3.org/2000/svg">
<g clip-path="url(#clip0_1409_10244)">
<path d="M84.4776 17.7828C83.4753 20.1125 82.4808 22.4421 81.4552 24.8338C86.2412 25.9987 90.8408 28.0177 94.0884 32.1877C97.2428 36.2335 98.8433 40.8073 97.4448 45.9403C97.1263 47.0973 96.0929 48.3476 95.0363 48.9766C91.4468 51.1276 87.8651 53.4728 83.9726 54.8705C80.453 56.1363 76.5216 56.3071 72.7612 56.8585C69.599 57.3166 66.4291 57.7981 63.2436 57.9534C60.532 58.0854 57.7816 57.9534 55.0856 57.604C44.3016 56.2295 34.4732 51.9352 24.9323 47.0973C20.3328 44.7599 15.9663 41.7858 11.9806 38.5088C9.54094 36.5053 7.81612 33.5078 6.15345 30.7356C4.03238 27.1945 2.16771 23.4904 0.435115 19.7475C-0.629304 17.4412 0.334112 15.7638 2.76596 15.7405C8.46099 15.6862 14.1716 15.7871 19.8588 16.0589C25.6238 16.3307 31.3732 16.9364 37.1381 17.2936C43.6878 17.6974 50.2452 17.977 56.9425 18.3187C55.645 14.1719 55.8781 10.1028 58.1468 6.32106C59.8872 3.41679 62.4899 1.40554 65.7454 0.528051C72.5048 -1.29683 80.655 1.82488 83.2111 8.84483C82.2011 9.79221 81.1522 10.7008 80.1888 11.6947C78.3785 13.5662 78.6038 15.1659 80.8725 16.3385C82.0224 16.9131 83.2733 17.3014 84.4776 17.7828ZM74.6026 11.6404C74.2296 10.2737 74.0665 8.7827 73.3828 7.59459C73.0176 6.95783 71.6346 6.40648 70.8888 6.58509C69.1717 6.99665 67.8897 8.47209 68.115 10.1649C68.2937 11.5317 69.2416 13.1546 70.3604 13.97C72.9399 15.8492 74.6103 14.8009 74.6026 11.6404Z" fill="#FABE17"/>
<path d="M84.4776 17.7828C83.2733 17.3014 82.0224 16.9131 80.8803 16.3229C78.6116 15.1504 78.3941 13.5507 80.1966 11.6792C81.16 10.6852 82.2089 9.77668 83.2189 8.82929C88.3856 7.62565 93.4979 6.41425 98.8822 7.96733C102.511 9.01566 103.132 9.20203 102.984 12.0209C102.938 12.844 102.239 14.0632 101.539 14.335C98.8744 15.3523 96.1318 16.2686 93.3426 16.8122C90.429 17.379 87.43 17.48 84.4776 17.7828Z" fill="#EF4424"/>
<path d="M74.6025 11.6404C74.6103 14.8009 72.9399 15.8492 70.3604 13.97C69.2416 13.1546 68.2937 11.5317 68.115 10.1649C67.8897 8.47209 69.1717 6.99665 70.8887 6.58509C71.6268 6.40648 73.0176 6.95783 73.3827 7.59459C74.0664 8.7827 74.2218 10.2737 74.6025 11.6404Z" fill="#030301"/>
</g>
<defs>
<clipPath id="clip0_1409_10244">
<rect width="103" height="58" fill="white"/>
</clipPath>
</defs>
</svg>
