<svg width="342" height="510" viewBox="0 0 342 510" fill="none" xmlns="http://www.w3.org/2000/svg" xmlns:xlink="http://www.w3.org/1999/xlink">
<path d="M100.109 392.615C72.108 416.818 43.9425 402.239 43.9425 402.239L56.6389 398.203C56.8699 398.161 56.8638 397.789 56.6389 397.71C43.7418 393.565 27.7801 386.638 16.8106 377.537C26.5397 376.174 37.7949 378.244 47.8219 378.834C37.5639 376.691 27.3058 372.503 18.7808 365.199C10.2557 357.894 3.60956 347.229 1.98603 335.749C1.82793 334.629 1.71848 333.546 1.66376 332.48C0.411143 312.301 15.0412 301.387 32.8696 307.121C38.4821 308.917 43.8148 311.869 49.0806 314.907C51.975 316.569 54.7843 318.474 57.5935 320.306C59.4785 321.523 61.4365 322.601 63.2728 323.958C64.0694 324.537 64.866 325.115 65.0119 325.547C65.1578 325.979 64.8295 326.156 63.7958 326.265C59.6245 326.673 55.9943 326.996 52.4128 329.437C49.2227 331.643 46.8298 334.822 45.5903 338.5C44.1127 342.859 44.7694 346.889 46.7152 351.284C50.3636 359.507 54.5714 366.757 61.4061 371.828C70.4237 378.524 81.9222 377.306 91.8093 376.91C93.7186 376.843 93.8707 376.503 94.7341 378.45C95.3969 379.936 95.9016 381.494 96.4671 383.04C97.4035 385.512 98.3278 387.983 99.2642 390.448C99.556 391.16 99.8358 391.885 100.109 392.615Z" fill="#D38A3C"/>
<path d="M99.7931 392.451C99.77 392.544 99.7395 392.636 99.7019 392.725C99.3569 393.379 98.8423 393.928 98.2121 394.314C95.8103 396.073 93.378 397.783 90.8302 399.287C83.805 403.455 75.8931 405.897 67.743 406.414C59.5928 406.93 51.4365 405.506 43.9424 402.257C48.3123 400.93 52.6478 399.496 56.9489 397.954C42.9634 392.932 29.0631 387.38 16.847 377.483C27.0017 376.63 37.3631 377.744 47.6577 378.864C36.9618 376.545 26.2538 372.004 17.5646 364.079C8.87532 356.153 2.40551 344.533 1.75488 332.523C4.7952 340.71 8.85099 348.581 14.1351 355.362C19.4192 362.143 25.9741 367.822 33.3073 371.189C39.084 373.861 45.274 375.109 50.8561 378.335C51.4641 378.694 52.1756 379.205 52.2485 379.96C52.3823 381.275 50.3453 382.109 49.4514 382.395L45.3288 383.57C44.441 383.819 43.3526 384.434 43.5836 385.469C43.7009 385.864 43.9238 386.22 44.2282 386.498C48.7643 391.367 55.7388 393.723 61.6188 395.701C59.4663 398.855 52.0175 402.397 52.0357 402.671C52.0844 403.347 52.8992 403.59 53.5012 403.621C60.5851 403.937 68.2528 403.73 74.9902 401.831C77.2602 401.138 79.4706 400.263 81.5998 399.214C87.5629 396.458 93.4632 393.563 99.3006 390.527C99.5543 390.77 99.735 391.078 99.8221 391.419C99.9092 391.759 99.8991 392.116 99.7931 392.451Z" fill="#BC6F2F"/>
<path d="M66.5803 409.16C65.2486 409.16 63.9656 409.105 62.7495 409.014C56.0373 408.513 49.4744 406.78 43.3887 403.901L40.3484 402.336L51.0443 398.258C33.2462 394.094 16.4697 379.388 15.6914 378.73L12.5842 375.985L33.8664 376.417C15.7948 368.735 5.62186 352.744 2.2471 339.894C-1.23711 326.716 1.28636 314.767 8.99661 307.937C28.0229 291.088 64.2089 322.735 65.7412 324.092L67.9789 326.064L59.7396 327.891C52.1327 331.245 48.2715 333.509 46.9337 337.204C45.3771 341.52 47.2135 348.258 53.288 360.445C58.0552 370.02 65.9054 375.468 76.6195 376.649C81.66 377.171 86.7531 376.783 91.6569 375.504L92.9217 375.121L101.197 393.06L100.522 393.808C89.3888 406.153 76.5039 409.16 66.5803 409.16ZM48.1438 402.623C52.9426 404.441 57.9748 405.568 63.09 405.97C76.6498 406.993 88.2578 402.458 97.622 392.512L91.2799 378.767C86.4117 379.884 81.3942 380.198 76.4249 379.698C68.2707 378.822 57.1675 375.011 50.5943 361.82C44.0211 348.63 42.2091 341.441 44.1062 336.181C46.0034 330.922 51.3301 328.268 58.6998 325.054L58.9795 324.963L61.4118 324.415C53.2029 317.804 25.536 297.406 11.0397 310.214C4.21115 316.27 2.03428 327.069 5.21445 339.115C8.71082 352.331 19.2668 363.939 30.589 371.073C33.2706 372.769 36.0874 374.241 39.0107 375.474C42.051 376.758 45.3224 377.355 48.3931 378.517C43.2063 380.07 37.3628 379.126 32.024 379.169L24.484 379.187C23.8759 379.187 21.5896 379.583 21.1032 379.187C27.6824 384.294 42.7928 394.819 56.979 396.152L63.4792 396.761L48.1438 402.623Z" fill="black"/>
<path d="M328.254 126.936C328.254 126.936 319.966 121.074 310.055 135.652C310.87 131.537 309.702 126.771 302.904 122.924C302.904 122.924 293.564 118.919 294.896 150.316C294.896 150.316 298.897 163.002 292.226 163.002C285.556 163.002 211.512 207.749 211.512 207.749L182.155 211.084L161.48 201.734L154.792 191.715L131.995 197.802C131.995 197.802 93.0793 208.083 82.4139 214.097C71.7484 220.112 31.0446 247.485 31.0446 247.485C31.0446 247.485 16.372 256.166 19.0414 270.86C21.7108 285.555 36.3834 294.898 44.3916 298.252C52.3998 301.606 55.732 302.927 55.732 302.927C55.732 302.927 53.0626 312.253 53.7375 315.576C54.4125 318.9 58.4075 328.268 68.4162 332.943C78.4249 337.618 86.4271 317.585 86.4271 317.585C86.647 317.322 86.8501 317.046 87.0351 316.757L86.117 336.614L79.7566 403.073L85.4298 463.494L83.9219 474.055L79.0573 479.534L60.2073 480.142L54.1267 485.012L53.5186 491.099L57.167 499.013L63.2477 502.665L76.7771 504.278C76.7771 504.278 86.2933 507.078 94.0887 506.877C98.3451 506.768 102.054 505.763 103.465 502.945C103.465 502.945 113.991 498.367 115.73 477.281C115.73 477.281 124.796 438.884 138.149 438.525C147.945 438.263 161.693 434.264 172.535 444.527C174.591 446.515 176.376 448.766 177.843 451.222C179.91 454.694 181.588 458.383 182.848 462.222C185.335 469.526 187.183 475.924 188.862 481.421C190.789 487.751 192.51 492.907 194.638 496.925C195.015 497.619 195.398 498.276 195.8 498.897C199.728 504.984 205.31 507.942 215.866 507.942L234.716 506.354L248.701 498.44L251.742 490.527L247.485 483.223L225.595 481.396L219.174 473.215L224.987 360.871L214.169 314.608L203.498 257.846V253.171L238.857 231.799L318.604 183.217C318.604 183.217 334.256 183.698 339.595 162.996C344.933 142.293 328.254 126.936 328.254 126.936ZM64.0807 274.518L72.0828 271.852L92.757 257.158L91.4254 269.18L88.0871 293.218L87.7831 299.847C85.0893 292.926 78.4675 284.288 64.0807 274.518Z" fill="white"/>
<path d="M209.554 506.342C206.867 506.95 203.705 504.832 201.279 503.907C199.454 503.201 197.247 500.662 195.806 498.885L195.259 498.215C195.017 497.8 194.814 497.364 194.651 496.913C193.587 494.338 191.404 488.391 188.874 481.409C185.098 471 180.562 458.32 177.856 451.21C176.895 448.696 176.166 446.882 175.776 446.103C175.32 445.196 174.153 444.709 172.548 444.527C161.706 434.233 147.958 438.263 138.162 438.525C124.784 438.884 115.742 477.282 115.742 477.282C114.003 498.367 103.478 502.945 103.478 502.945C102.067 505.763 98.3395 506.768 94.1013 506.877L90.6475 505.757C90.6475 505.757 108.281 506.975 112.538 467.408C116.794 427.842 150.846 427.842 150.846 427.842C159.687 427.842 168.553 431.427 175.272 437.082C182.848 443.455 186.515 452.781 189.598 461.918C193.812 474.378 195.162 489.632 203.462 500.267C205.109 502.397 208.247 504.205 209.554 506.342Z" fill="#C9C9C9"/>
<path d="M284.936 204.742C269.655 214.055 251.754 225.273 235.221 235.786C235.829 234.325 236.467 232.828 237.173 231.324C240.432 224.397 244.889 217.427 250.55 214.104C265.064 205.551 274.167 203.755 280.728 204.157C282.144 204.239 283.551 204.435 284.936 204.742Z" fill="#D38A3C"/>
<path d="M300.546 159.928C295.541 164.938 241.904 212.277 218.725 218.632C211.081 220.732 201.316 219.363 191.654 216.593C178.775 212.898 166.115 206.708 158.873 202.885L158.757 202.824C158.49 202.719 158.269 202.523 158.133 202.27C157.996 202.018 157.953 201.725 158.012 201.444C158.07 201.163 158.225 200.911 158.451 200.734C158.676 200.557 158.957 200.465 159.244 200.474C166.218 199.957 171.794 206.239 178.501 208.071C181.006 208.759 186.406 206.062 188.838 206.062C188.988 206.058 189.137 206.038 189.282 206.002C191.258 205.594 197.217 203.116 197.758 202.142L199.285 199.367L204.696 189.524C204.958 189.046 205.36 188.66 205.847 188.417C206.334 188.175 206.884 188.087 207.423 188.166C207.961 188.244 208.463 188.486 208.86 188.858C209.257 189.23 209.532 189.715 209.646 190.248L209.895 191.368L217.612 180.703C217.819 180.424 218.111 180.218 218.444 180.117C218.777 180.016 219.134 180.025 219.462 180.142C219.789 180.26 220.071 180.479 220.264 180.769C220.458 181.058 220.553 181.402 220.537 181.75L220.713 191.429C232.376 185.89 244.586 179.924 255.92 174.135C271.28 166.295 285.034 158.759 293.668 153.007C293.668 151.789 294.368 155.989 294.556 151.978C295.45 153.055 295.061 151.515 295.888 152.642C296.423 153.36 296.745 151.266 297.226 151.978C297.706 152.69 298.965 151.485 299.39 152.222C301.251 155.484 302.066 158.4 300.546 159.928Z" fill="#D38A3C"/>
<path d="M151.655 438.019C151.643 438.25 151.573 438.474 151.452 438.671C151.331 438.868 151.162 439.031 150.961 439.145H150.244C149.935 439.129 149.639 439.012 149.402 438.813C149.165 438.613 149 438.342 148.931 438.039C148.862 437.737 148.894 437.421 149.021 437.138C149.148 436.855 149.364 436.622 149.636 436.473C149.909 436.473 150.171 436.504 150.414 436.528C150.772 436.571 151.1 436.749 151.331 437.027C151.561 437.304 151.677 437.659 151.655 438.019Z" fill="black"/>
<path d="M151.655 438.019C151.643 438.25 151.573 438.474 151.452 438.671C151.331 438.868 151.162 439.031 150.961 439.145H150.244C149.935 439.129 149.639 439.012 149.402 438.813C149.165 438.613 149 438.342 148.931 438.039C148.862 437.737 148.894 437.421 149.021 437.138C149.148 436.855 149.364 436.622 149.636 436.473C149.909 436.473 150.171 436.504 150.414 436.528C150.772 436.571 151.1 436.749 151.331 437.027C151.561 437.304 151.677 437.659 151.655 438.019Z" fill="black"/>
<path d="M199.473 349.92C199.418 350.857 199.375 351.795 199.321 352.726C199.073 358.564 198.444 364.38 197.436 370.135C197.248 371.131 197.002 372.115 196.7 373.082C196.288 374.461 195.784 375.812 195.192 377.124C193.553 380.619 191.726 384.022 189.719 387.319C187.183 391.795 184.307 396.069 181.115 400.102C175.466 407.145 167.349 415.004 157.583 414.334C135.608 412.849 109.169 393.005 103.532 333.923C103.532 333.923 107.308 288.075 134.696 275.791C162.083 263.507 179.425 284.556 182.319 287.734C187.597 293.541 191.799 299.05 194.578 306.604C197.357 314.158 198.767 322.278 199.375 330.344C199.418 330.849 199.448 331.354 199.485 331.859C199.835 337.875 199.831 343.905 199.473 349.92Z" fill="white"/>
<path d="M220.439 337.94L217.107 333.746L213.677 329.431C212.106 327.445 211.131 325.053 210.868 322.534C210.175 316.021 207.979 301.552 201.169 283.534C196.584 271.414 199.546 265.083 203.753 261.772C204.513 261.179 205.328 260.659 206.186 260.22C207.742 264.231 209.129 267.975 210.375 271.883C214.163 283.661 216.754 296.913 219.046 323.149C219.241 325.393 219.444 327.732 219.654 330.167C219.831 332.62 220.08 335.244 220.439 337.94Z" fill="#D38A3C"/>
<path d="M100.656 205.642C100.218 206.971 99.5426 208.209 98.6615 209.295C96.6731 211.839 93.6146 214.225 90.3128 216.459C79.5865 223.703 71.7121 230.764 62.9985 240.364C57.6232 246.292 50.9953 251.813 43.054 252.739C38.3841 253.287 34.1276 252.008 30.2847 249.811C29.411 249.319 28.5646 248.781 27.749 248.198L27.8281 248.131L28.278 247.772C37.4072 240.43 46.9141 233.573 56.7598 227.227L48.5631 221.688C48.2475 221.507 47.9988 221.229 47.8543 220.895C47.7098 220.561 47.6772 220.189 47.7614 219.835C47.8455 219.48 48.042 219.163 48.3213 218.93C48.6006 218.697 48.9478 218.56 49.311 218.541L62.9559 217.829L62.1107 216.964C61.7128 216.563 61.4464 216.05 61.347 215.494C61.2476 214.937 61.3199 214.364 61.5543 213.849C61.7888 213.335 62.1742 212.904 62.6592 212.615C63.1443 212.325 63.7059 212.191 64.2694 212.229L80.3709 213.854C83.4112 212.405 86.4516 211.042 89.4493 209.8C93.195 208.254 96.9711 206.86 100.656 205.642Z" fill="#D38A3C"/>
<path d="M95.0984 443.808C92.2545 446.444 89.1092 448.735 85.7281 450.632C84.8343 451.131 83.9039 451.612 83.0101 452.056C81.1859 430.051 77.4949 404.491 76.5585 399.299C76.522 399.08 76.4795 398.861 76.4491 398.642C75.7376 394.167 76.2788 390.856 77.1727 388.494L73.3905 390.387C73.1307 390.518 72.8367 390.565 72.5492 390.521C72.2616 390.478 71.9947 390.346 71.7852 390.144C71.5712 389.947 71.4248 389.687 71.3669 389.402C71.309 389.116 71.3426 388.82 71.4629 388.555L75.9505 378.17L64.9384 384.215C64.6591 384.37 64.3357 384.425 64.0209 384.372C63.7062 384.319 63.4187 384.161 63.2054 383.923C62.9921 383.683 62.8654 383.379 62.8455 383.059C62.8257 382.739 62.9139 382.421 63.096 382.158L73.5912 367.11C77.733 361.131 80.7973 354.473 82.6452 347.436C83.2047 345.379 83.6648 343.283 84.0256 341.148C84.9139 341.701 85.765 342.311 86.5733 342.975C90.7447 346.371 95.7673 352.714 95.7673 363.671C95.7673 382.371 87.7591 381.707 83.0891 403.073C78.4192 424.439 106.439 433.125 95.0984 443.808Z" fill="#D38A3C"/>
<path d="M241.484 385.341C241.27 385.579 240.981 385.738 240.665 385.791C240.35 385.844 240.025 385.789 239.745 385.633L228.739 379.589L233.233 389.973C233.347 390.241 233.378 390.536 233.32 390.821C233.262 391.106 233.12 391.367 232.91 391.568C232.696 391.766 232.427 391.895 232.138 391.937C231.85 391.98 231.555 391.934 231.293 391.806L227.517 389.913C227.746 390.507 227.933 391.118 228.076 391.739C228.722 394.689 228.74 397.741 228.131 400.699C227.219 405.727 224.932 426.399 222.92 445.373C222.719 447.241 222.531 449.086 222.312 450.906C221.46 449.901 220.621 448.806 219.8 447.631C213.112 438.105 207.408 423.532 203.146 410.402C197.138 391.903 216.085 376.923 228.301 369.472C229.152 368.948 229.973 368.461 230.733 368.023C230.831 368.188 230.946 368.352 231.056 368.51L241.551 383.564C241.742 383.824 241.839 384.141 241.827 384.464C241.815 384.787 241.694 385.096 241.484 385.341Z" fill="#D38A3C"/>
<path d="M88.0385 317.049C87.269 319.52 86.2778 321.916 85.0772 324.208C83.0159 328.091 80.4073 331.318 77.3974 333.132C76.1817 333.892 74.8247 334.397 73.4085 334.617C72.9615 334.683 72.5103 334.715 72.0586 334.714C71.3462 334.715 70.6361 334.633 69.9425 334.471C68.9519 334.242 67.9996 333.871 67.115 333.369C67.2123 332.852 65.8989 332.273 64.6523 331.689L64.5976 331.652L63.1687 330.587L62.4815 330.088C62.1775 329.869 65.157 326.752 66.9326 324.944C67.5771 324.281 68.0636 323.794 68.1791 323.684C71.1525 320.641 73.4206 318.437 74.8678 314.395C77.6892 306.427 81.7268 294.764 76.917 286.796C76.7086 286.45 76.5198 286.092 76.3515 285.725C75.7074 284.416 75.5108 282.932 75.7921 281.5C80.012 285.061 83.9462 288.957 86.5913 292.847C87.5848 294.271 88.415 295.802 89.0661 297.412C89.4171 298.3 89.6759 299.222 89.8384 300.164C90.5924 304.93 89.887 311.181 88.0385 317.049Z" fill="#D38A3C"/>
<path d="M89.4498 209.824C87.9905 214.615 85.4974 220.093 81.7578 220.093C75.0691 220.093 67.5534 221.262 67.6446 224.683C67.7358 228.104 65.7475 234.788 55.0699 238.793C48.9406 241.094 37.7461 246.481 27.8164 248.112L28.2664 247.753C37.3955 240.412 46.9024 233.555 56.7481 227.209L48.5636 221.688C48.2479 221.507 47.9993 221.229 47.8548 220.895C47.7103 220.561 47.6777 220.189 47.7619 219.835C47.846 219.48 48.0425 219.163 48.3218 218.93C48.6011 218.697 48.9483 218.56 49.3115 218.541L62.9564 217.829L62.1112 216.964C61.7133 216.563 61.4469 216.05 61.3475 215.494C61.2481 214.937 61.3204 214.364 61.5548 213.849C61.7893 213.335 62.1747 212.904 62.6597 212.615C63.1448 212.325 63.7064 212.191 64.2699 212.229L80.3714 213.854C83.3935 212.43 86.4277 211.066 89.4498 209.824Z" fill="#BC6F2F"/>
<path d="M255.925 174.135C248.896 185.701 238.899 199.847 231.189 201.394C217.842 204.066 213.841 196.719 213.841 196.719L206.502 206.069L204.501 201.394L199.29 199.367L204.702 189.524C204.964 189.046 205.365 188.66 205.852 188.417C206.34 188.175 206.889 188.087 207.428 188.166C207.966 188.244 208.468 188.486 208.865 188.858C209.263 189.23 209.537 189.715 209.651 190.248L209.901 191.368L217.617 180.703C217.825 180.424 218.116 180.218 218.45 180.117C218.783 180.016 219.139 180.025 219.467 180.142C219.795 180.26 220.076 180.479 220.269 180.769C220.463 181.058 220.558 181.402 220.542 181.75L220.718 191.429C232.381 185.92 244.603 179.924 255.925 174.135Z" fill="#BC6F2F"/>
<path d="M219.064 323.149C216.328 323.313 214.4 322.254 214.662 318.809C215.477 308.004 209.189 300.9 207.177 288.878C206.271 283.4 208.119 277.124 210.393 271.883C214.2 283.661 216.766 296.913 219.064 323.149Z" fill="#BC6F2F"/>
<path d="M85.0897 384.361C84.0742 387.435 80.0975 393.492 76.4491 398.629C75.7376 394.155 76.2788 390.844 77.1727 388.482L73.3905 390.375C73.1307 390.506 72.8367 390.553 72.5492 390.509C72.2616 390.466 71.9947 390.334 71.7852 390.132C71.5712 389.935 71.4248 389.675 71.3669 389.39C71.309 389.104 71.3426 388.808 71.4629 388.543L75.9505 378.158L64.9384 384.203C64.6591 384.358 64.3357 384.413 64.0209 384.36C63.7062 384.307 63.4187 384.148 63.2054 383.911C62.9921 383.671 62.8654 383.367 62.8455 383.047C62.8257 382.727 62.9139 382.409 63.096 382.145L73.5912 367.098C77.733 361.119 80.7973 354.461 82.6452 347.424C83.4661 352.726 84.3722 360.664 83.0891 363.659C81.1494 368.188 79.8421 370.842 79.763 371C79.8968 370.963 83.758 369.703 83.758 371.675C83.758 373.648 77.7564 379.686 80.4197 379.686C83.0831 379.686 87.1145 378.365 85.0897 384.361Z" fill="#BC6F2F"/>
<path d="M228.131 400.717C227.219 405.745 224.932 426.417 222.92 445.391C220.056 441.519 218.055 433.825 219.879 427.781C221.88 421.085 218.542 399.737 221.88 392.39C223.333 389.188 225.79 389.919 228.106 391.781C228.738 394.726 228.747 397.77 228.131 400.717Z" fill="#BC6F2F"/>
<path d="M114.186 204.869C108.923 205.999 103.739 207.471 98.6679 209.276C93.2302 211.207 87.8982 213.424 82.6941 215.918C82.0434 216.222 81.3806 216.526 80.7239 216.812C80.3834 216.971 70.1618 215.455 65.8993 215.199L64.2332 215.09L67.158 218.024C67.3038 218.163 67.4202 218.33 67.5006 218.515C67.581 218.7 67.6237 218.899 67.6262 219.101C67.6206 219.46 67.4795 219.803 67.2313 220.062C66.9831 220.32 66.6462 220.475 66.2885 220.495L52.9111 221.195L59.3809 225.553L61.3388 226.88C61.5324 227.009 61.6895 227.185 61.7949 227.392C60.9841 227.899 60.1592 228.416 59.3201 228.944C49.2675 235.359 39.5727 242.319 30.2789 249.792L30.0478 249.969C27.0075 252.373 23.9672 255.058 22.064 258.375C21.0147 260.307 20.3789 262.436 20.1972 264.627C19.6621 269.795 20.8904 275.651 23.049 279.327C28.7162 288.945 39.637 293.967 50.193 298.806C53.8414 300.474 57.2405 302.039 60.4693 303.792C60.633 303.881 60.7776 304.001 60.8947 304.146C61.0119 304.291 61.0994 304.458 61.1522 304.637C61.2049 304.816 61.222 305.003 61.2024 305.189C61.1828 305.374 61.1269 305.554 61.0378 305.718C60.9488 305.882 60.8284 306.027 60.6835 306.144C60.5386 306.261 60.372 306.349 60.1933 306.402C59.8324 306.509 59.4439 306.467 59.1133 306.287C58.0431 305.707 56.9425 305.139 55.8115 304.583C54.1637 318.772 56.1399 321.724 62.0807 326.247C62.189 325.997 62.3682 325.784 62.5963 325.634C62.8244 325.485 63.0912 325.406 63.3637 325.407C63.3637 325.407 64.8413 324.683 65.4737 317.104C65.8324 312.764 65.7291 308.479 65.7291 308.43C65.7194 308.054 65.8594 307.689 66.1182 307.416C66.3771 307.144 66.7336 306.985 67.1094 306.975C67.4851 306.966 67.8493 307.106 68.1219 307.365C68.3944 307.624 68.553 307.981 68.5626 308.357C68.6174 310.512 68.7329 319.923 66.8965 324.914C66.6128 325.782 66.1556 326.584 65.5527 327.27C65.245 327.59 64.8772 327.847 64.4704 328.025C65.2913 328.633 66.1425 329.242 67.0607 329.954C67.2918 330.131 67.5289 330.301 67.7661 330.459C68.9411 331.283 70.3179 331.771 71.7489 331.872C73.6765 328.274 75.0811 322.808 75.6588 319.052C75.716 318.68 75.9186 318.346 76.2219 318.123C76.5252 317.901 76.9045 317.808 77.2762 317.865C77.6479 317.922 77.9817 318.125 78.204 318.429C78.4264 318.733 78.5192 319.112 78.4619 319.484C77.8352 323.445 76.7706 327.324 75.2878 331.05C75.5081 330.946 75.7214 330.828 75.9263 330.697C79.9699 328.262 83.2231 322.704 85.2114 316.611C87.0356 311.066 87.741 305.046 86.9931 300.59C86.822 299.632 86.5362 298.698 86.1418 297.808C84.4453 293.851 80.6692 289.639 76.3033 285.695C66.3067 276.716 52.9597 269.107 52.753 268.985C52.5848 268.897 52.4362 268.775 52.3158 268.628C52.1955 268.481 52.106 268.311 52.0525 268.129C51.9991 267.946 51.9828 267.755 52.0047 267.566C52.0266 267.377 52.0863 267.195 52.1801 267.029C52.2739 266.864 52.3999 266.719 52.5507 266.604C52.7015 266.488 52.874 266.404 53.058 266.357C53.2419 266.309 53.4335 266.299 53.6213 266.327C53.8092 266.355 53.9895 266.421 54.1515 266.52C54.6501 266.8 59.3079 269.46 65.0967 273.435C66.0878 274.123 67.1094 274.835 68.137 275.584C70.6301 277.379 73.2204 279.364 75.7135 281.464C79.9334 285.025 83.8676 288.921 86.5127 292.81C87.5062 294.234 88.3364 295.766 88.9875 297.376C89.3385 298.264 89.5973 299.186 89.7598 300.127C90.5563 304.918 89.851 311.169 88.0025 317.037C87.2329 319.508 86.2418 321.904 85.0412 324.196C82.9798 328.079 80.3713 331.306 77.3613 333.12C76.1457 333.88 74.7887 334.385 73.3724 334.605C72.9255 334.671 72.4743 334.703 72.0225 334.702C71.3102 334.703 70.6001 334.621 69.9065 334.459C68.9159 334.23 67.9635 333.859 67.079 333.357C66.4613 333.018 65.8698 332.634 65.3095 332.206C65.0784 332.024 64.8413 331.853 64.6163 331.677L64.5616 331.64C64.0751 331.275 63.6008 330.916 63.1326 330.575L62.4455 330.076C54.5407 324.251 50.8923 321.554 53.057 303.676C53.07 303.554 53.1028 303.434 53.1543 303.323C51.7983 302.714 50.4241 302.051 49.0012 301.405C38.056 296.371 26.7156 291.161 20.6046 280.776C18.1723 276.661 16.8164 270.337 17.3575 264.609C17.5489 261.922 18.3207 259.31 19.6195 256.951C21.6566 253.439 24.6969 250.657 27.7494 248.179L28.2784 247.753C37.4075 240.412 46.9144 233.555 56.7601 227.209L48.5634 221.688C48.2478 221.507 47.9991 221.229 47.8546 220.895C47.7101 220.561 47.6775 220.189 47.7617 219.835C47.8459 219.48 48.0423 219.163 48.3216 218.93C48.6009 218.697 48.9481 218.56 49.3113 218.541L62.9563 217.829L62.1111 216.965C61.7131 216.563 61.4467 216.05 61.3473 215.494C61.2479 214.937 61.3202 214.364 61.5547 213.849C61.7891 213.335 62.1745 212.904 62.6595 212.615C63.1446 212.325 63.7062 212.191 64.2697 212.229L80.3713 213.854C86.9492 210.675 93.7249 207.924 100.656 205.618C104.848 204.223 109.11 203.05 113.426 202.106C113.475 202.09 113.526 202.078 113.578 202.069C113.823 202.015 114.079 202.029 114.317 202.108C114.556 202.187 114.769 202.33 114.934 202.52C115.092 202.703 115.202 202.923 115.256 203.159C115.298 203.342 115.304 203.531 115.273 203.716C115.242 203.901 115.175 204.078 115.076 204.237C114.976 204.396 114.846 204.533 114.694 204.642C114.541 204.75 114.368 204.828 114.186 204.869Z" fill="black"/>
<path d="M94.8371 256.129C94.8015 256.209 94.7544 256.283 94.6972 256.348C94.6475 256.414 94.5926 256.475 94.5331 256.531C94.0648 256.945 92.8487 258.022 91.1401 259.483C85.5337 264.268 74.6676 273.112 68.1674 275.59C67.2462 275.986 66.2621 276.215 65.2608 276.266C64.9041 276.256 64.5638 276.113 64.3082 275.864C64.0525 275.614 63.9002 275.278 63.8818 274.921C63.8633 274.564 63.9801 274.214 64.2087 273.939C64.4373 273.665 64.761 273.487 65.1149 273.441C65.1633 273.435 65.2124 273.435 65.2608 273.441C69.5903 273.441 83.8068 262.253 92.1312 254.881L92.642 254.425C92.7805 254.3 92.9424 254.204 93.1182 254.142C93.294 254.081 93.4803 254.055 93.6663 254.065C93.8523 254.076 94.0344 254.124 94.2019 254.205C94.3695 254.287 94.5192 254.401 94.6425 254.54C94.7428 254.643 94.8214 254.766 94.8736 254.9C94.9184 254.988 94.9492 255.082 94.9648 255.18C95.0389 255.501 94.9935 255.839 94.8371 256.129Z" fill="black"/>
<path d="M340.988 152.106C340.805 150.487 340.538 148.843 340.191 147.206C339.11 142.212 337.333 137.394 334.913 132.895C332.001 127.477 328.559 124.659 324.686 124.525C319.943 124.342 315.315 128.177 310.949 133.51C310.664 129.997 309.612 125.675 306.857 123.253C306.031 122.519 305.037 121.997 303.964 121.734C302.891 121.471 301.769 121.474 300.697 121.743C298.569 122.2 295.59 124.44 294.27 138.647C294.082 140.65 293.954 142.634 293.863 144.479C293.674 148.49 293.668 151.814 293.674 153.001C278.673 163.002 248.197 178.36 220.707 191.423L220.53 181.744C220.547 181.396 220.451 181.052 220.258 180.763C220.064 180.473 219.783 180.254 219.455 180.136C219.128 180.019 218.771 180.01 218.438 180.111C218.105 180.212 217.813 180.418 217.605 180.697L209.901 191.398L209.652 190.278C209.538 189.746 209.263 189.261 208.866 188.889C208.468 188.517 207.967 188.275 207.428 188.196C206.89 188.117 206.34 188.205 205.853 188.448C205.366 188.69 204.964 189.076 204.702 189.554L197.783 202.142C194.803 203.5 191.963 204.79 189.27 206.008L189.075 206.093L187.251 206.921C186.939 207.081 186.7 207.355 186.584 207.686C186.468 208.017 186.483 208.38 186.627 208.7C186.77 209.02 187.031 209.273 187.355 209.407C187.68 209.54 188.043 209.543 188.37 209.416C188.668 209.289 189.422 208.942 190.559 208.424C192.201 207.688 194.675 206.555 197.789 205.125L199.734 204.236L201.936 200.231L207.025 190.978L207.876 194.947C207.933 195.206 208.063 195.443 208.251 195.629C208.439 195.816 208.676 195.945 208.934 196C209.192 196.05 209.459 196.027 209.705 195.932C209.95 195.837 210.163 195.675 210.321 195.465L217.849 185.007L217.995 192.713L218.037 194.789C218.04 195.065 218.125 195.334 218.28 195.562C219.095 195.179 219.916 194.783 220.755 194.393C248.118 181.409 285.022 163.075 299.372 152.222C302.047 150.201 303.938 148.429 304.844 147.017C309.271 140.023 317.504 127.021 324.57 127.252C327.41 127.356 330.073 129.687 332.475 134.185C332.925 135.019 333.357 135.871 333.752 136.724C333.703 136.864 328.826 151.211 319.967 154.985C319.681 155.111 319.446 155.331 319.302 155.609C319.158 155.887 319.114 156.206 319.177 156.513C319.239 156.82 319.405 157.096 319.646 157.295C319.887 157.495 320.189 157.605 320.502 157.609C320.686 157.608 320.868 157.57 321.037 157.499C328.565 154.267 333.314 144.947 335.296 140.279C336.507 143.442 337.395 146.719 337.947 150.061C338.106 151.014 337.948 151.993 337.497 152.849C335.394 156.842 332.749 160.713 329.836 162.332C329.571 162.479 329.363 162.709 329.244 162.987C329.124 163.265 329.101 163.575 329.177 163.868C329.253 164.161 329.424 164.42 329.663 164.605C329.902 164.79 330.196 164.89 330.499 164.889C330.731 164.89 330.959 164.832 331.161 164.718C333.946 163.172 336.439 160.037 338.519 156.568C338.626 160.736 337.87 164.881 336.3 168.742C333.527 175.134 328.395 179.364 321.062 181.312C316.805 182.438 300.211 192.135 280.68 204.084C266.488 212.764 250.757 222.638 237.143 231.251C220.427 241.837 206.891 250.541 203.292 252.867L202.598 253.317L202.489 253.384C202.225 253.538 202.02 253.778 201.909 254.063C201.797 254.348 201.784 254.662 201.873 254.955C201.961 255.249 202.146 255.503 202.396 255.679C202.647 255.854 202.95 255.94 203.255 255.922C203.517 255.925 203.773 255.849 203.991 255.703L204.185 255.575L204.337 255.478C213.118 249.817 223.844 242.957 235.215 235.743C251.748 225.255 269.65 214.037 284.93 204.699C303.44 193.419 318.088 184.94 321.785 183.96C329.86 181.817 335.771 176.929 338.811 169.832C341.012 164.828 341.705 158.613 340.988 152.106ZM307.417 138.209C305.744 140.589 304.121 143.079 302.552 145.544C301.792 146.731 300.229 148.216 297.973 149.945C297.469 150.328 296.946 150.712 296.392 151.12C296.392 150.213 296.392 149.087 296.453 147.802C296.526 145.246 296.678 142.08 296.97 138.909C298.186 125.718 300.758 124.513 301.263 124.409C301.918 124.233 302.606 124.222 303.266 124.377C303.926 124.532 304.537 124.849 305.045 125.298C307.222 127.222 308.274 131.556 308.31 135.293C308.323 136.335 308.011 137.354 307.417 138.209Z" fill="black"/>
<path d="M251.535 496.639C251.071 497.545 250.521 498.405 249.894 499.207C248.462 501.04 246.701 502.588 244.701 503.773C238.012 507.711 229.499 509.294 221.102 509.294C218.376 509.294 215.653 509.129 212.948 508.801C209.693 508.427 206.473 507.8 203.316 506.926C199.144 505.757 196.542 503.7 194.73 501.076C192.711 498.148 191.69 494.52 190.553 490.606C190.394 490.071 190.242 489.529 190.078 488.975C187.877 481.421 185.706 474.652 183.438 468.279C182.915 466.812 182.417 465.284 181.93 463.811C181.669 463.025 181.407 462.228 181.134 461.431C179.455 456.433 177.54 451.442 174.311 447.43C168.735 440.497 159.401 439.45 150.961 439.146C151.164 439.036 151.336 438.877 151.462 438.683C151.587 438.49 151.662 438.268 151.679 438.038C151.695 437.852 151.674 437.665 151.617 437.488C151.56 437.31 151.469 437.146 151.349 437.004C151.229 436.862 151.081 436.745 150.916 436.66C150.75 436.576 150.569 436.524 150.384 436.51C150.141 436.51 149.879 436.467 149.605 436.455C149.822 436.339 150.065 436.283 150.311 436.291C160.277 436.625 170.377 437.983 176.537 445.647C179.243 449.013 181.067 452.89 182.55 456.883C183.304 458.886 183.973 460.919 184.642 462.928C185.123 464.389 185.621 465.899 186.126 467.335C188.418 473.769 190.607 480.593 192.815 488.196C192.973 488.756 193.137 489.31 193.289 489.839C195.338 496.998 196.816 502.178 204.094 504.211C205.687 504.668 207.384 505.057 209.147 505.386C220.153 507.437 233.81 506.95 243.272 501.35C244.478 500.634 245.585 499.765 246.567 498.763C242.353 498.338 238.114 498.222 233.883 498.416C233.697 498.424 233.511 498.395 233.336 498.331C233.161 498.268 233.001 498.17 232.864 498.044C232.586 497.789 232.422 497.435 232.406 497.059C232.389 496.683 232.523 496.315 232.778 496.038C233.032 495.761 233.386 495.596 233.762 495.579C238.722 495.352 243.693 495.54 248.623 496.139C249.953 494.149 250.495 491.733 250.143 489.365C250.063 488.96 249.943 488.564 249.784 488.184C243.895 489.055 238.057 490.246 232.296 491.751C232.178 491.785 232.055 491.801 231.931 491.799C231.589 491.797 231.258 491.671 231.001 491.443C230.745 491.216 230.579 490.903 230.535 490.562C230.492 490.222 230.573 489.877 230.763 489.592C230.954 489.307 231.242 489.101 231.573 489.011C233.908 488.403 240.694 486.692 247.771 485.59C246.138 484.417 244.23 483.685 242.232 483.466C240.237 483.226 238.226 483.147 236.218 483.229C234.595 483.229 232.922 483.271 231.244 483.137C226.89 482.778 223.522 481.196 221.223 478.42C218.566 475.212 217.465 470.464 218.061 464.681C218.633 459.203 219.229 453.42 219.837 447.668C222.087 426.423 224.41 405.447 225.358 400.23C227.042 390.947 222.78 387.581 222.598 387.447C222.318 387.231 222.127 386.919 222.062 386.571C221.997 386.223 222.062 385.863 222.245 385.56C222.431 385.264 222.721 385.047 223.058 384.951C223.395 384.856 223.755 384.888 224.069 385.043L229.086 387.551L224.495 376.941C224.37 376.669 224.335 376.364 224.395 376.071C224.454 375.778 224.604 375.51 224.824 375.308C225.044 375.105 225.322 374.977 225.619 374.943C225.916 374.908 226.216 374.968 226.477 375.115L235.805 380.234L228.794 370.16C228.636 369.935 228.484 369.715 228.338 369.49C220.676 358.15 218.201 344.825 217.119 333.746C217.009 332.608 216.912 331.482 216.821 330.399C213.702 290.662 210.345 278.786 203.766 261.772C203.158 260.122 202.458 258.418 201.759 256.634C201.601 256.227 201.431 255.813 201.267 255.417C200.689 253.938 200.087 252.41 199.442 250.809C199.364 250.634 199.322 250.445 199.319 250.254C199.316 250.062 199.352 249.872 199.424 249.695C199.496 249.517 199.604 249.356 199.74 249.222C199.876 249.087 200.037 248.981 200.215 248.911C200.393 248.841 200.584 248.807 200.775 248.812C200.966 248.818 201.154 248.862 201.328 248.942C201.502 249.022 201.658 249.136 201.786 249.278C201.915 249.42 202.013 249.587 202.075 249.768C202.501 250.856 202.916 251.911 203.322 252.933C203.516 253.42 203.705 253.895 203.887 254.37C204.07 254.845 204.197 255.137 204.343 255.514C204.429 255.74 204.526 255.965 204.611 256.196L206.198 260.238C212.826 277.325 216.45 289.718 219.673 330.186C219.861 332.62 220.111 335.262 220.469 337.959C221.752 347.698 224.403 358.655 230.806 368.06C230.904 368.224 231.019 368.388 231.129 368.547L241.624 383.6C241.799 383.861 241.882 384.173 241.861 384.487C241.839 384.801 241.714 385.098 241.505 385.333C241.296 385.568 241.016 385.727 240.707 385.784C240.398 385.842 240.079 385.795 239.8 385.652L228.794 379.607L233.287 389.992C233.402 390.259 233.432 390.555 233.375 390.84C233.317 391.124 233.174 391.385 232.965 391.587C232.751 391.785 232.482 391.913 232.193 391.956C231.904 391.998 231.61 391.952 231.348 391.824L227.571 389.931C228.508 392.402 229.061 395.927 228.18 400.736C227.182 406.257 224.531 430.648 222.385 450.942C221.85 455.983 221.351 460.779 220.919 464.943C220.402 469.953 221.278 473.976 223.437 476.588C225.23 478.749 227.948 479.996 231.518 480.289C233.056 480.416 234.589 480.386 236.218 480.368C238.376 480.288 240.538 480.377 242.682 480.636C247.285 481.317 249.869 483.15 251.31 485.073C252.136 486.176 252.701 487.452 252.964 488.804C253.385 491.502 252.882 494.264 251.535 496.639Z" fill="black"/>
<path d="M150.919 439.145C150.681 439.288 150.405 439.354 150.128 439.334C146.956 439.115 143.768 439.301 140.643 439.888C129.564 442.366 126 452.884 122.565 463.062C122.121 464.352 121.695 465.625 121.251 466.866C118.983 473.252 116.812 480.027 114.605 487.563C110.823 500.534 106.171 507.249 91.7359 507.249C91.2738 507.249 90.8116 507.249 90.3373 507.249C85.26 507.102 80.1462 506.737 75.081 506.165C73.5365 505.982 71.9981 505.788 70.4597 505.556C66.8113 505.051 63.0231 504.394 59.5997 502.513C58.5982 501.973 57.6582 501.326 56.7965 500.583C56.019 499.918 55.3194 499.166 54.7108 498.343C53.0536 496.132 52.1422 493.45 52.1083 490.685C52.091 489.677 52.1931 488.669 52.4124 487.684C52.4792 487.374 52.5583 487.076 52.6434 486.771C54.3825 480.97 59.7395 477.568 66.2823 478.128C73.3906 478.736 77.945 477.811 80.6205 475.212C83.0527 472.85 84.0925 468.906 83.7824 463.141C83.6 459.641 83.3324 455.897 83.0102 452.05C81.186 430.045 77.495 404.485 76.5586 399.293C75.683 394.484 76.2424 390.96 77.1667 388.488L73.3845 390.381C73.1247 390.512 72.8307 390.559 72.5432 390.515C72.2556 390.472 71.9887 390.34 71.7792 390.138C71.5652 389.941 71.4187 389.681 71.3609 389.396C71.303 389.11 71.3366 388.814 71.4569 388.549L75.9445 378.164L64.9324 384.209C64.6531 384.364 64.3297 384.419 64.0149 384.366C63.7001 384.313 63.4127 384.155 63.1994 383.917C62.9861 383.677 62.8594 383.373 62.8395 383.053C62.8197 382.733 62.9079 382.415 63.09 382.151L73.5852 367.104C78.9415 359.33 82.5074 350.463 84.0256 341.142C84.7068 337.081 85.0485 332.97 85.0472 328.852C85.0472 327.276 85.0472 325.73 85.0776 324.202C85.0776 321.603 85.1506 319.076 85.2174 316.611C85.4059 309.854 85.7343 303.585 86.1478 297.808C86.2755 296.104 86.4032 294.442 86.5491 292.816C87.4489 281.625 88.9816 270.494 91.14 259.477C91.4987 257.718 91.8271 256.184 92.1311 254.863C92.269 254.25 92.4027 253.684 92.5324 253.165C93.1952 250.395 93.633 248.959 93.6513 248.904C93.7035 248.722 93.7913 248.553 93.9095 248.407C94.0278 248.26 94.1741 248.138 94.34 248.048C94.5058 247.959 94.6879 247.903 94.8754 247.885C95.063 247.867 95.2523 247.886 95.4323 247.942C95.6123 247.998 95.7793 248.089 95.9236 248.21C96.068 248.332 96.1866 248.481 96.2728 248.648C96.3589 248.816 96.4107 249 96.4252 249.188C96.4397 249.376 96.4166 249.565 96.3572 249.744C96.3572 249.817 95.7856 251.643 94.9647 255.167C94.9647 255.332 94.8917 255.502 94.8492 255.673C94.8066 255.843 94.7519 256.117 94.6972 256.348C92.853 264.87 91.4426 273.48 90.4711 282.146C89.9299 286.754 89.4374 291.836 89.0239 297.364C88.574 303.372 88.2274 309.927 88.0389 317.025C87.9416 320.811 87.8808 324.75 87.8808 328.834C87.8887 333.576 87.451 338.309 86.5734 342.968C84.8858 352.216 81.2545 360.999 75.9201 368.735L68.8727 378.822L78.1943 373.696C78.4534 373.555 78.7501 373.498 79.0432 373.533C79.3362 373.568 79.6112 373.693 79.83 373.891C80.0489 374.089 80.2001 374.35 80.2623 374.639C80.3245 374.927 80.2945 375.228 80.1766 375.498L75.5857 386.102L80.6022 383.594C80.9248 383.399 81.3116 383.34 81.6777 383.43C82.0437 383.52 82.359 383.752 82.5541 384.075C82.7492 384.398 82.8083 384.785 82.7182 385.152C82.6281 385.518 82.3963 385.834 82.0737 386.029C81.8974 386.157 77.641 389.529 79.3253 398.812C80.2556 403.931 83.8189 428.803 85.71 450.65C86.0809 454.911 86.3849 459.123 86.5977 463.007C86.9504 469.642 85.6248 474.311 82.5724 477.275C79.2706 480.477 74.0108 481.652 66.0208 480.982C60.1165 480.477 56.7904 483.673 55.55 487.021C61.9103 485.767 71.2867 484.842 75.6161 488.847C75.8919 489.101 76.0554 489.455 76.0708 489.83C76.0862 490.205 75.9522 490.571 75.6982 490.847C75.4442 491.123 75.091 491.286 74.7164 491.302C74.3418 491.317 73.9765 491.183 73.7007 490.929C70.2347 487.727 61.2293 488.713 54.9115 490.034C54.7941 492.695 55.7117 495.298 57.4715 497.296C62.336 495.537 70.1618 493.169 73.0014 494.806C73.188 494.883 73.3561 494.999 73.4942 495.147C73.6324 495.294 73.7375 495.469 73.8026 495.661C73.8676 495.852 73.891 496.055 73.8713 496.256C73.8516 496.457 73.7892 496.652 73.6882 496.827C73.5872 497.002 73.4501 497.153 73.2859 497.271C73.1218 497.388 72.9344 497.47 72.7364 497.509C72.5383 497.548 72.3342 497.545 72.1377 497.498C71.9411 497.452 71.7567 497.365 71.5968 497.241C70.3077 496.505 65.1939 497.655 59.9463 499.42C60.2575 499.64 60.5803 499.844 60.9131 500.029C63.9534 501.673 67.4559 502.269 70.8185 502.744C74.1811 503.219 77.6045 503.602 81.0279 503.882C84.1412 504.132 87.2605 504.308 90.3677 504.394C104.305 504.789 108.117 499.524 111.838 486.741C114.058 479.132 116.253 472.302 118.527 465.874C118.965 464.657 119.391 463.378 119.828 462.1C123.343 451.691 127.332 439.9 139.968 437.07C143.114 436.471 146.321 436.248 149.52 436.406C149.249 436.555 149.033 436.788 148.905 437.071C148.778 437.354 148.747 437.67 148.815 437.972C148.884 438.275 149.05 438.546 149.287 438.746C149.524 438.945 149.819 439.062 150.128 439.079L150.919 439.145Z" fill="black"/>
<path d="M146.602 252.879C143.895 252.88 141.249 252.077 138.998 250.573C136.747 249.068 134.993 246.93 133.957 244.427C132.92 241.924 132.649 239.169 133.177 236.512C133.704 233.855 135.008 231.414 136.921 229.498C138.835 227.582 141.273 226.278 143.928 225.749C146.582 225.221 149.334 225.493 151.834 226.53C154.334 227.568 156.471 229.324 157.974 231.577C159.477 233.83 160.278 236.479 160.277 239.189C160.272 242.818 158.83 246.297 156.266 248.864C153.703 251.43 150.227 252.874 146.602 252.879ZM146.602 228.834C146.403 228.834 146.209 228.893 146.044 229.004C145.879 229.114 145.751 229.271 145.675 229.454C145.599 229.638 145.579 229.84 145.618 230.035C145.656 230.23 145.752 230.409 145.892 230.549C146.032 230.689 146.211 230.785 146.406 230.824C146.6 230.863 146.802 230.843 146.986 230.767C147.169 230.691 147.326 230.562 147.436 230.397C147.546 230.232 147.605 230.037 147.605 229.839C147.607 229.705 147.583 229.573 147.534 229.449C147.485 229.325 147.411 229.212 147.318 229.117C147.224 229.022 147.113 228.946 146.99 228.894C146.867 228.843 146.735 228.816 146.602 228.816V228.834Z" fill="#B2B2B2"/>
<path d="M146.601 226.144C144.028 226.144 141.512 226.908 139.372 228.339C137.232 229.771 135.564 231.805 134.579 234.185C133.595 236.566 133.337 239.185 133.839 241.712C134.341 244.239 135.58 246.56 137.4 248.382C139.22 250.203 141.539 251.444 144.063 251.947C146.587 252.449 149.203 252.191 151.581 251.205C153.959 250.219 155.991 248.55 157.421 246.408C158.851 244.265 159.614 241.747 159.614 239.17C159.614 235.716 158.243 232.402 155.803 229.959C153.362 227.516 150.053 226.144 146.601 226.144ZM146.601 231.488C146.27 231.488 145.947 231.39 145.672 231.206C145.397 231.022 145.182 230.76 145.056 230.454C144.93 230.147 144.897 229.811 144.962 229.486C145.027 229.161 145.187 228.863 145.421 228.629C145.656 228.395 145.954 228.236 146.279 228.172C146.604 228.108 146.94 228.142 147.246 228.27C147.551 228.397 147.812 228.613 147.995 228.889C148.178 229.165 148.275 229.489 148.274 229.821C148.274 230.04 148.23 230.257 148.146 230.46C148.062 230.663 147.939 230.847 147.783 231.002C147.628 231.157 147.444 231.28 147.241 231.363C147.038 231.447 146.821 231.489 146.601 231.488Z" fill="#E2E2E2"/>
<path d="M152.518 244.631V248.892L141.245 249.147L140.691 232.907L151.959 232.542L152.263 236.803L145.045 236.888L145.13 238.574L151.132 238.446L151.345 242.707L145.386 242.835L145.495 244.868L152.518 244.631Z" fill="white"/>
<path d="M182.508 193.389C181.93 198.204 181.656 203.926 181.2 208.783C180.829 209.003 180.221 208.406 179.85 208.631C176.976 210.338 173.98 211.831 170.887 213.099C169.775 213.568 168.644 214 167.507 214.396L167.13 214.53C165.974 214.925 164.825 215.284 163.67 215.619C162.216 216.033 160.745 216.392 159.267 216.703C158.24 216.922 157.194 217.117 156.166 217.275C149.688 218.33 143.086 218.381 136.593 217.427C135.577 217.281 134.574 217.117 133.552 216.928C130.342 216.298 127.18 215.442 124.091 214.365C122.996 213.982 121.896 213.562 120.795 213.117C119.445 212.57 118.103 211.975 116.77 211.334L116.672 211.279C113.596 209.788 111.431 208.102 108.476 206.111C108.476 205.965 107.795 204.894 107.807 204.778C108.159 200.602 108.336 197.382 108.67 193.419C113.788 197.369 119.47 200.527 125.526 202.788C126.037 202.982 126.56 203.165 127.082 203.341C127.605 203.518 128.262 203.737 128.858 203.914C131.193 204.624 133.569 205.191 135.972 205.612C142.8 206.79 149.785 206.716 156.586 205.393C158.252 205.07 159.894 204.675 161.529 204.175C162.691 203.853 163.858 203.481 165.001 203.068C171.319 200.806 177.231 197.538 182.508 193.389Z" fill="#3A3A3A"/>
<path d="M167.184 214.81C166.017 215.108 164.843 215.418 163.67 215.662V215.619L162.776 210.792L161.56 204.206C162.721 203.871 163.882 203.506 165.032 203.092L166.412 210.634L167.129 214.53L167.184 214.81Z" fill="#DDDDDD"/>
<path d="M196.378 212.515C195.861 213.154 195.32 213.793 194.785 214.426C193.264 216.142 191.301 217.405 189.111 218.078C188.941 218.133 188.765 218.182 188.595 218.225C185.749 219.113 182.891 219.844 180.009 220.446C176.968 221.055 173.928 221.56 170.924 221.889L169.593 222.023C168.906 222.09 168.218 222.151 167.537 222.187C167.13 222.224 166.729 222.248 166.321 222.266C163.378 222.441 160.443 222.473 157.516 222.364C154.186 222.258 150.864 221.96 147.569 221.469C144.107 220.985 140.677 220.294 137.298 219.399C136.082 219.091 134.866 218.75 133.65 218.377C130.342 217.364 127.094 216.164 123.921 214.785C122.845 214.329 121.787 213.836 120.735 213.33C119.397 212.685 118.096 212.022 116.8 211.322L116.703 211.267C113.596 209.569 107.673 205.618 107.673 205.618L107.175 194.052V191.398C107.175 191.398 119.628 199.665 125.63 202.617C126.116 202.854 126.609 203.098 127.101 203.323C127.594 203.548 128.244 203.847 128.81 204.084C130.908 205.003 133.066 205.837 135.225 206.562C136.228 206.902 137.25 207.219 138.265 207.511C144.258 209.279 150.438 210.338 156.677 210.664C157.699 210.731 158.72 210.768 159.718 210.774C160.715 210.78 161.736 210.774 162.758 210.774C163.919 210.774 165.093 210.701 166.26 210.634C166.305 210.637 166.35 210.637 166.394 210.634C166.753 210.634 167.112 210.585 167.47 210.561L170.863 210.22C173.879 209.852 176.873 209.322 179.832 208.631L180.903 208.369C182.666 207.937 184.411 207.444 186.15 206.884C186.938 206.631 187.756 206.485 188.582 206.452C189.483 206.406 190.385 206.497 191.258 206.72C192.377 207.018 193.508 207.28 194.651 207.529C197.065 208.029 198.05 210.445 196.378 212.515Z" fill="#4F4F4F"/>
<path d="M167.495 210.555L167.538 222.199V222.26C168.663 222.199 169.794 222.102 170.919 222.005V221.889L170.87 210.22L167.495 210.555Z" fill="#DDDDDD"/>
<path d="M128.888 203.92L128.809 204.108L124.109 214.365L123.908 214.804C122.832 214.341 121.768 213.848 120.71 213.337L120.813 213.117L125.538 202.769L125.611 202.617L128.864 203.889L128.888 203.92Z" fill="#DDDDDD"/>
<path d="M158.094 206.616C157.663 206.141 157.165 205.731 156.616 205.399C155.653 204.798 154.556 204.445 153.424 204.37L141.56 203.506C140.535 203.425 139.505 203.572 138.543 203.936C137.581 204.3 136.712 204.872 135.997 205.612C135.7 205.902 135.438 206.227 135.218 206.58C134.625 207.463 134.269 208.484 134.185 209.544L134.081 210.676L133.698 215.339L133.57 216.818C133.574 216.853 133.574 216.887 133.57 216.922C133.533 217.41 133.558 217.901 133.643 218.383C133.848 219.574 134.388 220.683 135.2 221.579C136.404 222.912 138.078 223.726 139.87 223.849L143.609 224.123L145.574 224.269L151.727 224.713C152.003 224.732 152.279 224.732 152.554 224.713C153.497 224.68 154.423 224.455 155.276 224.052C156.129 223.65 156.891 223.077 157.516 222.37C158.432 221.345 158.993 220.051 159.115 218.681L159.273 216.703L159.717 211.401C159.717 211.194 159.717 210.987 159.748 210.792C159.714 209.247 159.127 207.765 158.094 206.616ZM156.677 211.163L156.166 217.251L156.069 218.425C155.958 219.411 155.467 220.313 154.7 220.94C153.933 221.567 152.951 221.868 151.964 221.779L147.562 221.451L145.957 221.341L143.962 221.195L140.095 220.909C139.103 220.845 138.175 220.395 137.511 219.655C137.438 219.57 137.359 219.478 137.292 219.387C136.862 218.812 136.618 218.12 136.592 217.403C136.583 217.273 136.583 217.143 136.592 217.013L136.72 215.528L137.085 211.096L137.2 209.733C137.273 208.89 137.647 208.101 138.252 207.511C138.65 207.117 139.127 206.812 139.651 206.617C140.175 206.422 140.735 206.341 141.293 206.379L153.15 207.249C153.645 207.279 154.129 207.405 154.575 207.623C155.02 207.84 155.418 208.143 155.746 208.515C156.284 209.105 156.604 209.861 156.652 210.658C156.681 210.829 156.689 211.003 156.677 211.176V211.163Z" fill="#FFF385"/>
<path d="M135.899 215.601L133.467 215.309C133.157 215.278 132.856 215.187 132.581 215.039C132.307 214.891 132.064 214.69 131.868 214.448C131.672 214.205 131.526 213.926 131.438 213.627C131.35 213.327 131.323 213.014 131.357 212.703C131.459 212.076 131.803 211.512 132.314 211.135C132.825 210.757 133.464 210.595 134.094 210.683L136.526 210.975C136.836 211.004 137.136 211.095 137.41 211.243C137.685 211.39 137.927 211.59 138.123 211.832C138.319 212.074 138.464 212.353 138.551 212.652C138.638 212.951 138.665 213.264 138.63 213.574C138.529 214.202 138.187 214.765 137.677 215.144C137.167 215.523 136.529 215.687 135.899 215.601Z" fill="#DDDDDD"/>
<path d="M146.34 230.149C143.866 229.632 143.586 226.351 143.598 224.257C143.595 224.212 143.595 224.168 143.598 224.123C143.612 223.145 143.732 222.171 143.957 221.219L145.951 221.366C145.755 222.323 145.624 223.293 145.562 224.269C145.459 226.095 145.665 227.97 146.869 228.22C148.073 228.469 147.593 230.417 146.34 230.149Z" fill="#FFF385"/>
<path d="M174.966 210.387C175.877 210.24 176.424 208.936 176.188 207.475C175.952 206.014 175.022 204.949 174.111 205.096C173.2 205.243 172.653 206.547 172.889 208.009C173.125 209.47 174.055 210.535 174.966 210.387Z" fill="#C1C1C1"/>
<path d="M117.167 205.001C117.604 203.592 117.246 202.228 116.368 201.955C115.489 201.681 114.422 202.602 113.984 204.012C113.547 205.421 113.905 206.785 114.783 207.059C115.662 207.332 116.729 206.411 117.167 205.001Z" fill="#C1C1C1"/>
<path d="M234.874 74.6956C246.405 61.8841 252.451 45.0532 251.712 27.8245C251.213 17.3546 248.282 9.85525 239.343 16.7642C223.953 28.6524 210.582 38.0692 201.035 45.9825C200.063 46.786 207.724 47.5347 205.821 50.14C203.851 52.861 212.047 53.8836 211.044 56.3672C210.381 58.0107 198.409 57.3959 198.883 58.1203L208.612 77.2096C208.892 77.9339 209.281 84.8672 209.664 85.5368C210.734 87.4055 211.123 87.3934 212.546 89.1891C213.507 90.4065 218.122 92.9692 219.235 91.8613L234.874 74.6956Z" fill="#FFDCE8"/>
<path d="M114.478 69.1685C114.478 69.1685 145.829 43.7912 185.189 73.1738L219.211 132.609C219.211 132.609 212.522 172.011 210.54 172.011C208.557 172.011 199.169 184.703 191.83 187.369C191.83 187.369 166.479 204.735 157.17 204.066C157.17 204.066 135.821 206.069 132.489 204.066C129.156 202.063 113.809 200.724 101.131 186.036C88.4525 171.347 83.29 164.165 83.29 164.165L95.7979 75.8461L114.478 69.1685Z" fill="white"/>
<path d="M260.54 35.1108L254.551 59.1977L242.779 85.1898C242.779 85.1898 242.323 85.7985 241.563 86.8577C238.565 90.8204 230.733 100.682 225.145 103.494L224.884 103.622C224.812 103.653 224.746 103.697 224.689 103.75C224.324 104.084 224.434 104.76 224.823 105.643C226.136 108.583 230.642 113.812 231.019 116.38C231.828 121.792 231.822 120.276 233.378 126.777C234.351 130.819 223.838 119.698 224.409 123.472C224.981 127.246 229.45 133.284 229.134 136.255C228.885 138.483 223.844 135.281 222.518 136.255C221.059 137.32 223.315 142.549 222.992 144.777C222.384 149.038 220.858 147.419 220.651 153.299C220.651 153.731 220.651 154.206 220.651 154.736C220.675 155.68 220.585 156.624 220.384 157.548C220.245 158.208 219.967 158.83 219.569 159.374C218.815 160.378 217.794 160.938 216.875 162.783C214.048 168.438 212.382 168.87 211.214 169.868C211.214 169.868 211.062 170.1 209.037 172.668C207.888 174.117 206.149 176.321 203.498 179.632C203.351 179.82 203.162 179.97 202.946 180.07C202.73 180.17 202.493 180.217 202.255 180.207C202.017 180.197 201.785 180.13 201.578 180.012C201.371 179.894 201.196 179.728 201.066 179.528C196.888 173.107 194.663 166.173 194.663 161.358C194.663 147.656 176.251 136.785 158.787 119.771C143.525 104.906 152.044 69.4789 154.439 60.7682C154.786 59.5021 155.005 58.802 155.005 58.802L176.469 65.8144L176.725 65.8936L176.998 65.4857L195.24 41.198L218.164 19.7408L223.181 15.0719L241.192 5.05858L249.863 3.05591L259.197 11.7362L260.54 35.1108Z" fill="#D38A3C"/>
<path d="M134.629 116.855C117.166 133.899 98.7534 144.734 98.7534 158.449C98.7534 163.233 98.8264 178.749 91.5418 176.357C90.5749 176.041 89.5352 174.093 88.8845 172.741C88.6595 172.291 88.4832 171.913 88.3677 171.676C86.2881 167.519 87.4191 171.207 86.0084 168.846C84.7922 166.794 83.643 166.952 78.9244 159.386C77.704 157.358 76.7882 155.162 76.2064 152.867C74.4308 146.268 74.5342 138.994 73.7316 135.762C73.2573 133.875 73.4579 134.812 71.3723 135.287C70.7277 135.433 67.7725 138.252 66.6476 136.237C64.5133 132.402 72.1749 127.581 70.9041 123.941C70.1136 121.713 62.1783 127.897 61.929 125.84C61.0777 118.535 68.0522 111.919 68.2468 107.353C68.2468 106.994 69.998 105.028 70.752 103.926C70.977 103.585 71.1169 103.317 71.0804 103.232C71.0439 103.147 66.4165 100.566 66.4165 100.56C66.2037 100.134 63.5404 97.2485 60.3967 93.6023C56.0855 88.6048 50.8683 82.1585 49.7556 78.5488C47.8645 72.4008 41.0967 59.9343 39.7468 52.5019C34.408 23.1192 35.7458 27.1245 35.7458 27.1245L39.078 6.42822L46.32 2.77593L48.4178 1.72894L64.1545 9.28919L65.097 9.74572L81.758 21.7496L120.449 63.824L114.806 67.2328L116.272 66.6849L138.527 58.382L138.88 58.2481V58.3212C138.971 58.589 139.263 59.5386 139.67 61.0787C142.285 70.7329 149.357 102.526 134.629 116.855Z" fill="#D38A3C"/>
<path d="M64.7929 77.3679C53.2628 64.5556 47.2149 47.7259 47.9495 30.4968C48.4481 20.0269 51.379 12.5276 60.3236 19.4304C75.7137 31.3247 89.0851 40.7354 98.6317 48.6487C99.6046 49.4522 91.943 50.2009 93.8462 52.8062C95.8164 55.5272 87.6196 56.5498 88.6169 59.0334C89.2857 60.6708 101.252 60.0621 100.778 60.7865L91.0491 79.8758C90.7755 80.6002 90.3863 87.5334 90.0033 88.203C88.9331 90.0718 85.8319 92.0623 84.4151 93.8823C83.4544 95.0998 82.8403 95.6598 81.7457 94.5519L64.7929 77.3679Z" fill="white"/>
<path d="M162.046 173.082C161.973 173.088 161.9 173.088 161.827 173.082C160.398 182.749 156.549 195.635 146.224 196.347C145.926 196.347 145.616 196.347 145.336 196.347C143.909 196.367 142.492 196.102 141.169 195.565C139.846 195.029 138.643 194.233 137.632 193.225C132.385 188.111 131.089 177.891 130.798 171.865L130.189 171.743C130.348 171.134 130.524 170.556 130.731 169.978C130.846 169.661 130.968 169.339 131.095 169.022C131.896 169.194 132.71 169.294 133.528 169.32C137.736 169.466 142.387 167.872 147.379 164.536L147.495 164.463C147.722 164.308 147.994 164.235 148.268 164.254C148.542 164.274 148.801 164.386 149.003 164.572L149.1 164.664C149.167 164.718 153.819 168.791 159.328 169.941C159.961 170.078 160.603 170.17 161.249 170.215C161.495 170.958 161.698 171.714 161.857 172.48C161.961 172.662 162.009 172.869 162.046 173.082Z" fill="#EAACBC"/>
<path d="M146.353 158.065C139.408 158.345 127.74 147.376 128.852 138.976C129.807 131.75 137.791 130.186 145.976 130.162C156.921 130.125 162.478 131.988 163.141 138.513C163.926 146.134 155.011 157.712 146.353 158.065Z" fill="black"/>
<path d="M177.564 159.264C174.846 166.812 170.791 171.323 165.513 172.656C164.41 172.941 163.276 173.083 162.138 173.076H162.047C161.974 173.082 161.901 173.082 161.828 173.076C160.878 173.058 159.932 172.957 159 172.772C154.701 171.926 150.968 169.594 148.918 168.097C148.608 167.872 148.31 167.659 148.098 167.488C147.569 167.829 147.033 168.152 146.504 168.45C141.974 171.025 137.681 172.279 133.656 172.175C132.697 172.156 131.741 172.056 130.798 171.877L130.19 171.755C129.594 171.618 129.005 171.45 128.427 171.25C118.205 167.726 114.076 155.649 113.912 155.137C113.793 154.781 113.82 154.391 113.988 154.054C114.155 153.717 114.45 153.461 114.806 153.342C115.162 153.222 115.552 153.249 115.888 153.417C116.224 153.585 116.481 153.88 116.6 154.236C116.661 154.419 120.498 165.534 129.369 168.572C129.812 168.724 130.262 168.852 130.719 168.955L131.102 169.034C131.902 169.206 132.716 169.306 133.534 169.333C137.742 169.479 142.394 167.884 147.386 164.548L147.502 164.475C147.728 164.32 148.001 164.247 148.275 164.267C148.549 164.287 148.808 164.399 149.01 164.585L149.107 164.676C149.174 164.731 153.826 168.803 159.335 169.953C159.968 170.091 160.61 170.182 161.256 170.227C161.566 170.227 161.864 170.258 162.18 170.258C163.066 170.262 163.949 170.152 164.807 169.929C169.064 168.839 172.469 164.95 174.858 158.364C174.966 158.045 175.179 157.773 175.462 157.593C175.745 157.412 176.082 157.334 176.415 157.371C176.626 157.399 176.828 157.473 177.006 157.589C177.184 157.705 177.334 157.86 177.444 158.041C177.555 158.223 177.623 158.427 177.644 158.639C177.664 158.851 177.637 159.065 177.564 159.264Z" fill="black"/>
<path d="M162.205 171.579C162.12 172.291 162.029 173.034 161.913 173.807C161.913 174.001 161.864 174.208 161.828 174.415C160.399 184.076 156.55 196.968 146.225 197.674C145.927 197.674 145.617 197.674 145.337 197.674C143.909 197.692 142.492 197.424 141.169 196.885C139.846 196.347 138.644 195.549 137.633 194.539C132.385 189.42 131.09 179.206 130.798 173.174C130.762 172.486 130.738 171.853 130.731 171.293C130.731 170.909 130.731 170.568 130.731 170.258L131.115 170.337C131.915 170.507 132.729 170.605 133.547 170.629C133.547 171.414 133.583 172.382 133.644 173.478C133.96 179.133 135.182 188.197 139.597 192.5C140.43 193.338 141.437 193.98 142.548 194.381C143.658 194.782 144.843 194.932 146.018 194.819C154.385 194.253 157.687 182.876 158.988 174.081C159.134 173.1 159.25 172.151 159.347 171.25C159.98 171.39 160.622 171.482 161.268 171.524C161.591 171.573 161.907 171.579 162.205 171.579Z" fill="black"/>
<path d="M184.971 73.3808C184.838 73.5277 184.675 73.6452 184.494 73.7259C184.313 73.8066 184.117 73.8487 183.919 73.8495C183.566 73.8484 183.227 73.7135 182.97 73.4721C181.292 71.9528 179.519 70.5418 177.662 69.2476C176.888 68.7079 176.095 68.1905 175.284 67.6954C168.938 63.7807 161.776 61.3832 154.355 60.6891C149.464 60.2249 144.535 60.3557 139.676 61.0786C138.509 61.245 137.327 61.4479 136.131 61.6874C129.478 62.999 123.007 65.1124 116.862 67.9815C115.889 68.4319 115.037 68.8458 114.326 69.1989C112.727 70.0085 111.827 70.5502 111.796 70.5685C111.474 70.7622 111.088 70.8198 110.723 70.7284C110.358 70.6371 110.044 70.4044 109.851 70.0815C109.657 69.7586 109.6 69.372 109.691 69.0067C109.782 68.6414 110.014 68.3274 110.337 68.1336C110.465 68.0606 111.438 67.4701 113.128 66.6119C113.45 66.4414 113.797 66.271 114.174 66.0823C114.551 65.8936 115.122 65.6196 115.651 65.3762C121.986 62.422 128.654 60.2472 135.511 58.8994C136.52 58.7046 137.524 58.5281 138.515 58.382L138.886 58.3212C152.956 56.2698 165.799 58.6438 176.659 65.2483L176.914 65.4066C177.625 65.8388 178.325 66.2953 179.03 66.7762C181.075 68.1723 183.019 69.7101 184.849 71.3781C184.989 71.5016 185.102 71.6513 185.184 71.8188C185.265 71.9863 185.313 72.1682 185.325 72.3542C185.336 72.5402 185.31 72.7266 185.25 72.9027C185.189 73.0789 185.094 73.2413 184.971 73.3808Z" fill="black"/>
<path d="M146.292 187.137C145.979 187.137 145.679 187.013 145.458 186.792C145.237 186.57 145.112 186.27 145.112 185.957C145.112 180.302 146.687 166.867 146.754 166.295C146.767 166.137 146.812 165.983 146.886 165.842C146.959 165.702 147.061 165.578 147.184 165.477C147.306 165.377 147.448 165.302 147.6 165.258C147.753 165.214 147.912 165.201 148.07 165.219C148.227 165.238 148.379 165.289 148.517 165.368C148.654 165.447 148.774 165.553 148.87 165.679C148.966 165.806 149.035 165.95 149.074 166.104C149.112 166.258 149.12 166.418 149.095 166.575C149.095 166.709 147.472 180.442 147.472 185.957C147.472 186.112 147.441 186.265 147.382 186.408C147.323 186.552 147.236 186.682 147.126 186.792C147.017 186.901 146.886 186.988 146.743 187.048C146.6 187.107 146.447 187.137 146.292 187.137Z" fill="black"/>
<path d="M194.547 186.474C182.088 196.822 169.337 203.262 156.665 205.624C153.02 206.308 149.319 206.655 145.61 206.659C139.111 206.651 132.657 205.575 126.505 203.475C109.814 197.833 99.9873 186.79 99.5738 186.322C99.4416 186.183 99.3387 186.02 99.2714 185.841C99.2041 185.661 99.1737 185.47 99.182 185.279C99.1904 185.088 99.2373 184.9 99.32 184.728C99.4027 184.555 99.5194 184.401 99.6632 184.275C99.807 184.149 99.9748 184.053 100.156 183.993C100.338 183.934 100.53 183.912 100.721 183.928C100.911 183.945 101.096 184 101.265 184.09C101.434 184.18 101.582 184.304 101.702 184.453C108.897 191.877 117.747 197.488 127.527 200.827C148.924 208.01 170.869 202.447 192.741 184.295C192.884 184.175 193.049 184.084 193.227 184.028C193.405 183.972 193.592 183.952 193.778 183.968C193.964 183.985 194.145 184.037 194.31 184.124C194.475 184.21 194.622 184.328 194.742 184.471C194.862 184.614 194.952 184.78 195.008 184.958C195.064 185.136 195.084 185.323 195.068 185.509C195.052 185.695 194.999 185.876 194.913 186.042C194.826 186.207 194.709 186.354 194.566 186.474H194.547Z" fill="black"/>
<path d="M137.584 145.818C140.928 146.792 144.273 143.937 143.604 140.516C143.354 139.25 142.637 138.294 141.013 138.276C136.149 138.221 133.717 144.436 136.392 145.428C136.757 145.574 137.158 145.702 137.584 145.818Z" fill="#282828"/>
<path d="M153.959 146.013C150.536 146.621 147.507 143.462 148.486 140.126C148.601 139.495 148.959 138.934 149.484 138.566C150.009 138.198 150.658 138.052 151.29 138.16C156.154 138.598 157.942 145.033 155.157 145.745C154.786 145.848 154.372 145.933 153.959 146.013Z" fill="#282828"/>
<path d="M231.317 78.701C242.847 65.8887 248.895 49.059 248.161 31.8299C247.662 21.3661 244.731 13.8606 235.787 20.7696C220.397 32.6578 207.025 42.0746 197.479 49.9879C196.506 50.7975 204.167 51.5401 202.264 54.1454C200.294 56.8664 208.491 57.889 207.493 60.3726C206.825 62.0161 194.858 61.4013 195.332 62.1257L205.079 81.221C205.359 81.9393 205.742 88.8726 206.125 89.5422C207.195 91.4109 210.297 93.4075 211.713 95.2215C212.674 96.4389 213.288 96.9989 214.383 95.8911L231.317 78.701Z" fill="white"/>
<path d="M135.76 108.899C135.578 116.453 127.539 123.216 119.902 119.552C113.249 116.368 111.054 107 115.816 101.321C121.16 94.9354 131.795 97.005 134.939 104.553C135.516 105.928 135.796 107.409 135.76 108.899Z" fill="#BC6F2F"/>
<path d="M179.82 109.569C179.82 118.48 169.793 123.989 162.241 119.132C155.814 114.999 155.291 105.411 161.25 100.59C163.111 99.1395 165.365 98.2805 167.719 98.1243C170.073 97.968 172.42 98.5217 174.457 99.7138C176.126 100.751 177.498 102.205 178.438 103.932C179.378 105.66 179.854 107.602 179.82 109.569Z" fill="#BC6F2F"/>
<path d="M129.91 113.483C126.097 116.776 119.391 117.251 117.949 110.098C116.551 103.141 125.423 98.5876 130.396 103.561C133.935 107.14 132.719 111.078 129.91 113.483Z" fill="black"/>
<path d="M126.84 108.345C128.012 108.345 128.962 107.394 128.962 106.221C128.962 105.048 128.012 104.097 126.84 104.097C125.668 104.097 124.718 105.048 124.718 106.221C124.718 107.394 125.668 108.345 126.84 108.345Z" fill="#E5E5E5"/>
<path d="M172.182 114.512C171.446 115.318 170.525 115.932 169.499 116.303C168.472 116.675 167.371 116.791 166.29 116.642C154.786 115.09 160.398 96.8346 170.638 102.977C171.583 103.562 172.387 104.351 172.992 105.285C173.596 106.219 173.986 107.275 174.134 108.379C174.282 109.482 174.183 110.604 173.846 111.664C173.508 112.725 172.94 113.697 172.182 114.512Z" fill="black"/>
<path d="M163.67 109.764C164.842 109.764 165.792 108.813 165.792 107.639C165.792 106.466 164.842 105.515 163.67 105.515C162.498 105.515 161.548 106.466 161.548 107.639C161.548 108.813 162.498 109.764 163.67 109.764Z" fill="#E5E5E5"/>
<path d="M55.7386 81.8297C59.2836 86.5594 60.6031 90.4126 60.3781 93.5475C56.067 88.5499 50.8498 82.1037 49.737 78.494C47.8459 72.346 41.0782 59.8795 39.7283 52.4471C34.3895 23.0644 35.7272 27.0697 35.7272 27.0697L39.0594 6.37341L46.3015 2.72112L48.3993 1.67413L64.136 9.23437L65.6136 11.2918C65.6136 11.2918 51.0687 3.6768 47.7365 9.69091C44.4043 15.705 37.7277 57.8159 55.7386 81.8297Z" fill="#BC6F2F"/>
<path d="M123.258 64.104C122.425 64.7796 121.701 65.3883 121.099 65.9301C120.546 65.2423 119.932 64.4996 119.275 63.7265C112.994 56.1602 103.125 44.9233 92.4353 34.2526C72.2841 14.165 56.8331 3.50637 47.7608 3.5429C46.4866 3.48393 45.2185 3.75355 44.0782 4.32591C42.9379 4.89828 41.9635 5.75421 41.2485 6.8117C36.1103 14.1163 35.7151 28.1167 40.0323 48.5391C44.7631 70.7207 55.7812 89.2256 71.2868 101.808C72.0408 102.416 72.8009 103.025 73.5792 103.597C72.9712 104.303 72.3631 105.046 71.7551 105.831C70.9767 105.223 70.2166 104.657 69.4626 104.048C64.0178 99.6221 59.1406 94.5393 54.9421 88.9152C46.5569 77.727 40.4458 63.9579 37.3082 49.1296C32.7781 27.9219 33.3315 13.1362 38.9439 5.17425C39.9169 3.74319 41.2368 2.58265 42.7798 1.80123C44.3229 1.01982 46.0388 0.643086 47.7669 0.706285C67.4804 0.645414 105.794 43.0789 121.428 61.9004C121.738 62.2839 122.036 62.6552 122.346 63.0144L123.258 64.104Z" fill="black"/>
<path d="M76.2058 152.867C74.4302 146.268 74.5336 138.994 73.731 135.762C73.2567 133.875 73.4573 134.812 71.3717 135.287C70.7271 135.433 67.7719 138.252 66.647 136.237C64.5127 132.402 72.1743 127.581 70.9035 123.941C70.113 121.713 62.1778 127.897 61.9284 125.84C61.0772 118.535 68.0517 111.919 68.2462 107.353C68.2462 106.994 69.9975 105.028 70.7515 103.926C70.9764 103.585 71.1163 103.317 71.0798 103.232C71.0433 103.147 73.7371 101.917 73.7371 101.917C73.7371 101.917 75.5613 101.917 73.7371 99.9086L79.0759 97.2424C79.0759 97.2424 71.7365 112.6 71.7365 114.603C71.7365 116.606 78.4252 115.936 78.4252 115.936C78.4252 115.936 69.7542 130.63 73.7553 129.937C77.7564 129.243 78.4252 130.606 78.4252 130.606C78.4252 130.606 76.4247 155.983 81.0946 161.328C82.3229 162.734 79.7204 153.877 76.2058 152.867Z" fill="#BC6F2F"/>
<path d="M89.8208 172.333C89.5692 172.58 89.236 172.725 88.8844 172.741H88.8236C88.636 172.741 88.4503 172.704 88.277 172.632C88.1038 172.56 87.9465 172.454 87.8142 172.321C73.2997 157.712 72.1627 142.159 72.266 136.699L67.9731 137.777C67.5245 137.897 67.0515 137.892 66.6056 137.762C66.1596 137.632 65.7577 137.383 65.4435 137.04C65.1665 136.728 64.9795 136.346 64.9024 135.935C64.8253 135.525 64.861 135.101 65.0057 134.709L68.6055 125.103L65.8692 126.929C65.358 127.267 64.7614 127.453 64.1489 127.465C63.5364 127.477 62.9332 127.314 62.4093 126.996C61.9458 126.722 61.5706 126.321 61.3281 125.84C61.0856 125.358 60.986 124.818 61.0412 124.282C61.7832 118.015 64.0119 112.016 67.5414 106.787C67.7116 106.525 67.888 106.27 68.0704 106.014C68.4291 105.484 68.8061 104.961 69.1953 104.456L69.4993 104.054C70.1074 103.263 70.7155 102.526 71.3235 101.814C74.6577 97.9696 78.565 94.6639 82.9072 92.0135C83.2235 91.89 83.5737 91.8842 83.8939 91.9974C84.2141 92.1106 84.483 92.3351 84.6518 92.6301C84.8205 92.9252 84.8777 93.271 84.8131 93.6048C84.7485 93.9385 84.5662 94.2379 84.2996 94.4484C80.8224 96.6202 77.642 99.2353 74.8381 102.228C74.4368 102.66 74.0173 103.11 73.622 103.573C73.0139 104.279 72.4059 105.022 71.7978 105.807C71.6701 105.959 71.5485 106.117 71.4269 106.282C70.8675 107.012 70.3202 107.791 69.7973 108.595C66.595 113.371 64.5618 118.834 63.8626 124.543C63.9281 124.588 64.0054 124.612 64.0845 124.612C64.1637 124.612 64.241 124.588 64.3065 124.543L70.5209 120.398C70.7826 120.222 71.0937 120.133 71.4089 120.146C71.7242 120.159 72.0272 120.272 72.274 120.468C72.5207 120.665 72.6984 120.936 72.7812 121.24C72.864 121.545 72.8475 121.868 72.7342 122.163L67.9792 134.831L75.4462 132.962L75.1969 135.013C75.1969 135.196 73.2085 153.585 89.7904 170.319C90.06 170.583 90.2145 170.942 90.2202 171.32C90.2259 171.697 90.0823 172.062 89.8208 172.333Z" fill="black"/>
<path d="M224.336 123.472C224.896 127.179 229.377 133.284 229.061 136.255C228.811 138.483 223.771 135.281 222.445 136.255C220.986 137.32 223.242 142.549 222.919 144.777C222.311 149.038 220.785 147.419 220.578 153.299C217.957 154.596 217.666 159.496 218.511 157.383C221.18 150.688 214.51 131.343 214.51 129.991C214.51 128.64 221.198 129.991 221.198 129.991L217.848 116.581C217.848 116.581 225.187 119.923 226.525 118.584C227.863 117.245 218.705 100.249 218.523 99.8964L224.604 103.75C224.239 104.084 224.348 104.76 224.737 105.643C226.051 108.583 230.557 113.812 230.934 116.38C231.742 121.792 231.736 120.276 233.293 126.777C234.266 130.819 223.765 119.698 224.336 123.472Z" fill="#BC6F2F"/>
<path d="M225.978 105.338C225.674 104.937 225.37 104.541 225.072 104.163C224.774 103.786 224.464 103.445 224.197 103.098C220.746 98.9859 216.651 95.4621 212.072 92.6648C211.912 92.54 211.727 92.451 211.53 92.4038C211.332 92.3566 211.127 92.3524 210.928 92.3914C210.729 92.4304 210.541 92.5118 210.376 92.6299C210.211 92.7481 210.073 92.9003 209.972 93.0763C209.871 93.2523 209.809 93.448 209.79 93.6501C209.771 93.8523 209.795 94.0561 209.862 94.248C209.928 94.4398 210.035 94.6151 210.175 94.762C210.315 94.909 210.485 95.0241 210.673 95.0997C214.905 97.7419 218.7 101.028 221.922 104.839C222.53 105.539 223.139 106.282 223.698 107.067C227.808 112.421 230.389 118.792 231.165 125.499L224.203 120.854C223.959 120.693 223.671 120.613 223.38 120.625C223.088 120.638 222.808 120.743 222.58 120.925C222.352 121.107 222.187 121.356 222.109 121.638C222.031 121.919 222.045 122.218 222.147 122.492L227.012 135.476L219.174 133.57L219.837 135.932C219.891 136.121 224.799 154.194 208.223 170.903C208.09 171.034 207.985 171.191 207.913 171.363C207.841 171.536 207.804 171.721 207.804 171.907C207.804 172.094 207.841 172.279 207.913 172.452C207.985 172.624 208.09 172.78 208.223 172.912C208.416 173.104 208.661 173.235 208.928 173.289C209.022 173.311 209.118 173.323 209.214 173.326C209.591 173.324 209.953 173.176 210.223 172.912C214.008 169.158 217.13 164.791 219.46 159.995C219.752 159.386 220.025 158.777 220.275 158.169C223.075 151.654 224.026 144.493 223.023 137.472L227.438 138.598C227.841 138.705 228.266 138.698 228.666 138.579C229.066 138.46 229.426 138.233 229.706 137.923C229.963 137.641 230.138 137.293 230.21 136.918C230.282 136.543 230.248 136.156 230.113 135.798L225.249 124.172L231.11 128.975C231.415 129.174 231.768 129.286 232.132 129.298C232.495 129.309 232.855 129.221 233.172 129.042C233.47 128.873 233.717 128.625 233.884 128.326C234.051 128.026 234.133 127.686 234.12 127.343C233.675 119.356 230.838 111.688 225.978 105.338Z" fill="black"/>
<path d="M260.541 35.1108L254.552 59.1977L242.779 85.1898C242.779 85.1898 242.323 85.7985 241.563 86.8577C244.829 80.1618 247.644 72.9364 250.429 66.2649C253.305 59.4351 254.412 53.0071 255.056 45.672C255.69 38.8925 255.893 32.0794 255.664 25.274C255.5 20.806 255.567 15.0598 253.232 11.0666C249.073 3.98115 223.929 16.6972 218.165 19.7408L223.182 15.0719L241.192 5.05858L249.863 3.05591L259.197 11.7362L260.541 35.1108Z" fill="#BC6F2F"/>
<path d="M173.046 65.4431C173.879 66.1127 174.603 66.7214 175.205 67.2693C175.758 66.5814 176.372 65.8388 177.029 65.0657C183.286 57.4811 193.155 46.2564 203.863 35.5674C223.996 15.4798 239.447 4.83946 248.519 4.8699C249.797 4.81559 251.068 5.09105 252.21 5.66985C253.351 6.24864 254.325 7.11135 255.037 8.17522C260.169 15.4798 260.565 29.4802 256.217 49.8965C251.486 72.0842 240.474 90.5892 224.962 103.171C224.208 103.78 223.446 104.377 222.676 104.961C223.284 105.661 223.892 106.41 224.5 107.189C225.279 106.58 226.039 106.014 226.793 105.405C232.239 100.981 237.116 95.8981 241.313 90.2726C249.698 79.0905 255.81 65.3153 258.947 50.4931C263.477 29.2855 262.924 14.4998 257.311 6.53778C256.338 5.10671 255.019 3.94617 253.476 3.16476C251.932 2.38334 250.217 2.00661 248.488 2.06981C228.793 1.97242 190.485 44.412 174.864 63.2335L173.946 64.3474C173.636 64.7188 173.344 65.0901 173.046 65.4431Z" fill="black"/>
<path d="M90.7024 45.0634C87.9661 42.8659 85.3332 40.9485 82.7976 39.2684C62.7923 25.9315 49.731 27.8124 49.275 27.8854C48.2031 27.6822 47.2163 27.1628 46.4414 26.3941C46.4414 23.4905 46.6238 20.1669 48.2656 17.4703C48.6597 16.7784 49.1956 16.1777 49.838 15.7077C50.4804 15.2377 51.2148 14.9091 51.993 14.7433C55.5806 13.9885 59.831 16.5694 62.7132 18.5843C67.1275 21.7783 71.3469 25.2338 75.3488 28.9324C76.8081 30.229 78.3161 31.5743 79.8241 32.8708C80.6815 33.6074 81.551 34.3743 82.4449 35.1596C83.8374 36.377 85.2724 37.6492 86.7622 38.891C89.091 42.4763 90.7024 45.0634 90.7024 45.0634Z" fill="#C9C9C9"/>
<path d="M205.134 46.8895C207.87 44.692 210.503 42.7746 213.039 41.0945C233.074 27.7576 246.111 29.6385 246.567 29.7115C247.639 29.5083 248.626 28.9889 249.401 28.2202C249.401 25.3166 249.218 21.993 247.577 19.2964C247.183 18.6045 246.647 18.0038 246.004 17.5338C245.362 17.0639 244.627 16.7352 243.849 16.5694C240.262 15.8146 236.011 18.3955 233.129 20.4104C228.715 23.6044 224.495 27.06 220.493 30.7585C219.034 32.0551 217.526 33.4004 216.018 34.6969C215.161 35.4335 214.291 36.2005 213.397 36.9857C212.005 38.2031 210.57 39.4753 209.08 40.7171C206.745 44.3024 205.134 46.8895 205.134 46.8895Z" fill="#C9C9C9"/>
<path d="M102.195 61.2369C98.8017 65.8996 90.4226 79.4983 92.3258 86.2794C92.3758 86.4589 92.3899 86.6464 92.3674 86.8314C92.3449 87.0163 92.2863 87.195 92.1948 87.3572C92.1033 87.5194 91.9808 87.662 91.8343 87.7769C91.6877 87.8917 91.52 87.9765 91.3407 88.0264C90.9821 88.118 90.6019 88.0655 90.2814 87.8801C89.961 87.6947 89.7257 87.3911 89.626 87.0342C87.4674 79.3218 95.2324 66.5327 98.5342 61.5839L83.1866 60.1655C82.8591 60.1362 82.552 59.9938 82.3179 59.7626C82.0839 59.5315 81.9374 59.226 81.9036 58.8986C81.8698 58.5712 81.9508 58.2422 82.1328 57.9681C82.3147 57.6939 82.5862 57.4916 82.9008 57.3959L93.4751 54.1697L89.547 53.2749C89.2538 53.2062 88.9901 53.0459 88.7941 52.8171C88.5981 52.5883 88.48 52.3029 88.457 52.0024C88.4339 51.7019 88.5071 51.4018 88.666 51.1457C88.8248 50.8897 89.0609 50.6909 89.3402 50.5783C90.2706 50.2131 91.2435 49.8843 92.1799 49.5678C93.2805 49.2026 94.3993 48.8252 95.4513 48.3808C90.8908 46.0373 86.6769 42.6102 82.8218 39.2501L80.578 37.2839C79.6963 36.5048 78.8329 35.7439 77.9816 35.0195C76.4553 33.6986 74.9413 32.3534 73.4697 31.0446C69.3957 27.3923 65.5649 23.9896 61.1017 20.8913C57.3135 18.2494 54.413 17.1111 52.5888 17.5007C52.1886 17.5849 51.8118 17.7562 51.485 18.0023C51.1582 18.2485 50.8894 18.5635 50.6977 18.9251C49.2201 21.36 49.2627 24.8662 49.2992 27.6906V28.0132C49.4147 37.5335 51.3788 46.8834 53.0753 53.9445C53.1261 54.1281 53.1394 54.3201 53.1144 54.5091C53.0894 54.698 53.0267 54.8799 52.9299 55.044C52.8331 55.2081 52.7043 55.351 52.5511 55.4642C52.398 55.5773 52.2236 55.6584 52.0384 55.7026C51.8532 55.7468 51.6611 55.7532 51.4734 55.7214C51.2857 55.6896 51.1063 55.6203 50.946 55.5175C50.7857 55.4148 50.6477 55.2807 50.5403 55.1234C50.4328 54.9661 50.3582 54.7887 50.3207 54.6019C48.5877 47.3886 46.5872 37.844 46.4717 28.0437V27.7271C46.4717 27.2889 46.4717 26.8384 46.4717 26.3758C46.4717 23.4722 46.6541 20.1486 48.2959 17.452C48.69 16.7601 49.2258 16.1594 49.8682 15.6894C50.5106 15.2194 51.2451 14.8908 52.0233 14.725C55.6109 13.9702 59.8613 16.5511 62.7435 18.566C67.1577 21.76 71.3771 25.2155 75.3791 28.9141C76.8384 30.2107 78.3464 31.5559 79.8544 32.8525C80.7118 33.5891 81.5813 34.356 82.4752 35.1413C83.8676 36.3587 85.3027 37.6309 86.7924 38.8727C90.6536 42.105 94.825 45.1912 99.2213 46.9443C99.4603 47.0425 99.6683 47.2035 99.8235 47.4103C99.9787 47.6171 100.075 47.8619 100.103 48.1191C100.131 48.3747 100.09 48.6332 99.9826 48.8669C99.8755 49.1007 99.7069 49.3009 99.4949 49.4461C98.0868 50.3377 96.5759 51.0551 94.9952 51.5827L99.2942 52.5749C99.5986 52.6446 99.8714 52.813 100.07 53.0539C100.269 53.2948 100.383 53.5947 100.394 53.9071C100.405 54.2194 100.313 54.5267 100.132 54.7811C99.9504 55.0356 99.6902 55.2229 99.3915 55.3141L90.6476 57.9863L101.234 58.9603C101.483 58.9834 101.722 59.0721 101.925 59.2174C102.129 59.3628 102.291 59.5596 102.394 59.7878C102.497 60.016 102.538 60.2675 102.513 60.5166C102.487 60.7658 102.397 61.0038 102.249 61.2064L102.195 61.2369Z" fill="black"/>
<path d="M204.994 89.3717C205.353 89.4619 205.733 89.4089 206.054 89.2238C206.376 89.0387 206.612 88.736 206.715 88.3795C208.867 80.6671 201.102 67.8841 197.8 62.9291L213.154 61.5108C213.481 61.4804 213.787 61.3372 214.021 61.1056C214.254 60.874 214.4 60.5685 214.433 60.2413C214.466 59.9141 214.384 59.5855 214.202 59.3119C214.02 59.0383 213.748 58.8365 213.434 58.7412L202.866 55.515L206.775 54.6141C207.07 54.5463 207.336 54.3858 207.533 54.1559C207.73 53.9261 207.849 53.639 207.871 53.3368C207.894 53.0347 207.819 52.7332 207.658 52.4767C207.497 52.2202 207.258 52.0221 206.976 51.9114C206.046 51.5462 205.079 51.2175 204.136 50.9009C203.042 50.5357 201.923 50.1583 200.871 49.7139C206.344 46.9078 211.299 42.5494 215.744 38.6353C216.626 37.8623 217.496 37.1014 218.341 36.3709C219.873 35.0561 221.381 33.7047 222.853 32.4021C226.933 28.7498 230.757 25.341 235.227 22.2426C239.015 19.6008 241.879 18.4625 243.74 18.8582C244.14 18.9424 244.517 19.1136 244.843 19.3598C245.17 19.6059 245.439 19.9209 245.631 20.2826C247.108 22.7174 247.066 26.2236 247.029 29.042V29.3646C246.92 38.8849 244.956 48.2348 243.259 55.2959C243.212 55.4782 243.202 55.6681 243.228 55.8545C243.255 56.0409 243.319 56.22 243.416 56.3815C243.513 56.543 243.641 56.6836 243.792 56.795C243.944 56.9064 244.116 56.9865 244.299 57.0306C244.482 57.0747 244.672 57.0818 244.858 57.0516C245.043 57.0214 245.221 56.9545 245.381 56.8548C245.54 56.7551 245.679 56.6246 245.787 56.4708C245.896 56.3171 245.973 56.1432 246.014 55.9594C247.747 48.74 249.747 39.2014 249.863 29.395V29.0785C249.899 25.8949 249.948 21.9322 248.039 18.8034C247.647 18.1145 247.114 17.5165 246.474 17.0485C245.835 16.5806 245.104 16.2535 244.329 16.0885C240.736 15.3276 236.491 17.9147 233.609 19.9234C229.196 23.1193 224.977 26.5748 220.974 30.2716C219.514 31.5681 218.006 32.9134 216.492 34.2161C215.641 34.9526 214.765 35.7196 213.878 36.4987C208.879 40.8937 203.212 45.8729 197.131 48.3078C196.89 48.4021 196.68 48.5609 196.523 48.7669C196.366 48.973 196.269 49.2183 196.242 49.476C196.215 49.7337 196.259 49.9938 196.37 50.228C196.481 50.4621 196.654 50.6613 196.87 50.8035C198.279 51.6959 199.789 52.4153 201.37 52.9462L197.071 53.9323C196.766 54.002 196.493 54.1704 196.295 54.4113C196.096 54.6522 195.982 54.9522 195.971 55.2645C195.96 55.5769 196.052 55.8841 196.233 56.1386C196.415 56.393 196.675 56.5804 196.973 56.6715L205.717 59.3438L195.131 60.3238C194.882 60.3469 194.643 60.4356 194.439 60.581C194.236 60.7263 194.074 60.9231 193.971 61.1513C193.868 61.3795 193.827 61.631 193.852 61.8802C193.877 62.1294 193.968 62.3674 194.115 62.57C197.508 67.2267 205.888 80.8315 203.984 87.6065C203.883 87.9689 203.929 88.3567 204.113 88.6851C204.296 89.0136 204.602 89.2561 204.963 89.3595L204.994 89.3717Z" fill="black"/>
<path d="M186.229 294.216C186.229 294.216 185.858 293.955 185.171 293.523C177.054 288.373 124.432 258.826 105.819 343.529C105.357 345.61 104.919 347.765 104.505 349.993C104.505 349.993 97.2087 289.633 141.652 271.371C142.108 271.183 142.558 271.006 143.002 270.836C153.85 268.042 163.5 271.639 170.243 275.705C176.193 279.408 181.454 284.119 185.791 289.627C186.044 291.145 186.19 292.678 186.229 294.216Z" fill="#C9C9C9"/>
<path d="M200.531 328.968C200.516 329.292 200.391 329.602 200.177 329.846C199.962 330.089 199.671 330.252 199.351 330.307C199.252 330.319 199.152 330.319 199.053 330.307C198.867 330.299 198.685 330.255 198.516 330.176C198.347 330.098 198.195 329.987 198.069 329.849C197.943 329.712 197.845 329.551 197.782 329.376C197.718 329.2 197.689 329.014 197.697 328.828C198.16 317.518 193.137 304.26 185.165 293.492C180.532 287.235 174.901 281.817 168.748 278.11C160.879 273.356 148.73 269.29 135.559 276.935C113.316 289.84 104.025 318.042 105.764 343.498C106.142 349.24 107.133 354.926 108.719 360.457C113.791 377.878 125.38 401.241 141.354 409.641C144.476 411.36 147.922 412.408 151.472 412.717C155.021 413.026 158.596 412.59 161.968 411.437C177.619 406.281 187.932 387.843 192.687 377.312C192.843 376.97 193.129 376.703 193.481 376.571C193.833 376.439 194.223 376.451 194.566 376.606C194.798 376.715 194.997 376.883 195.144 377.093C195.284 377.293 195.369 377.527 195.391 377.77C195.414 378.013 195.372 378.258 195.271 378.481C189.227 391.873 178.695 408.917 162.855 414.127C159.882 415.129 156.768 415.647 153.631 415.661C148.88 415.629 144.21 414.425 140.035 412.155C123.276 403.316 111.231 379.211 105.983 361.248C101.593 346.158 101.593 328.603 105.983 313.093C109.419 300.918 117.08 284.355 134.1 274.476C136.863 272.858 139.836 271.629 142.935 270.824C153.783 268.03 163.433 271.627 170.176 275.693C176.126 279.396 181.387 284.107 185.725 289.615C188.177 292.679 190.379 295.936 192.31 299.354C198.001 309.386 200.896 319.892 200.531 328.968Z" fill="black"/>
<path d="M200.756 354.278C200.701 354.826 199.54 367.731 197.825 372.181C197.734 372.418 197.582 372.626 197.385 372.784C197.187 372.943 196.951 373.045 196.7 373.082H196.499C196.327 373.084 196.155 373.053 195.995 372.99C195.821 372.924 195.662 372.824 195.528 372.697C195.393 372.569 195.284 372.416 195.209 372.247C195.133 372.077 195.091 371.894 195.086 371.708C195.081 371.522 195.113 371.338 195.18 371.164C196.73 367.074 197.916 354.12 197.934 354.017C197.963 353.667 198.121 353.34 198.377 353.1C198.634 352.861 198.97 352.725 199.321 352.72H199.467C199.653 352.738 199.835 352.792 200.001 352.88C200.167 352.968 200.314 353.087 200.434 353.232C200.553 353.377 200.643 353.544 200.699 353.723C200.754 353.903 200.773 354.091 200.756 354.278Z" fill="black"/>

</svg>
