<svg width="216" height="207" viewBox="0 0 216 207" fill="none" xmlns="http://www.w3.org/2000/svg">
<g clip-path="url(#clip0_1409_10231)">
<path d="M53.6621 243C48.0167 243 42.3712 243 36.7257 243C32.5694 241.983 28.3996 240.966 24.2434 239.949C7.37463 233.807 -4.21418 221.793 -12.0664 206.105C-14.7605 200.708 -15.9384 194.538 -17.739 188.708C-21.8275 175.555 -20.406 163.162 -13.0818 151.324C-5.29724 138.755 3.78697 127.432 15.5112 118.334C33.1787 106.035 50.8597 93.7369 68.5407 81.4249C77.9228 75.5265 87.3319 69.6552 96.6869 63.7297C110.875 54.7398 126.146 49.6143 143.137 50.4685C148.606 50.7397 154.076 50.9974 159.545 51.2685C160.872 51.6753 162.267 51.9601 163.526 52.516C169.713 55.2415 175.669 58.6449 182.073 60.6517C193.039 64.0823 201.23 71.3502 208.527 79.4316C214.579 86.13 217.733 94.3064 214.998 103.988C212.169 114.022 206.469 122.293 199.849 129.873C194.109 136.449 188.477 142.89 184.226 150.633C181.071 156.382 177.01 161.765 172.705 166.741C160.777 180.545 146.562 191.596 130.099 199.406C117.252 205.508 105.974 213.725 95.3466 223.013C87.3996 229.942 78.7893 235.827 68.7438 239.217C63.8565 240.885 58.6984 241.766 53.6621 243Z" fill="#823E25"/>
<path d="M142.868 186.339C143.647 185.925 144.393 185.304 145.225 185.13C146.462 184.875 148.206 184.407 148.917 185.001C149.676 185.641 149.969 187.563 149.634 188.67C148.668 191.808 147.488 194.92 145.999 197.848C143.435 202.91 142.811 208.312 142.932 213.804C143.021 217.953 143.6 222.096 143.959 226.238C133.965 235.113 123.976 243.97 113.989 252.836C108.262 244.537 102.888 235.934 100.808 225.979C98.9817 217.248 98.2181 208.29 97.1346 199.412C96.8577 197.123 97.1379 194.761 97.2034 192.44C97.27 190.272 98.8603 189.721 100.577 189.528C102.245 189.349 102.984 190.253 103.074 191.954C103.18 194.009 103.52 196.044 103.76 198.092C104.136 201.3 104.513 204.509 104.889 207.718C105.159 207.72 105.438 207.721 105.709 207.723C105.858 207.198 106.043 206.685 106.158 206.154C106.569 204.259 106.742 202.282 107.392 200.477C109.219 195.468 111.196 190.509 113.245 185.592C113.652 184.603 114.647 183.868 115.374 183.012C118.072 182.975 118.23 183.32 118.05 185.959C117.618 192.135 117.364 198.323 117.035 204.512C117.117 206.51 117.199 208.508 117.303 210.834C118.145 208.44 118.871 206.347 119.605 204.253C123.473 195.335 127.659 186.609 133.397 178.734C133.842 178.131 134.317 177.508 134.917 177.073C137.139 175.431 138.847 176.171 139.214 178.873C137.722 183.063 135.906 187.165 134.822 191.46C133.621 196.193 133.099 201.1 132.281 205.932C132.057 207.33 131.841 208.728 131.617 210.127C131.886 210.197 132.148 210.268 132.419 210.346C132.972 208.943 133.526 207.548 134.079 206.144C134.607 205.176 135.215 204.24 135.654 203.231C138.077 197.61 140.464 191.975 142.868 186.339Z" fill="#ADD137"/>
<path d="M74.308 17.3428C75.6347 16.8275 76.948 15.9732 78.3153 15.8512C80.3461 15.6749 83.2297 15.2546 84.2586 16.3393C85.3552 17.5055 85.4635 20.6377 84.7189 22.3462C82.5799 27.187 80.1024 31.9463 77.1646 36.3532C72.1012 43.9736 70.084 52.5026 69.2446 61.3162C68.6083 67.974 68.7573 74.713 68.5542 81.4114C50.8596 93.737 33.1786 106.036 15.4975 118.348C7.87544 103.988 0.876134 89.2082 -0.586005 72.8825C-1.87214 58.5637 -1.41184 44.0821 -1.47953 29.6683C-1.49307 25.953 -0.599544 22.2242 -0.0580111 18.5224C0.456445 15.0648 3.10995 14.4817 5.89885 14.4953C8.60651 14.5224 9.62189 16.1088 9.44589 18.8479C9.22928 22.1564 9.39174 25.4785 9.39174 28.8005C9.39174 34.0074 9.39174 39.2142 9.39174 44.4211C9.82496 44.4753 10.2717 44.5296 10.705 44.5838C11.0434 43.7702 11.436 42.9838 11.7203 42.1567C12.7357 39.2007 13.3855 36.0684 14.7664 33.3023C18.6384 25.6276 22.7405 18.0614 26.9509 10.5766C27.7903 9.07145 29.5232 8.08161 30.85 6.84769C35.1822 7.29516 35.3718 7.87821 34.5865 12.0681C32.7318 21.8716 31.1614 31.7294 29.4691 41.5736C29.2254 44.7872 28.9817 48.0008 28.7109 51.7432C30.5115 48.0686 32.0684 44.855 33.6389 41.6414C41.5182 28.0954 49.8713 14.9156 60.553 3.39002C61.3789 2.50865 62.2589 1.60016 63.3013 1.0171C67.1733 -1.1931 69.7726 0.312008 69.8539 4.70529C66.6724 11.1325 62.9899 17.3563 60.4447 24.0276C57.6288 31.3768 55.8688 39.1329 53.6485 46.7127C53.0257 48.9093 52.4165 51.1059 51.7938 53.3026C52.2134 53.4653 52.6196 53.628 53.0393 53.8043C54.19 51.6619 55.3408 49.533 56.4915 47.3906C57.5205 45.9398 58.6712 44.5567 59.5647 43.0245C64.5062 34.482 69.3936 25.9124 74.308 17.3428Z" fill="#ADD137"/>
<path d="M20.0334 173.571C19.0264 173.182 18.0296 172.537 16.9918 172.445C15.4504 172.312 13.2617 171.995 12.4808 172.814C11.6484 173.694 11.5662 176.058 12.1314 177.348C13.7549 181.002 15.6354 184.594 17.8652 187.921C21.7083 193.673 23.2394 200.111 23.8765 206.764C24.3595 211.789 24.2464 216.876 24.4006 221.932C37.8309 231.236 51.251 240.52 64.6711 249.813C70.4563 238.974 75.7688 227.818 76.8786 215.494C77.8548 204.686 77.5054 193.755 77.5568 182.875C77.5671 180.07 76.8889 177.256 76.4778 174.461C76.0874 171.851 74.0733 171.411 71.9565 171.422C69.9014 171.442 69.1307 172.64 69.2643 174.707C69.4287 177.204 69.3054 179.712 69.3054 182.22C69.3054 186.15 69.3054 190.08 69.3054 194.011C68.9766 194.052 68.6375 194.093 68.3087 194.134C68.0518 193.519 67.7538 192.926 67.538 192.301C66.7673 190.07 66.2741 187.706 65.2259 185.618C62.2871 179.825 59.1736 174.113 55.9778 168.464C55.3407 167.327 54.0254 166.58 53.0184 165.649C49.7302 165.987 49.5863 166.427 50.1823 169.589C51.5901 176.99 52.7821 184.431 54.0665 191.861C54.2515 194.287 54.4365 196.713 54.642 199.538C53.2753 196.764 52.0936 194.338 50.9016 191.912C44.9212 181.688 38.581 171.739 30.4735 163.039C29.8467 162.374 29.1788 161.688 28.3875 161.248C25.4487 159.579 23.4758 160.716 23.4141 164.032C25.8289 168.883 28.6239 173.581 30.5557 178.617C32.6931 184.164 34.0289 190.019 35.7141 195.74C36.1868 197.399 36.6492 199.057 37.1219 200.715C36.8033 200.838 36.4951 200.96 36.1765 201.093C35.3031 199.476 34.4297 197.869 33.5562 196.252C32.7753 195.157 31.9018 194.113 31.2236 192.956C27.473 186.508 23.7635 180.04 20.0334 173.571Z" fill="#ADD137"/>
<g clip-path="url(#clip1_1409_10231)">
<path d="M178.497 55.7916C179.7 56.0187 179.057 59.5766 177.468 60.9241C176.886 61.6281 176.303 62.3246 175.729 63.0286C174.707 64.4139 173.679 65.8068 172.658 67.1921C172.536 67.2527 172.363 67.283 172.302 67.3738C169.186 72.3777 166.077 77.3891 163.021 82.4232C162.862 82.6881 163.119 83.2029 163.18 83.6041C161.697 86.4429 160.131 89.2438 158.77 92.1432C157.703 94.3991 156.902 96.7836 155.971 99.1076C155.449 100.41 155.147 101.583 156.213 102.908C156.644 103.445 156.554 104.755 156.213 105.497C155.2 107.722 153.558 109.395 151.16 110.228C150.608 110.417 150.117 110.803 149.602 111.106C148.785 111.084 147.961 110.955 147.159 111.053C143.037 111.545 139.814 109.592 136.849 107.155C134.073 104.876 131.471 102.386 128.771 100.008C128.544 99.8117 128.158 99.8041 127.848 99.7057C124.3 96.2386 121.32 92.4535 120.246 87.4119C119.8 85.2922 118.499 83.3013 118.317 81.1892C117.871 75.9129 117.848 70.6138 117.667 65.3299C117.667 65.2466 117.856 65.1558 117.962 65.0725C118.257 64.4215 118.688 63.8007 118.824 63.1194C119.497 59.7659 120.087 59.342 123.574 60.0308C123.635 60.1974 123.756 60.3866 123.756 60.5759C123.703 67.23 123.778 73.8311 125.344 80.3944C126.524 85.3452 128.279 89.9933 130.76 94.3839C131.214 95.1863 132.046 96.178 133.226 95.0425C133.075 93.7556 132.87 92.4762 132.78 91.1818C132.696 90.0614 132.734 88.9334 132.727 87.8055C132.727 87.4043 132.916 86.8971 132.742 86.617C130.435 83.0288 131.229 78.9334 130.813 75.0499C130.578 72.8394 130.541 70.6063 130.42 68.3806C130.654 66.4654 130.896 64.5577 131.131 62.6425C131.539 60.6894 131.811 58.6985 132.394 56.7984C133.233 54.0505 134.149 51.3101 135.314 48.6908C136.025 47.086 139.247 46.4349 141.009 47.3963C142.719 48.3275 142.325 49.902 142.008 51.4766C141.115 55.8748 140.23 60.2806 139.519 64.7091C139.065 67.5479 138.929 70.4473 138.657 73.3163C138.49 75.1407 138.324 76.9727 138.188 78.8047C137.9 82.6881 138.18 86.4883 139.837 90.0917C140.412 92.499 140.987 94.9138 141.569 97.3211C141.735 97.2757 141.894 97.2227 142.061 97.1773C142.257 94.5959 142.462 92.0145 142.658 89.4255C142.794 88.6988 143.059 87.9645 143.044 87.2377C142.976 81.8478 144.489 76.7002 145.351 71.4541C146.425 64.9211 150.154 59.7507 153.392 54.3154C154.216 52.9301 155.752 51.8248 157.189 50.9846C159.254 49.7658 161.243 51.4085 161.1 54.0202C157.749 57.7295 155.495 62.0369 154.186 66.8515C154.163 67.1921 154.224 67.5555 154.11 67.8659C152.635 71.9462 151.138 76.0189 149.648 80.0991C149.534 80.4171 149.39 80.7426 149.36 81.0757C149.171 83.6722 149.012 86.2763 148.846 88.8729C148.672 91.0909 148.498 93.309 148.324 95.527C148.505 95.5724 148.687 95.6103 148.876 95.6557C149.837 93.1803 150.797 90.6973 151.758 88.2219C152.991 85.8903 154.216 83.5587 155.449 81.2271C155.948 80.735 156.561 80.3111 156.939 79.7358C158.77 76.9424 160.532 74.1036 162.325 71.28C164.103 68.6834 165.88 66.0869 167.658 63.4828C169.67 61.3102 171.682 59.1451 173.701 56.9725C174.775 55.8294 175.207 55.5796 178.497 55.7916ZM123.105 62.37C121.736 64.2247 121.872 71.2119 123.105 72.3852C123.105 69.1074 123.105 65.9355 123.105 62.37Z" fill="#ADD137"/>
<path d="M133.233 95.0349C132.053 96.1705 131.221 95.1788 130.767 94.3763C128.286 89.9857 126.532 85.3377 125.352 80.3868C123.786 73.8235 123.71 67.2224 123.763 60.5683C123.763 60.3791 123.642 60.1898 123.582 60.0233C120.095 59.3344 119.497 59.7583 118.831 63.1119C118.695 63.7932 118.264 64.4139 117.969 65.0649C117.228 61.0301 119.429 58.6077 123.294 59.3117C123.71 59.3874 124.262 60.1822 124.285 60.6592C124.391 63.0513 124.338 65.451 124.33 67.8432C124.315 72.3625 125.435 76.6699 126.403 81.0454C127.265 84.9289 128.642 88.449 130.692 91.7647C131.403 92.9456 132.371 93.9524 133.233 95.0349Z" fill="#C2DB6F"/>
<path d="M154.186 66.8363C155.495 62.0218 157.756 57.722 161.1 54.005C160.684 55.0194 160.351 56.0792 159.836 57.0482C158.384 59.8113 156.871 62.5517 155.351 65.2769C155.041 65.8371 154.579 66.314 154.186 66.8363Z" fill="#BACE7B"/>
<path d="M166.81 63.8991C167.09 63.7553 167.37 63.6039 167.65 63.4601C165.873 66.0566 164.095 68.6532 162.317 71.2573C162.597 70.5835 162.885 69.9098 163.172 69.2361C164.382 67.4495 165.593 65.6706 166.81 63.8991Z" fill="#C2D38A"/>
<path d="M123.105 62.37C123.105 65.9279 123.105 69.1074 123.105 72.3852C121.872 71.2119 121.736 64.2322 123.105 62.37Z" fill="#C5DC75"/>
</g>
</g>
<defs>
<clipPath id="clip0_1409_10231">
<rect width="216" height="207" fill="white"/>
</clipPath>
<clipPath id="clip1_1409_10231">
<rect width="61.4508" height="64.1793" fill="white" transform="translate(117.667 46.9346)"/>
</clipPath>
</defs>
</svg>
